<mxfile host="65bd71144e" pages="3">
    <diagram id="SfiV4CnlrqohorxfoirV" name="(Start) Login and Register">
        <mxGraphModel dx="1118" dy="817" grid="1" gridSize="10" guides="1" tooltips="1" connect="1" arrows="1" fold="1" page="1" pageScale="1" pageWidth="850" pageHeight="1100" math="0" shadow="0">
            <root>
                <mxCell id="0"/>
                <mxCell id="1" parent="0"/>
                <mxCell id="iBtySErlTTQMFbDr3Z2z-1" value="Start" style="strokeWidth=2;html=1;shape=mxgraph.flowchart.start_1;whiteSpace=wrap;" parent="1" vertex="1">
                    <mxGeometry x="241" y="8" width="109" height="50" as="geometry"/>
                </mxCell>
                <mxCell id="iBtySErlTTQMFbDr3Z2z-2" value="Display &lt;br&gt;Homepage" style="shape=parallelogram;html=1;strokeWidth=2;perimeter=parallelogramPerimeter;whiteSpace=wrap;rounded=1;arcSize=12;size=0.23;fontFamily=Helvetica;" parent="1" vertex="1">
                    <mxGeometry x="237" y="98" width="120" height="70" as="geometry"/>
                </mxCell>
                <mxCell id="iBtySErlTTQMFbDr3Z2z-3" value="Click Login/Book Now" style="rounded=1;whiteSpace=wrap;html=1;absoluteArcSize=1;arcSize=14;strokeWidth=2;fontFamily=Helvetica;fontColor=#000000;" parent="1" vertex="1">
                    <mxGeometry x="230" y="218" width="130" height="40" as="geometry"/>
                </mxCell>
                <mxCell id="2" value="" style="edgeStyle=none;html=1;entryX=0.5;entryY=0;entryDx=0;entryDy=0;entryPerimeter=0;exitX=0.5;exitY=1;exitDx=0;exitDy=0;" parent="1" source="iBtySErlTTQMFbDr3Z2z-3" target="iBtySErlTTQMFbDr3Z2z-4" edge="1">
                    <mxGeometry relative="1" as="geometry">
                        <mxPoint x="270" y="298" as="sourcePoint"/>
                    </mxGeometry>
                </mxCell>
                <mxCell id="iBtySErlTTQMFbDr3Z2z-4" value="Have an account?" style="strokeWidth=2;html=1;shape=mxgraph.flowchart.decision;whiteSpace=wrap;fontFamily=Helvetica;fontColor=#000000;" parent="1" vertex="1">
                    <mxGeometry x="255.5" y="316" width="80" height="70" as="geometry"/>
                </mxCell>
                <mxCell id="iBtySErlTTQMFbDr3Z2z-5" value="Complete &lt;br&gt;Sign Up Form&lt;br&gt;(First and Last Name,&lt;br&gt;Email, Password, and&lt;br&gt;Contact Number)" style="shape=parallelogram;html=1;strokeWidth=2;perimeter=parallelogramPerimeter;whiteSpace=wrap;rounded=1;arcSize=12;size=0.23;fontFamily=Helvetica;fontColor=#000000;" parent="1" vertex="1">
                    <mxGeometry x="380" y="288" width="170" height="120" as="geometry"/>
                </mxCell>
                <mxCell id="6" style="edgeStyle=none;html=1;exitX=1;exitY=0.5;exitDx=0;exitDy=0;exitPerimeter=0;entryX=0.618;entryY=-0.025;entryDx=0;entryDy=0;entryPerimeter=0;" parent="1" source="iBtySErlTTQMFbDr3Z2z-7" target="iBtySErlTTQMFbDr3Z2z-5" edge="1">
                    <mxGeometry relative="1" as="geometry">
                        <Array as="points">
                            <mxPoint x="790" y="348"/>
                            <mxPoint x="790" y="178"/>
                            <mxPoint x="485" y="178"/>
                        </Array>
                    </mxGeometry>
                </mxCell>
                <mxCell id="iBtySErlTTQMFbDr3Z2z-7" value="agree to terms of&lt;br&gt;conditions?" style="strokeWidth=2;html=1;shape=mxgraph.flowchart.decision;whiteSpace=wrap;fontFamily=Helvetica;fontColor=#000000;" parent="1" vertex="1">
                    <mxGeometry x="571" y="308" width="150" height="80" as="geometry"/>
                </mxCell>
                <mxCell id="iBtySErlTTQMFbDr3Z2z-10" value="" style="endArrow=classic;html=1;rounded=0;fontFamily=Helvetica;fontColor=#000000;entryX=0.5;entryY=0;entryDx=0;entryDy=0;exitX=0.5;exitY=1;exitDx=0;exitDy=0;exitPerimeter=0;" parent="1" source="iBtySErlTTQMFbDr3Z2z-1" target="iBtySErlTTQMFbDr3Z2z-2" edge="1">
                    <mxGeometry width="50" height="50" relative="1" as="geometry">
                        <mxPoint x="297" y="68" as="sourcePoint"/>
                        <mxPoint x="296.40999999999997" y="108" as="targetPoint"/>
                    </mxGeometry>
                </mxCell>
                <mxCell id="iBtySErlTTQMFbDr3Z2z-11" value="" style="endArrow=classic;html=1;rounded=0;fontFamily=Helvetica;fontColor=#000000;" parent="1" edge="1">
                    <mxGeometry width="50" height="50" relative="1" as="geometry">
                        <mxPoint x="296.40999999999997" y="168" as="sourcePoint"/>
                        <mxPoint x="296" y="218" as="targetPoint"/>
                    </mxGeometry>
                </mxCell>
                <mxCell id="iBtySErlTTQMFbDr3Z2z-14" value="" style="endArrow=classic;html=1;rounded=0;fontFamily=Helvetica;fontColor=#000000;entryX=0;entryY=0.5;entryDx=0;entryDy=0;" parent="1" target="iBtySErlTTQMFbDr3Z2z-5" edge="1">
                    <mxGeometry width="50" height="50" relative="1" as="geometry">
                        <mxPoint x="336" y="351" as="sourcePoint"/>
                        <mxPoint x="386" y="351" as="targetPoint"/>
                    </mxGeometry>
                </mxCell>
                <mxCell id="iBtySErlTTQMFbDr3Z2z-15" value="" style="endArrow=classic;html=1;rounded=0;fontFamily=Helvetica;fontColor=#000000;entryX=0;entryY=0.5;entryDx=0;entryDy=0;exitX=1;exitY=0.5;exitDx=0;exitDy=0;" parent="1" source="iBtySErlTTQMFbDr3Z2z-5" edge="1">
                    <mxGeometry width="50" height="50" relative="1" as="geometry">
                        <mxPoint x="540" y="348" as="sourcePoint"/>
                        <mxPoint x="571.2500000000002" y="348" as="targetPoint"/>
                    </mxGeometry>
                </mxCell>
                <mxCell id="wVRQzFiYwG7MuHBI81gx-12" style="edgeStyle=none;html=1;exitX=0;exitY=0.5;exitDx=0;exitDy=0;entryX=1;entryY=0.5;entryDx=0;entryDy=0;entryPerimeter=0;" parent="1" source="iBtySErlTTQMFbDr3Z2z-17" target="GvVqPZRoaV-oQDAs33Vj-12" edge="1">
                    <mxGeometry relative="1" as="geometry">
                        <Array as="points">
                            <mxPoint x="560" y="613"/>
                            <mxPoint x="560" y="560"/>
                        </Array>
                    </mxGeometry>
                </mxCell>
                <mxCell id="iBtySErlTTQMFbDr3Z2z-17" value="Register and Password Hashing" style="rounded=0;whiteSpace=wrap;html=1;fontFamily=Helvetica;fontColor=#000000;" parent="1" vertex="1">
                    <mxGeometry x="589" y="578" width="114" height="70" as="geometry"/>
                </mxCell>
                <mxCell id="iBtySErlTTQMFbDr3Z2z-19" value="" style="endArrow=classic;html=1;rounded=0;fontFamily=Helvetica;fontColor=#000000;entryX=0.5;entryY=0;entryDx=0;entryDy=0;" parent="1" target="iBtySErlTTQMFbDr3Z2z-20" edge="1">
                    <mxGeometry width="50" height="50" relative="1" as="geometry">
                        <mxPoint x="295.9099999999996" y="387" as="sourcePoint"/>
                        <mxPoint x="296" y="428" as="targetPoint"/>
                    </mxGeometry>
                </mxCell>
                <mxCell id="iBtySErlTTQMFbDr3Z2z-20" value="Input email,&lt;br&gt;password" style="shape=parallelogram;perimeter=parallelogramPerimeter;whiteSpace=wrap;html=1;fixedSize=1;fontFamily=Helvetica;fontColor=#000000;" parent="1" vertex="1">
                    <mxGeometry x="236" y="512" width="120" height="60" as="geometry"/>
                </mxCell>
                <mxCell id="wVRQzFiYwG7MuHBI81gx-14" style="edgeStyle=none;html=1;exitX=0.5;exitY=1;exitDx=0;exitDy=0;exitPerimeter=0;entryX=0.5;entryY=0;entryDx=0;entryDy=0;" parent="1" source="peQMiTS521xHTIxMtUgg-1" target="peQMiTS521xHTIxMtUgg-9" edge="1">
                    <mxGeometry relative="1" as="geometry"/>
                </mxCell>
                <mxCell id="peQMiTS521xHTIxMtUgg-1" value="permissionLvl &amp;gt; 0" style="strokeWidth=2;html=1;shape=mxgraph.flowchart.decision;whiteSpace=wrap;" parent="1" vertex="1">
                    <mxGeometry x="222.75" y="811" width="145.5" height="96" as="geometry"/>
                </mxCell>
                <mxCell id="peQMiTS521xHTIxMtUgg-3" value="" style="endArrow=classic;html=1;rounded=0;exitX=0.5;exitY=1;exitDx=0;exitDy=0;entryX=0.5;entryY=0;entryDx=0;entryDy=0;entryPerimeter=0;" parent="1" source="iBtySErlTTQMFbDr3Z2z-20" target="GvVqPZRoaV-oQDAs33Vj-20" edge="1">
                    <mxGeometry width="50" height="50" relative="1" as="geometry">
                        <mxPoint x="273" y="558" as="sourcePoint"/>
                        <mxPoint x="297" y="632" as="targetPoint"/>
                    </mxGeometry>
                </mxCell>
                <mxCell id="peQMiTS521xHTIxMtUgg-4" value="" style="endArrow=classic;html=1;rounded=0;" parent="1" source="peQMiTS521xHTIxMtUgg-1" edge="1">
                    <mxGeometry width="50" height="50" relative="1" as="geometry">
                        <mxPoint x="355.5" y="910" as="sourcePoint"/>
                        <mxPoint x="426.21067811865476" y="860" as="targetPoint"/>
                    </mxGeometry>
                </mxCell>
                <mxCell id="peQMiTS521xHTIxMtUgg-5" value="User &lt;br&gt;Dashboard Page" style="shape=process;whiteSpace=wrap;html=1;backgroundOutline=1;" parent="1" vertex="1">
                    <mxGeometry x="426" y="829" width="120" height="60" as="geometry"/>
                </mxCell>
                <mxCell id="peQMiTS521xHTIxMtUgg-6" value="" style="endArrow=classic;html=1;rounded=0;exitX=1;exitY=0.5;exitDx=0;exitDy=0;entryX=0;entryY=0.25;entryDx=0;entryDy=0;" parent="1" target="peQMiTS521xHTIxMtUgg-10" edge="1">
                    <mxGeometry width="50" height="50" relative="1" as="geometry">
                        <mxPoint x="546" y="859.5" as="sourcePoint"/>
                        <mxPoint x="610" y="860.5" as="targetPoint"/>
                    </mxGeometry>
                </mxCell>
                <mxCell id="anMPRp1hxf5mci2vDIW7-12" style="edgeStyle=none;html=1;exitX=1;exitY=0.5;exitDx=0;exitDy=0;entryX=0;entryY=0.25;entryDx=0;entryDy=0;" parent="1" source="peQMiTS521xHTIxMtUgg-9" target="W330FHJ1OMJ28xy_m56K-2" edge="1">
                    <mxGeometry relative="1" as="geometry"/>
                </mxCell>
                <mxCell id="peQMiTS521xHTIxMtUgg-9" value="Admin Dashboard Page" style="shape=process;whiteSpace=wrap;html=1;backgroundOutline=1;" parent="1" vertex="1">
                    <mxGeometry x="235.5" y="1020" width="120" height="60" as="geometry"/>
                </mxCell>
                <object label="U" placeholders="1" id="peQMiTS521xHTIxMtUgg-10">
                    <mxCell style="verticalLabelPosition=middle;verticalAlign=middle;html=1;shape=offPageConnector;rounded=0;size=0.5;gradientColor=none;fillColor=default;labelPosition=center;align=center;" parent="1" vertex="1">
                        <mxGeometry x="614" y="848" width="50" height="50" as="geometry"/>
                    </mxCell>
                </object>
                <mxCell id="W330FHJ1OMJ28xy_m56K-2" value="A" style="verticalLabelPosition=middle;verticalAlign=middle;html=1;shape=offPageConnector;rounded=0;size=0.5;fillColor=default;gradientColor=none;labelPosition=center;align=center;" parent="1" vertex="1">
                    <mxGeometry x="440" y="1037" width="50" height="50" as="geometry"/>
                </mxCell>
                <mxCell id="hVSDIWZbo1fkvC-3VpEG-1" value="No" style="text;html=1;align=center;verticalAlign=middle;resizable=0;points=[];autosize=1;strokeColor=none;fillColor=none;" parent="1" vertex="1">
                    <mxGeometry x="340" y="323" width="40" height="30" as="geometry"/>
                </mxCell>
                <mxCell id="hVSDIWZbo1fkvC-3VpEG-2" value="Yes" style="text;html=1;align=center;verticalAlign=middle;resizable=0;points=[];autosize=1;strokeColor=none;fillColor=none;" parent="1" vertex="1">
                    <mxGeometry x="298" y="383" width="40" height="30" as="geometry"/>
                </mxCell>
                <mxCell id="hVSDIWZbo1fkvC-3VpEG-3" value="false" style="text;html=1;align=center;verticalAlign=middle;resizable=0;points=[];autosize=1;strokeColor=none;fillColor=none;" parent="1" vertex="1">
                    <mxGeometry x="367" y="840" width="40" height="20" as="geometry"/>
                </mxCell>
                <mxCell id="hVSDIWZbo1fkvC-3VpEG-4" value="true" style="text;html=1;align=center;verticalAlign=middle;resizable=0;points=[];autosize=1;strokeColor=none;fillColor=none;" parent="1" vertex="1">
                    <mxGeometry x="295.5" y="930" width="40" height="20" as="geometry"/>
                </mxCell>
                <mxCell id="FQ2Pf2vekcnxrRW5ba-h-1" value="B" style="verticalLabelPosition=middle;verticalAlign=middle;html=1;shape=offPageConnector;rounded=0;size=0.5;labelPosition=center;align=center;" parent="1" vertex="1">
                    <mxGeometry x="161" y="67" width="40" height="40" as="geometry"/>
                </mxCell>
                <mxCell id="FQ2Pf2vekcnxrRW5ba-h-2" value="" style="endArrow=classic;html=1;rounded=0;exitX=1;exitY=0.25;exitDx=0;exitDy=0;" parent="1" source="FQ2Pf2vekcnxrRW5ba-h-1" edge="1">
                    <mxGeometry width="50" height="50" relative="1" as="geometry">
                        <mxPoint x="210" y="118" as="sourcePoint"/>
                        <mxPoint x="290" y="78" as="targetPoint"/>
                    </mxGeometry>
                </mxCell>
                <mxCell id="3" value="yes" style="text;html=1;align=center;verticalAlign=middle;resizable=0;points=[];autosize=1;strokeColor=none;fillColor=none;" parent="1" vertex="1">
                    <mxGeometry x="655" y="408" width="30" height="20" as="geometry"/>
                </mxCell>
                <mxCell id="4" value="no" style="text;html=1;align=center;verticalAlign=middle;resizable=0;points=[];autosize=1;strokeColor=none;fillColor=none;" parent="1" vertex="1">
                    <mxGeometry x="735" y="328" width="30" height="20" as="geometry"/>
                </mxCell>
                <mxCell id="8" value="password == confirm password" style="strokeWidth=2;html=1;shape=mxgraph.flowchart.decision;whiteSpace=wrap;fontFamily=Helvetica;fontColor=#000000;" parent="1" vertex="1">
                    <mxGeometry x="570" y="438" width="151" height="100" as="geometry"/>
                </mxCell>
                <mxCell id="10" value="" style="edgeStyle=none;html=1;entryX=0.5;entryY=0;entryDx=0;entryDy=0;entryPerimeter=0;exitX=0.5;exitY=1;exitDx=0;exitDy=0;exitPerimeter=0;" parent="1" source="iBtySErlTTQMFbDr3Z2z-7" target="8" edge="1">
                    <mxGeometry relative="1" as="geometry">
                        <mxPoint x="720" y="383" as="sourcePoint"/>
                        <mxPoint x="720.5" y="441" as="targetPoint"/>
                    </mxGeometry>
                </mxCell>
                <mxCell id="11" value="" style="edgeStyle=none;html=1;exitX=1;exitY=0.5;exitDx=0;exitDy=0;exitPerimeter=0;" parent="1" source="8" edge="1">
                    <mxGeometry relative="1" as="geometry">
                        <mxPoint x="789" y="459" as="sourcePoint"/>
                        <mxPoint x="790" y="348" as="targetPoint"/>
                        <Array as="points">
                            <mxPoint x="790" y="488"/>
                        </Array>
                    </mxGeometry>
                </mxCell>
                <mxCell id="12" value="false" style="text;html=1;align=center;verticalAlign=middle;resizable=0;points=[];autosize=1;strokeColor=none;fillColor=none;" parent="1" vertex="1">
                    <mxGeometry x="730" y="468" width="40" height="20" as="geometry"/>
                </mxCell>
                <mxCell id="wVRQzFiYwG7MuHBI81gx-17" style="edgeStyle=none;html=1;exitX=0;exitY=0;exitDx=0;exitDy=32.5;exitPerimeter=0;entryX=1;entryY=0.5;entryDx=0;entryDy=0;" parent="1" source="GvVqPZRoaV-oQDAs33Vj-12" target="iBtySErlTTQMFbDr3Z2z-20" edge="1">
                    <mxGeometry relative="1" as="geometry"/>
                </mxCell>
                <mxCell id="GvVqPZRoaV-oQDAs33Vj-12" value="save to&lt;br&gt;database" style="shape=cylinder3;whiteSpace=wrap;html=1;boundedLbl=1;backgroundOutline=1;size=15;" parent="1" vertex="1">
                    <mxGeometry x="425" y="511" width="76" height="100" as="geometry"/>
                </mxCell>
                <mxCell id="GvVqPZRoaV-oQDAs33Vj-17" value="" style="endArrow=classic;html=1;rounded=0;fontFamily=Helvetica;fontColor=#000000;entryX=0.5;entryY=0;entryDx=0;entryDy=0;exitX=0.5;exitY=1;exitDx=0;exitDy=0;exitPerimeter=0;" parent="1" source="8" edge="1">
                    <mxGeometry width="50" height="50" relative="1" as="geometry">
                        <mxPoint x="790.85" y="578" as="sourcePoint"/>
                        <mxPoint x="646" y="578" as="targetPoint"/>
                    </mxGeometry>
                </mxCell>
                <mxCell id="GvVqPZRoaV-oQDAs33Vj-19" value="true" style="text;html=1;align=center;verticalAlign=middle;resizable=0;points=[];autosize=1;strokeColor=none;fillColor=none;" parent="1" vertex="1">
                    <mxGeometry x="645" y="548" width="40" height="20" as="geometry"/>
                </mxCell>
                <mxCell id="GvVqPZRoaV-oQDAs33Vj-22" style="edgeStyle=none;html=1;exitX=0;exitY=0.5;exitDx=0;exitDy=0;exitPerimeter=0;entryX=0;entryY=0.5;entryDx=0;entryDy=0;" parent="1" source="GvVqPZRoaV-oQDAs33Vj-20" target="iBtySErlTTQMFbDr3Z2z-20" edge="1">
                    <mxGeometry relative="1" as="geometry">
                        <Array as="points">
                            <mxPoint x="90" y="689"/>
                            <mxPoint x="90" y="540"/>
                        </Array>
                    </mxGeometry>
                </mxCell>
                <mxCell id="GvVqPZRoaV-oQDAs33Vj-23" style="edgeStyle=none;html=1;exitX=0.5;exitY=1;exitDx=0;exitDy=0;exitPerimeter=0;entryX=0.5;entryY=0;entryDx=0;entryDy=0;entryPerimeter=0;" parent="1" source="GvVqPZRoaV-oQDAs33Vj-20" target="peQMiTS521xHTIxMtUgg-1" edge="1">
                    <mxGeometry relative="1" as="geometry"/>
                </mxCell>
                <mxCell id="GvVqPZRoaV-oQDAs33Vj-20" value="email == email &amp;amp;&amp;amp;&lt;br&gt;password == password" style="strokeWidth=2;html=1;shape=mxgraph.flowchart.decision;whiteSpace=wrap;" parent="1" vertex="1">
                    <mxGeometry x="187" y="628" width="220" height="122" as="geometry"/>
                </mxCell>
                <mxCell id="GvVqPZRoaV-oQDAs33Vj-24" value="true" style="text;html=1;align=center;verticalAlign=middle;resizable=0;points=[];autosize=1;strokeColor=none;fillColor=none;" parent="1" vertex="1">
                    <mxGeometry x="298" y="770" width="40" height="20" as="geometry"/>
                </mxCell>
                <mxCell id="GvVqPZRoaV-oQDAs33Vj-25" value="false" style="text;html=1;align=center;verticalAlign=middle;resizable=0;points=[];autosize=1;strokeColor=none;fillColor=none;" parent="1" vertex="1">
                    <mxGeometry x="121" y="670" width="40" height="20" as="geometry"/>
                </mxCell>
            </root>
        </mxGraphModel>
    </diagram>
    <diagram id="PATOt2NpalWjL8sxbQlI" name="(A) Admin Dashboard Page">
        <mxGraphModel grid="1" gridSize="10" guides="1" tooltips="1" connect="1" arrows="1" page="1" fold="1" pageScale="1" pageWidth="850" pageHeight="1100" math="0" shadow="0">
            <root>
                <mxCell id="0"/>
                <mxCell id="1" parent="0"/>
                <mxCell id="jpLYMqorTwj3Xo9QXSz4-1" value="A" style="verticalLabelPosition=middle;verticalAlign=middle;html=1;shape=offPageConnector;rounded=0;size=0.5;fillColor=default;gradientColor=none;labelPosition=center;align=center;" parent="1" vertex="1">
                    <mxGeometry x="85" y="10" width="60" height="60" as="geometry"/>
                </mxCell>
                <mxCell id="jpLYMqorTwj3Xo9QXSz4-2" value="" style="endArrow=classic;html=1;rounded=0;exitX=0.5;exitY=1;exitDx=0;exitDy=0;" parent="1" source="jpLYMqorTwj3Xo9QXSz4-1" edge="1">
                    <mxGeometry width="50" height="50" relative="1" as="geometry">
                        <mxPoint x="95" y="110" as="sourcePoint"/>
                        <mxPoint x="115" y="110" as="targetPoint"/>
                    </mxGeometry>
                </mxCell>
                <mxCell id="jpLYMqorTwj3Xo9QXSz4-3" value="Pending&lt;br&gt;Request?" style="strokeWidth=2;html=1;shape=mxgraph.flowchart.decision;whiteSpace=wrap;fillColor=default;gradientColor=none;" parent="1" vertex="1">
                    <mxGeometry x="65" y="350" width="100" height="100" as="geometry"/>
                </mxCell>
                <mxCell id="jpLYMqorTwj3Xo9QXSz4-4" value="Past Records?" style="strokeWidth=2;html=1;shape=mxgraph.flowchart.decision;whiteSpace=wrap;fillColor=default;gradientColor=none;" parent="1" vertex="1">
                    <mxGeometry x="65" y="490" width="100" height="100" as="geometry"/>
                </mxCell>
                <mxCell id="jpLYMqorTwj3Xo9QXSz4-5" value="Employees?" style="strokeWidth=2;html=1;shape=mxgraph.flowchart.decision;whiteSpace=wrap;fillColor=default;gradientColor=none;" parent="1" vertex="1">
                    <mxGeometry x="65" y="636" width="100" height="100" as="geometry"/>
                </mxCell>
                <mxCell id="dMYHdSrpRIsKpAmckTXs-6" style="edgeStyle=orthogonalEdgeStyle;rounded=0;orthogonalLoop=1;jettySize=auto;html=1;exitX=1;exitY=0.5;exitDx=0;exitDy=0;exitPerimeter=0;entryX=0;entryY=0.5;entryDx=0;entryDy=0;" parent="1" source="jpLYMqorTwj3Xo9QXSz4-6" target="dMYHdSrpRIsKpAmckTXs-10" edge="1">
                    <mxGeometry relative="1" as="geometry">
                        <mxPoint x="245" y="850" as="targetPoint"/>
                    </mxGeometry>
                </mxCell>
                <mxCell id="jpLYMqorTwj3Xo9QXSz4-6" value="Account Settings?" style="strokeWidth=2;html=1;shape=mxgraph.flowchart.decision;whiteSpace=wrap;fillColor=default;gradientColor=none;" parent="1" vertex="1">
                    <mxGeometry x="57.5" y="790" width="115" height="100" as="geometry"/>
                </mxCell>
                <mxCell id="KcViXn8pI62xRuZ0YtoB-1" value="" style="endArrow=classic;html=1;rounded=0;entryX=0.5;entryY=0;entryDx=0;entryDy=0;entryPerimeter=0;exitX=0.5;exitY=1;exitDx=0;exitDy=0;exitPerimeter=0;" parent="1" source="jpLYMqorTwj3Xo9QXSz4-4" target="jpLYMqorTwj3Xo9QXSz4-5" edge="1">
                    <mxGeometry width="50" height="50" relative="1" as="geometry">
                        <mxPoint x="115" y="600" as="sourcePoint"/>
                        <mxPoint x="165" y="550" as="targetPoint"/>
                    </mxGeometry>
                </mxCell>
                <mxCell id="KcViXn8pI62xRuZ0YtoB-2" value="" style="endArrow=classic;html=1;rounded=0;" parent="1" target="jpLYMqorTwj3Xo9QXSz4-4" edge="1">
                    <mxGeometry width="50" height="50" relative="1" as="geometry">
                        <mxPoint x="115" y="450" as="sourcePoint"/>
                        <mxPoint x="115" y="490" as="targetPoint"/>
                    </mxGeometry>
                </mxCell>
                <mxCell id="dMYHdSrpRIsKpAmckTXs-1" value="B" style="verticalLabelPosition=middle;verticalAlign=middle;html=1;shape=offPageConnector;rounded=0;size=0.5;labelPosition=center;align=center;" parent="1" vertex="1">
                    <mxGeometry x="247" y="940" width="40" height="40" as="geometry"/>
                </mxCell>
                <mxCell id="dMYHdSrpRIsKpAmckTXs-3" value="" style="endArrow=classic;html=1;rounded=0;entryX=0;entryY=0.5;entryDx=0;entryDy=0;exitX=1;exitY=0.5;exitDx=0;exitDy=0;" parent="1" target="dMYHdSrpRIsKpAmckTXs-1" edge="1">
                    <mxGeometry width="50" height="50" relative="1" as="geometry">
                        <mxPoint x="175" y="960" as="sourcePoint"/>
                        <mxPoint x="235" y="930" as="targetPoint"/>
                    </mxGeometry>
                </mxCell>
                <mxCell id="dMYHdSrpRIsKpAmckTXs-4" value="" style="endArrow=classic;html=1;rounded=0;exitX=0.5;exitY=1;exitDx=0;exitDy=0;exitPerimeter=0;" parent="1" source="jpLYMqorTwj3Xo9QXSz4-6" edge="1">
                    <mxGeometry width="50" height="50" relative="1" as="geometry">
                        <mxPoint x="115" y="900" as="sourcePoint"/>
                        <mxPoint x="115" y="930" as="targetPoint"/>
                    </mxGeometry>
                </mxCell>
                <mxCell id="dMYHdSrpRIsKpAmckTXs-9" value="Log out" style="rounded=0;whiteSpace=wrap;html=1;" parent="1" vertex="1">
                    <mxGeometry x="55" y="930" width="120" height="60" as="geometry"/>
                </mxCell>
                <mxCell id="dMYHdSrpRIsKpAmckTXs-12" style="edgeStyle=orthogonalEdgeStyle;rounded=0;orthogonalLoop=1;jettySize=auto;html=1;exitX=1;exitY=0.5;exitDx=0;exitDy=0;entryX=0;entryY=0.25;entryDx=0;entryDy=0;" parent="1" source="dMYHdSrpRIsKpAmckTXs-10" target="dMYHdSrpRIsKpAmckTXs-13" edge="1">
                    <mxGeometry relative="1" as="geometry">
                        <mxPoint x="395" y="850" as="targetPoint"/>
                    </mxGeometry>
                </mxCell>
                <mxCell id="dMYHdSrpRIsKpAmckTXs-10" value="Account Settings Page" style="verticalLabelPosition=middle;verticalAlign=middle;html=1;shape=process;whiteSpace=wrap;rounded=1;size=0.14;arcSize=6;labelPosition=center;align=center;" parent="1" vertex="1">
                    <mxGeometry x="247" y="810" width="100" height="60" as="geometry"/>
                </mxCell>
                <mxCell id="dMYHdSrpRIsKpAmckTXs-13" value="A-4" style="verticalLabelPosition=middle;verticalAlign=middle;html=1;shape=offPageConnector;rounded=0;size=0.5;labelPosition=center;align=center;" parent="1" vertex="1">
                    <mxGeometry x="405" y="830" width="40" height="40" as="geometry"/>
                </mxCell>
                <mxCell id="dMYHdSrpRIsKpAmckTXs-14" style="edgeStyle=orthogonalEdgeStyle;rounded=0;orthogonalLoop=1;jettySize=auto;html=1;exitX=1;exitY=0.5;exitDx=0;exitDy=0;exitPerimeter=0;" parent="1" edge="1">
                    <mxGeometry relative="1" as="geometry">
                        <mxPoint x="165" y="686" as="sourcePoint"/>
                        <mxPoint x="245" y="686" as="targetPoint"/>
                    </mxGeometry>
                </mxCell>
                <mxCell id="dMYHdSrpRIsKpAmckTXs-15" value="Employee&lt;br&gt;Page" style="verticalLabelPosition=middle;verticalAlign=middle;html=1;shape=process;whiteSpace=wrap;rounded=1;size=0.14;arcSize=6;labelPosition=center;align=center;" parent="1" vertex="1">
                    <mxGeometry x="245" y="657" width="100" height="60" as="geometry"/>
                </mxCell>
                <mxCell id="dMYHdSrpRIsKpAmckTXs-16" style="edgeStyle=orthogonalEdgeStyle;rounded=0;orthogonalLoop=1;jettySize=auto;html=1;exitX=1;exitY=0.5;exitDx=0;exitDy=0;" parent="1" edge="1">
                    <mxGeometry relative="1" as="geometry">
                        <mxPoint x="343" y="686" as="sourcePoint"/>
                        <mxPoint x="393" y="686" as="targetPoint"/>
                        <Array as="points">
                            <mxPoint x="374" y="686"/>
                            <mxPoint x="374" y="686"/>
                        </Array>
                    </mxGeometry>
                </mxCell>
                <mxCell id="dMYHdSrpRIsKpAmckTXs-17" value="A-3" style="verticalLabelPosition=middle;verticalAlign=middle;html=1;shape=offPageConnector;rounded=0;size=0.5;labelPosition=center;align=center;" parent="1" vertex="1">
                    <mxGeometry x="392" y="672" width="40" height="40" as="geometry"/>
                </mxCell>
                <mxCell id="IVhjDoEbGitOr0xGiq_j-1" style="edgeStyle=orthogonalEdgeStyle;rounded=0;orthogonalLoop=1;jettySize=auto;html=1;exitX=1;exitY=0.5;exitDx=0;exitDy=0;exitPerimeter=0;" parent="1" edge="1">
                    <mxGeometry relative="1" as="geometry">
                        <mxPoint x="163" y="540" as="sourcePoint"/>
                        <mxPoint x="243" y="540" as="targetPoint"/>
                    </mxGeometry>
                </mxCell>
                <mxCell id="IVhjDoEbGitOr0xGiq_j-2" value="" style="endArrow=classic;html=1;rounded=0;exitX=1;exitY=0.5;exitDx=0;exitDy=0;exitPerimeter=0;" parent="1" source="jpLYMqorTwj3Xo9QXSz4-3" edge="1">
                    <mxGeometry width="50" height="50" relative="1" as="geometry">
                        <mxPoint x="175" y="430" as="sourcePoint"/>
                        <mxPoint x="245" y="400" as="targetPoint"/>
                    </mxGeometry>
                </mxCell>
                <mxCell id="IVhjDoEbGitOr0xGiq_j-12" style="edgeStyle=orthogonalEdgeStyle;rounded=0;orthogonalLoop=1;jettySize=auto;html=1;exitX=1;exitY=0.5;exitDx=0;exitDy=0;entryX=0;entryY=0.5;entryDx=0;entryDy=0;" parent="1" source="IVhjDoEbGitOr0xGiq_j-3" target="IVhjDoEbGitOr0xGiq_j-11" edge="1">
                    <mxGeometry relative="1" as="geometry"/>
                </mxCell>
                <mxCell id="IVhjDoEbGitOr0xGiq_j-3" value="Pending Request&lt;br&gt;Page" style="verticalLabelPosition=middle;verticalAlign=middle;html=1;shape=process;whiteSpace=wrap;rounded=1;size=0.14;arcSize=6;labelPosition=center;align=center;" parent="1" vertex="1">
                    <mxGeometry x="247" y="370" width="100" height="60" as="geometry"/>
                </mxCell>
                <mxCell id="IVhjDoEbGitOr0xGiq_j-7" style="edgeStyle=orthogonalEdgeStyle;rounded=0;orthogonalLoop=1;jettySize=auto;html=1;exitX=1;exitY=0.5;exitDx=0;exitDy=0;entryX=0;entryY=0.5;entryDx=0;entryDy=0;" parent="1" target="oHv-e_S0JWtIkmuoZP9c-7" edge="1">
                    <mxGeometry relative="1" as="geometry">
                        <mxPoint x="398" y="539.5" as="targetPoint"/>
                        <mxPoint x="341.2000000000003" y="540" as="sourcePoint"/>
                    </mxGeometry>
                </mxCell>
                <mxCell id="IVhjDoEbGitOr0xGiq_j-11" value="A-1" style="verticalLabelPosition=middle;verticalAlign=middle;html=1;shape=offPageConnector;rounded=0;size=0.5;labelPosition=center;align=center;" parent="1" vertex="1">
                    <mxGeometry x="391" y="380" width="40" height="40" as="geometry"/>
                </mxCell>
                <mxCell id="Aeo01UrhDbObiTjcWNry-3" style="edgeStyle=none;html=1;exitX=0.5;exitY=1;exitDx=0;exitDy=0;entryX=0.5;entryY=0;entryDx=0;entryDy=0;entryPerimeter=0;" parent="1" source="Aeo01UrhDbObiTjcWNry-1" target="Aeo01UrhDbObiTjcWNry-2" edge="1">
                    <mxGeometry relative="1" as="geometry"/>
                </mxCell>
                <mxCell id="Aeo01UrhDbObiTjcWNry-1" value="Display Admin&lt;br&gt;Dashboard Page" style="shape=parallelogram;html=1;strokeWidth=2;perimeter=parallelogramPerimeter;whiteSpace=wrap;rounded=1;arcSize=12;size=0.23;" parent="1" vertex="1">
                    <mxGeometry x="40" y="110" width="150" height="60" as="geometry"/>
                </mxCell>
                <mxCell id="Aeo01UrhDbObiTjcWNry-4" style="edgeStyle=none;html=1;exitX=0.5;exitY=1;exitDx=0;exitDy=0;exitPerimeter=0;entryX=0.5;entryY=0;entryDx=0;entryDy=0;entryPerimeter=0;" parent="1" source="Aeo01UrhDbObiTjcWNry-2" target="jpLYMqorTwj3Xo9QXSz4-3" edge="1">
                    <mxGeometry relative="1" as="geometry"/>
                </mxCell>
                <mxCell id="oHv-e_S0JWtIkmuoZP9c-6" style="edgeStyle=none;html=1;exitX=1;exitY=0.5;exitDx=0;exitDy=0;exitPerimeter=0;entryX=0;entryY=0.5;entryDx=0;entryDy=0;" parent="1" source="Aeo01UrhDbObiTjcWNry-2" target="oHv-e_S0JWtIkmuoZP9c-5" edge="1">
                    <mxGeometry relative="1" as="geometry"/>
                </mxCell>
                <mxCell id="Aeo01UrhDbObiTjcWNry-2" value="Complete Request" style="strokeWidth=2;html=1;shape=mxgraph.flowchart.decision;whiteSpace=wrap;fillColor=default;gradientColor=none;" parent="1" vertex="1">
                    <mxGeometry x="65" y="210" width="100" height="100" as="geometry"/>
                </mxCell>
                <mxCell id="oHv-e_S0JWtIkmuoZP9c-1" style="edgeStyle=orthogonalEdgeStyle;rounded=0;orthogonalLoop=1;jettySize=auto;html=1;exitX=1;exitY=0.5;exitDx=0;exitDy=0;exitPerimeter=0;entryX=1;entryY=0.5;entryDx=0;entryDy=0;" parent="1" source="oHv-e_S0JWtIkmuoZP9c-2" target="Aeo01UrhDbObiTjcWNry-1" edge="1">
                    <mxGeometry relative="1" as="geometry">
                        <mxPoint x="115" y="70" as="targetPoint"/>
                        <Array as="points">
                            <mxPoint x="485" y="260"/>
                            <mxPoint x="485" y="140"/>
                        </Array>
                    </mxGeometry>
                </mxCell>
                <mxCell id="oHv-e_S0JWtIkmuoZP9c-2" value="update&lt;br&gt;database" style="strokeWidth=2;html=1;shape=mxgraph.flowchart.database;whiteSpace=wrap;" parent="1" vertex="1">
                    <mxGeometry x="375" y="215" width="60" height="90" as="geometry"/>
                </mxCell>
                <mxCell id="oHv-e_S0JWtIkmuoZP9c-4" style="edgeStyle=none;html=1;exitX=1;exitY=0.5;exitDx=0;exitDy=0;entryX=0;entryY=0.5;entryDx=0;entryDy=0;entryPerimeter=0;" parent="1" source="oHv-e_S0JWtIkmuoZP9c-5" target="oHv-e_S0JWtIkmuoZP9c-2" edge="1">
                    <mxGeometry relative="1" as="geometry"/>
                </mxCell>
                <mxCell id="oHv-e_S0JWtIkmuoZP9c-5" value="change record state to &quot;completed&quot;" style="rounded=0;whiteSpace=wrap;html=1;" parent="1" vertex="1">
                    <mxGeometry x="207" y="230" width="120" height="60" as="geometry"/>
                </mxCell>
                <mxCell id="oHv-e_S0JWtIkmuoZP9c-7" value="A-2" style="verticalLabelPosition=middle;verticalAlign=middle;html=1;shape=offPageConnector;rounded=0;size=0.5;labelPosition=center;align=center;" parent="1" vertex="1">
                    <mxGeometry x="405" y="520" width="40" height="40" as="geometry"/>
                </mxCell>
                <mxCell id="jxwiAJl7GOq6iGIzq5Np-1" value="Display Past Records&lt;br&gt;Page" style="verticalLabelPosition=middle;verticalAlign=middle;html=1;shape=process;whiteSpace=wrap;rounded=1;size=0.14;arcSize=6;labelPosition=center;align=center;" parent="1" vertex="1">
                    <mxGeometry x="245" y="510" width="100" height="60" as="geometry"/>
                </mxCell>
                <mxCell id="ZRNTYaTZhKnU1C8N607p-1" value="Yes" style="text;html=1;align=center;verticalAlign=middle;resizable=0;points=[];autosize=1;strokeColor=none;fillColor=none;" parent="1" vertex="1">
                    <mxGeometry x="165" y="230" width="40" height="30" as="geometry"/>
                </mxCell>
                <mxCell id="ZRNTYaTZhKnU1C8N607p-2" value="Yes" style="text;html=1;align=center;verticalAlign=middle;resizable=0;points=[];autosize=1;strokeColor=none;fillColor=none;" parent="1" vertex="1">
                    <mxGeometry x="175" y="370" width="40" height="30" as="geometry"/>
                </mxCell>
                <mxCell id="ZRNTYaTZhKnU1C8N607p-4" value="Yes" style="text;html=1;align=center;verticalAlign=middle;resizable=0;points=[];autosize=1;strokeColor=none;fillColor=none;" parent="1" vertex="1">
                    <mxGeometry x="175" y="510" width="40" height="30" as="geometry"/>
                </mxCell>
                <mxCell id="ZRNTYaTZhKnU1C8N607p-5" value="Yes" style="text;html=1;align=center;verticalAlign=middle;resizable=0;points=[];autosize=1;strokeColor=none;fillColor=none;" parent="1" vertex="1">
                    <mxGeometry x="175" y="657" width="40" height="30" as="geometry"/>
                </mxCell>
                <mxCell id="ZRNTYaTZhKnU1C8N607p-6" value="Yes" style="text;html=1;align=center;verticalAlign=middle;resizable=0;points=[];autosize=1;strokeColor=none;fillColor=none;" parent="1" vertex="1">
                    <mxGeometry x="175" y="820" width="40" height="30" as="geometry"/>
                </mxCell>
                <mxCell id="ZRNTYaTZhKnU1C8N607p-7" value="No" style="text;html=1;align=center;verticalAlign=middle;resizable=0;points=[];autosize=1;strokeColor=none;fillColor=none;" parent="1" vertex="1">
                    <mxGeometry x="115" y="900" width="30" height="20" as="geometry"/>
                </mxCell>
                <mxCell id="ZRNTYaTZhKnU1C8N607p-9" value="No" style="text;html=1;align=center;verticalAlign=middle;resizable=0;points=[];autosize=1;strokeColor=none;fillColor=none;" parent="1" vertex="1">
                    <mxGeometry x="115" y="600" width="30" height="20" as="geometry"/>
                </mxCell>
                <mxCell id="ZRNTYaTZhKnU1C8N607p-10" value="No" style="text;html=1;align=center;verticalAlign=middle;resizable=0;points=[];autosize=1;strokeColor=none;fillColor=none;" parent="1" vertex="1">
                    <mxGeometry x="115" y="460" width="30" height="20" as="geometry"/>
                </mxCell>
                <mxCell id="ZRNTYaTZhKnU1C8N607p-11" value="No" style="text;html=1;align=center;verticalAlign=middle;resizable=0;points=[];autosize=1;strokeColor=none;fillColor=none;" parent="1" vertex="1">
                    <mxGeometry x="115" y="320" width="30" height="20" as="geometry"/>
                </mxCell>
                <mxCell id="DWxtRiNCMBu9xCNbY90Z-8" style="edgeStyle=none;html=1;exitX=0.5;exitY=1;exitDx=0;exitDy=0;exitPerimeter=0;entryX=0.5;entryY=0;entryDx=0;entryDy=0;entryPerimeter=0;" parent="1" source="jpLYMqorTwj3Xo9QXSz4-5" target="jpLYMqorTwj3Xo9QXSz4-6" edge="1">
                    <mxGeometry relative="1" as="geometry">
                        <mxPoint x="115" y="760" as="sourcePoint"/>
                    </mxGeometry>
                </mxCell>
                <mxCell id="DWxtRiNCMBu9xCNbY90Z-7" value="No" style="text;html=1;align=center;verticalAlign=middle;resizable=0;points=[];autosize=1;strokeColor=none;fillColor=none;" parent="1" vertex="1">
                    <mxGeometry x="115" y="760" width="30" height="20" as="geometry"/>
                </mxCell>
            </root>
        </mxGraphModel>
    </diagram>
    <diagram id="nuF64LQl8dLwLQU1C0Lr" name="(A-1) Pending Request Page">
        <mxGraphModel dx="1118" dy="817" grid="1" gridSize="10" guides="1" tooltips="1" connect="1" arrows="1" fold="1" page="1" pageScale="1" pageWidth="850" pageHeight="1100" math="0" shadow="0">
            <root>
                <mxCell id="0"/>
                <mxCell id="1" parent="0"/>
                <mxCell id="pT2kp30l-PIV49xx3qqD-7" style="edgeStyle=orthogonalEdgeStyle;rounded=0;orthogonalLoop=1;jettySize=auto;html=1;exitX=0.5;exitY=1;exitDx=0;exitDy=0;entryX=0.5;entryY=0;entryDx=0;entryDy=0;" parent="1" source="Qg0Qeuda3BK_zyeumED9-1" target="pT2kp30l-PIV49xx3qqD-4" edge="1">
                    <mxGeometry relative="1" as="geometry"/>
                </mxCell>
                <mxCell id="Qg0Qeuda3BK_zyeumED9-1" value="A-1" style="verticalLabelPosition=middle;verticalAlign=middle;html=1;shape=offPageConnector;rounded=0;size=0.5;labelPosition=center;align=center;" parent="1" vertex="1">
                    <mxGeometry x="236" y="116" width="49" height="40" as="geometry"/>
                </mxCell>
                <mxCell id="Qg0Qeuda3BK_zyeumED9-6" style="edgeStyle=orthogonalEdgeStyle;rounded=0;orthogonalLoop=1;jettySize=auto;html=1;exitX=0.5;exitY=1;exitDx=0;exitDy=0;" parent="1" source="Qg0Qeuda3BK_zyeumED9-4" target="Qg0Qeuda3BK_zyeumED9-5" edge="1">
                    <mxGeometry relative="1" as="geometry">
                        <mxPoint x="260" y="420" as="sourcePoint"/>
                    </mxGeometry>
                </mxCell>
                <mxCell id="ajfPHd0pEiGB3pnDlfDT-5" style="edgeStyle=orthogonalEdgeStyle;rounded=0;orthogonalLoop=1;jettySize=auto;html=1;exitX=1;exitY=0.5;exitDx=0;exitDy=0;entryX=0;entryY=0.5;entryDx=0;entryDy=0;" parent="1" source="Qg0Qeuda3BK_zyeumED9-4" target="Z84J1Qe731GaNzYtRerz-1" edge="1">
                    <mxGeometry relative="1" as="geometry">
                        <mxPoint x="355" y="363" as="targetPoint"/>
                    </mxGeometry>
                </mxCell>
                <mxCell id="Qg0Qeuda3BK_zyeumED9-4" value="Accept?" style="rhombus;whiteSpace=wrap;html=1;" parent="1" vertex="1">
                    <mxGeometry x="220" y="323" width="80" height="80" as="geometry"/>
                </mxCell>
                <mxCell id="Qg0Qeuda3BK_zyeumED9-8" style="edgeStyle=orthogonalEdgeStyle;rounded=0;orthogonalLoop=1;jettySize=auto;html=1;exitX=0.5;exitY=1;exitDx=0;exitDy=0;entryX=0.5;entryY=0;entryDx=0;entryDy=0;" parent="1" source="Qg0Qeuda3BK_zyeumED9-5" target="YDJ-D9K_9TJKDELxmax2-2" edge="1">
                    <mxGeometry relative="1" as="geometry">
                        <mxPoint x="260" y="620" as="targetPoint"/>
                    </mxGeometry>
                </mxCell>
                <mxCell id="ajfPHd0pEiGB3pnDlfDT-2" style="edgeStyle=orthogonalEdgeStyle;rounded=0;orthogonalLoop=1;jettySize=auto;html=1;exitX=1;exitY=0.5;exitDx=0;exitDy=0;entryX=0;entryY=0.5;entryDx=0;entryDy=0;" parent="1" source="Qg0Qeuda3BK_zyeumED9-5" target="bd3ABRaAmy9EK2yzKVYD-5" edge="1">
                    <mxGeometry relative="1" as="geometry">
                        <mxPoint x="310" y="502" as="sourcePoint"/>
                        <mxPoint x="335" y="502" as="targetPoint"/>
                    </mxGeometry>
                </mxCell>
                <mxCell id="Qg0Qeuda3BK_zyeumED9-5" value="Decline?" style="rhombus;whiteSpace=wrap;html=1;" parent="1" vertex="1">
                    <mxGeometry x="220" y="462" width="80" height="80" as="geometry"/>
                </mxCell>
                <mxCell id="ajfPHd0pEiGB3pnDlfDT-9" style="edgeStyle=orthogonalEdgeStyle;rounded=0;orthogonalLoop=1;jettySize=auto;html=1;exitX=1;exitY=0.5;exitDx=0;exitDy=0;exitPerimeter=0;entryX=0;entryY=0.5;entryDx=0;entryDy=0;entryPerimeter=0;" parent="1" source="ajfPHd0pEiGB3pnDlfDT-6" target="AzUjs44ZIDWVPu5u3Z-Z-1" edge="1">
                    <mxGeometry relative="1" as="geometry">
                        <mxPoint x="628" y="363" as="targetPoint"/>
                    </mxGeometry>
                </mxCell>
                <mxCell id="ajfPHd0pEiGB3pnDlfDT-6" value="update&lt;br&gt;database" style="strokeWidth=2;html=1;shape=mxgraph.flowchart.database;whiteSpace=wrap;" parent="1" vertex="1">
                    <mxGeometry x="580" y="318" width="60" height="90" as="geometry"/>
                </mxCell>
                <mxCell id="AzUjs44ZIDWVPu5u3Z-Z-1" value="1" style="verticalLabelPosition=middle;verticalAlign=middle;html=1;shape=mxgraph.flowchart.on-page_reference;labelPosition=center;align=center;" parent="1" vertex="1">
                    <mxGeometry x="710" y="343" width="40" height="40" as="geometry"/>
                </mxCell>
                <mxCell id="pT2kp30l-PIV49xx3qqD-10" style="edgeStyle=orthogonalEdgeStyle;rounded=0;orthogonalLoop=1;jettySize=auto;html=1;exitX=1;exitY=0.5;exitDx=0;exitDy=0;exitPerimeter=0;" parent="1" source="AzUjs44ZIDWVPu5u3Z-Z-2" edge="1">
                    <mxGeometry relative="1" as="geometry">
                        <mxPoint x="256" y="175" as="targetPoint"/>
                    </mxGeometry>
                </mxCell>
                <mxCell id="AzUjs44ZIDWVPu5u3Z-Z-2" value="1" style="verticalLabelPosition=middle;verticalAlign=middle;html=1;shape=mxgraph.flowchart.on-page_reference;labelPosition=center;align=center;" parent="1" vertex="1">
                    <mxGeometry x="149" y="155" width="39" height="40" as="geometry"/>
                </mxCell>
                <mxCell id="pT2kp30l-PIV49xx3qqD-8" style="edgeStyle=orthogonalEdgeStyle;rounded=0;orthogonalLoop=1;jettySize=auto;html=1;exitX=0.5;exitY=1;exitDx=0;exitDy=0;entryX=0.5;entryY=0;entryDx=0;entryDy=0;" parent="1" source="pT2kp30l-PIV49xx3qqD-4" target="Qg0Qeuda3BK_zyeumED9-4" edge="1">
                    <mxGeometry relative="1" as="geometry"/>
                </mxCell>
                <mxCell id="pT2kp30l-PIV49xx3qqD-4" value="Display Pending &lt;br&gt;Request Page" style="shape=parallelogram;html=1;strokeWidth=2;perimeter=parallelogramPerimeter;whiteSpace=wrap;rounded=1;arcSize=12;size=0.23;" parent="1" vertex="1">
                    <mxGeometry x="186" y="201" width="149" height="60" as="geometry"/>
                </mxCell>
                <mxCell id="Z84J1Qe731GaNzYtRerz-3" style="edgeStyle=none;html=1;exitX=1;exitY=0.5;exitDx=0;exitDy=0;entryX=0;entryY=0.5;entryDx=0;entryDy=0;entryPerimeter=0;" parent="1" source="Z84J1Qe731GaNzYtRerz-1" target="ajfPHd0pEiGB3pnDlfDT-6" edge="1">
                    <mxGeometry relative="1" as="geometry"/>
                </mxCell>
                <mxCell id="Z84J1Qe731GaNzYtRerz-1" value="change record state to &quot;accepted&quot;" style="rounded=0;whiteSpace=wrap;html=1;" parent="1" vertex="1">
                    <mxGeometry x="380" y="333" width="120" height="60" as="geometry"/>
                </mxCell>
                <mxCell id="bd3ABRaAmy9EK2yzKVYD-1" style="edgeStyle=orthogonalEdgeStyle;rounded=0;orthogonalLoop=1;jettySize=auto;html=1;exitX=1;exitY=0.5;exitDx=0;exitDy=0;exitPerimeter=0;entryX=0;entryY=0.5;entryDx=0;entryDy=0;entryPerimeter=0;" parent="1" source="bd3ABRaAmy9EK2yzKVYD-2" target="bd3ABRaAmy9EK2yzKVYD-3" edge="1">
                    <mxGeometry relative="1" as="geometry">
                        <mxPoint x="608" y="502" as="targetPoint"/>
                    </mxGeometry>
                </mxCell>
                <mxCell id="bd3ABRaAmy9EK2yzKVYD-2" value="update&lt;br&gt;database" style="strokeWidth=2;html=1;shape=mxgraph.flowchart.database;whiteSpace=wrap;" parent="1" vertex="1">
                    <mxGeometry x="580" y="457" width="60" height="90" as="geometry"/>
                </mxCell>
                <mxCell id="bd3ABRaAmy9EK2yzKVYD-3" value="1" style="verticalLabelPosition=middle;verticalAlign=middle;html=1;shape=mxgraph.flowchart.on-page_reference;labelPosition=center;align=center;" parent="1" vertex="1">
                    <mxGeometry x="710" y="482" width="40" height="40" as="geometry"/>
                </mxCell>
                <mxCell id="bd3ABRaAmy9EK2yzKVYD-4" style="edgeStyle=none;html=1;exitX=1;exitY=0.5;exitDx=0;exitDy=0;entryX=0;entryY=0.5;entryDx=0;entryDy=0;entryPerimeter=0;" parent="1" source="bd3ABRaAmy9EK2yzKVYD-5" target="bd3ABRaAmy9EK2yzKVYD-2" edge="1">
                    <mxGeometry relative="1" as="geometry"/>
                </mxCell>
                <mxCell id="bd3ABRaAmy9EK2yzKVYD-5" value="change record state to &quot;declined&quot;" style="rounded=0;whiteSpace=wrap;html=1;" parent="1" vertex="1">
                    <mxGeometry x="380" y="472" width="120" height="60" as="geometry"/>
                </mxCell>
                <mxCell id="YDJ-D9K_9TJKDELxmax2-1" style="edgeStyle=none;html=1;exitX=0.5;exitY=1;exitDx=0;exitDy=0;entryX=0.5;entryY=0;entryDx=0;entryDy=0;" parent="1" source="YDJ-D9K_9TJKDELxmax2-2" target="YDJ-D9K_9TJKDELxmax2-3" edge="1">
                    <mxGeometry relative="1" as="geometry"/>
                </mxCell>
                <mxCell id="YDJ-D9K_9TJKDELxmax2-2" value="Leave" style="rounded=0;whiteSpace=wrap;html=1;" parent="1" vertex="1">
                    <mxGeometry x="200.5" y="610" width="120" height="60" as="geometry"/>
                </mxCell>
                <mxCell id="YDJ-D9K_9TJKDELxmax2-3" value="A" style="verticalLabelPosition=middle;verticalAlign=middle;html=1;shape=offPageConnector;rounded=0;size=0.5;labelPosition=center;align=center;" parent="1" vertex="1">
                    <mxGeometry x="235.5" y="740" width="50" height="40" as="geometry"/>
                </mxCell>
                <mxCell id="U0lJ43vgkPp1W_53BgIY-1" value="No" style="text;html=1;align=center;verticalAlign=middle;resizable=0;points=[];autosize=1;strokeColor=none;fillColor=none;" parent="1" vertex="1">
                    <mxGeometry x="260" y="560" width="30" height="20" as="geometry"/>
                </mxCell>
                <mxCell id="U0lJ43vgkPp1W_53BgIY-2" value="No" style="text;html=1;align=center;verticalAlign=middle;resizable=0;points=[];autosize=1;strokeColor=none;fillColor=none;" parent="1" vertex="1">
                    <mxGeometry x="260" y="420" width="30" height="20" as="geometry"/>
                </mxCell>
                <mxCell id="U0lJ43vgkPp1W_53BgIY-3" value="Yes" style="text;html=1;align=center;verticalAlign=middle;resizable=0;points=[];autosize=1;strokeColor=none;fillColor=none;" parent="1" vertex="1">
                    <mxGeometry x="305" y="482" width="40" height="20" as="geometry"/>
                </mxCell>
                <mxCell id="U0lJ43vgkPp1W_53BgIY-4" value="Yes" style="text;html=1;align=center;verticalAlign=middle;resizable=0;points=[];autosize=1;strokeColor=none;fillColor=none;" parent="1" vertex="1">
                    <mxGeometry x="305" y="343" width="40" height="20" as="geometry"/>
                </mxCell>
            </root>
        </mxGraphModel>
    </diagram>
    <diagram id="gNDYl8ees_Bvs7AsNFsG" name="(A-2) Past Records">
        <mxGraphModel dx="878" dy="648" grid="1" gridSize="10" guides="1" tooltips="1" connect="1" arrows="1" fold="1" page="1" pageScale="1" pageWidth="850" pageHeight="1100" math="0" shadow="0">
            <root>
                <mxCell id="UCHPHLyf59xW7iVv575Z-0"/>
                <mxCell id="UCHPHLyf59xW7iVv575Z-1" parent="UCHPHLyf59xW7iVv575Z-0"/>
                <mxCell id="DZCALNIJ_KO7Pc3wRYy_-0" style="edgeStyle=orthogonalEdgeStyle;rounded=0;orthogonalLoop=1;jettySize=auto;html=1;exitX=0.5;exitY=1;exitDx=0;exitDy=0;entryX=0.5;entryY=0;entryDx=0;entryDy=0;" parent="UCHPHLyf59xW7iVv575Z-1" source="DZCALNIJ_KO7Pc3wRYy_-1" target="DZCALNIJ_KO7Pc3wRYy_-4" edge="1">
                    <mxGeometry relative="1" as="geometry"/>
                </mxCell>
                <mxCell id="DZCALNIJ_KO7Pc3wRYy_-1" value="A-2" style="verticalLabelPosition=middle;verticalAlign=middle;html=1;shape=offPageConnector;rounded=0;size=0.5;labelPosition=center;align=center;" parent="UCHPHLyf59xW7iVv575Z-1" vertex="1">
                    <mxGeometry x="107" y="20" width="49" height="40" as="geometry"/>
                </mxCell>
                <mxCell id="DZCALNIJ_KO7Pc3wRYy_-2" style="edgeStyle=orthogonalEdgeStyle;rounded=0;orthogonalLoop=1;jettySize=auto;html=1;exitX=1;exitY=0.5;exitDx=0;exitDy=0;exitPerimeter=0;" parent="UCHPHLyf59xW7iVv575Z-1" source="DZCALNIJ_KO7Pc3wRYy_-3" edge="1">
                    <mxGeometry relative="1" as="geometry">
                        <mxPoint x="127" y="79" as="targetPoint"/>
                    </mxGeometry>
                </mxCell>
                <mxCell id="DZCALNIJ_KO7Pc3wRYy_-3" value="2" style="verticalLabelPosition=middle;verticalAlign=middle;html=1;shape=mxgraph.flowchart.on-page_reference;labelPosition=center;align=center;" parent="UCHPHLyf59xW7iVv575Z-1" vertex="1">
                    <mxGeometry x="20" y="59" width="39" height="40" as="geometry"/>
                </mxCell>
                <mxCell id="RRSD7TgsQVruw1TCDUvZ-6" style="edgeStyle=none;html=1;exitX=0.5;exitY=1;exitDx=0;exitDy=0;entryX=0.5;entryY=0;entryDx=0;entryDy=0;" parent="UCHPHLyf59xW7iVv575Z-1" source="DZCALNIJ_KO7Pc3wRYy_-4" target="RRSD7TgsQVruw1TCDUvZ-0" edge="1">
                    <mxGeometry relative="1" as="geometry"/>
                </mxCell>
                <mxCell id="DZCALNIJ_KO7Pc3wRYy_-4" value="Display Past&lt;br&gt;Records&amp;nbsp;Page" style="shape=parallelogram;html=1;strokeWidth=2;perimeter=parallelogramPerimeter;whiteSpace=wrap;rounded=1;arcSize=12;size=0.23;" parent="UCHPHLyf59xW7iVv575Z-1" vertex="1">
                    <mxGeometry x="57" y="120" width="149" height="60" as="geometry"/>
                </mxCell>
                <mxCell id="RRSD7TgsQVruw1TCDUvZ-7" style="edgeStyle=none;html=1;exitX=1;exitY=0.5;exitDx=0;exitDy=0;entryX=0;entryY=0.5;entryDx=0;entryDy=0;" parent="UCHPHLyf59xW7iVv575Z-1" source="RRSD7TgsQVruw1TCDUvZ-0" target="RRSD7TgsQVruw1TCDUvZ-1" edge="1">
                    <mxGeometry relative="1" as="geometry"/>
                </mxCell>
                <mxCell id="4BYBRjXDcR4U9ONJC4nE-3" style="edgeStyle=none;html=1;exitX=0.5;exitY=1;exitDx=0;exitDy=0;entryX=0.5;entryY=0;entryDx=0;entryDy=0;" parent="UCHPHLyf59xW7iVv575Z-1" source="RRSD7TgsQVruw1TCDUvZ-0" target="4BYBRjXDcR4U9ONJC4nE-1" edge="1">
                    <mxGeometry relative="1" as="geometry"/>
                </mxCell>
                <mxCell id="RRSD7TgsQVruw1TCDUvZ-0" value="Search?" style="rhombus;whiteSpace=wrap;html=1;" parent="UCHPHLyf59xW7iVv575Z-1" vertex="1">
                    <mxGeometry x="91.5" y="220" width="80" height="80" as="geometry"/>
                </mxCell>
                <mxCell id="RRSD7TgsQVruw1TCDUvZ-8" style="edgeStyle=none;html=1;exitX=0.5;exitY=1;exitDx=0;exitDy=0;entryX=0.5;entryY=0;entryDx=0;entryDy=0;" parent="UCHPHLyf59xW7iVv575Z-1" source="RRSD7TgsQVruw1TCDUvZ-1" target="RRSD7TgsQVruw1TCDUvZ-2" edge="1">
                    <mxGeometry relative="1" as="geometry"/>
                </mxCell>
                <mxCell id="4qDMk-ulKB6U1wZF_YUC-2" style="edgeStyle=none;html=1;exitX=1;exitY=0.5;exitDx=0;exitDy=0;entryX=0;entryY=0.5;entryDx=0;entryDy=0;" parent="UCHPHLyf59xW7iVv575Z-1" source="RRSD7TgsQVruw1TCDUvZ-1" target="4qDMk-ulKB6U1wZF_YUC-0" edge="1">
                    <mxGeometry relative="1" as="geometry"/>
                </mxCell>
                <mxCell id="RRSD7TgsQVruw1TCDUvZ-1" value="by state?" style="rhombus;whiteSpace=wrap;html=1;" parent="UCHPHLyf59xW7iVv575Z-1" vertex="1">
                    <mxGeometry x="230" y="220" width="80" height="80" as="geometry"/>
                </mxCell>
                <mxCell id="RRSD7TgsQVruw1TCDUvZ-9" style="edgeStyle=none;html=1;exitX=0.5;exitY=1;exitDx=0;exitDy=0;entryX=0.5;entryY=0;entryDx=0;entryDy=0;" parent="UCHPHLyf59xW7iVv575Z-1" source="RRSD7TgsQVruw1TCDUvZ-2" target="RRSD7TgsQVruw1TCDUvZ-3" edge="1">
                    <mxGeometry relative="1" as="geometry"/>
                </mxCell>
                <mxCell id="4qDMk-ulKB6U1wZF_YUC-43" value="" style="edgeStyle=none;html=1;" parent="UCHPHLyf59xW7iVv575Z-1" source="RRSD7TgsQVruw1TCDUvZ-2" target="4qDMk-ulKB6U1wZF_YUC-38" edge="1">
                    <mxGeometry relative="1" as="geometry"/>
                </mxCell>
                <mxCell id="RRSD7TgsQVruw1TCDUvZ-2" value="by date?" style="rhombus;whiteSpace=wrap;html=1;" parent="UCHPHLyf59xW7iVv575Z-1" vertex="1">
                    <mxGeometry x="230" y="370" width="80" height="80" as="geometry"/>
                </mxCell>
                <mxCell id="RRSD7TgsQVruw1TCDUvZ-10" style="edgeStyle=none;html=1;exitX=0.5;exitY=1;exitDx=0;exitDy=0;entryX=0.5;entryY=0;entryDx=0;entryDy=0;" parent="UCHPHLyf59xW7iVv575Z-1" source="RRSD7TgsQVruw1TCDUvZ-3" target="RRSD7TgsQVruw1TCDUvZ-5" edge="1">
                    <mxGeometry relative="1" as="geometry"/>
                </mxCell>
                <mxCell id="4qDMk-ulKB6U1wZF_YUC-77" style="edgeStyle=none;html=1;exitX=1;exitY=0.5;exitDx=0;exitDy=0;entryX=-0.022;entryY=0.502;entryDx=0;entryDy=0;entryPerimeter=0;" parent="UCHPHLyf59xW7iVv575Z-1" source="RRSD7TgsQVruw1TCDUvZ-3" target="4qDMk-ulKB6U1wZF_YUC-75" edge="1">
                    <mxGeometry relative="1" as="geometry"/>
                </mxCell>
                <mxCell id="RRSD7TgsQVruw1TCDUvZ-3" value="by service?" style="rhombus;whiteSpace=wrap;html=1;" parent="UCHPHLyf59xW7iVv575Z-1" vertex="1">
                    <mxGeometry x="230" y="520" width="80" height="80" as="geometry"/>
                </mxCell>
                <mxCell id="4BYBRjXDcR4U9ONJC4nE-5" style="edgeStyle=none;html=1;exitX=0.5;exitY=1;exitDx=0;exitDy=0;entryX=0.5;entryY=0;entryDx=0;entryDy=0;entryPerimeter=0;" parent="UCHPHLyf59xW7iVv575Z-1" source="RRSD7TgsQVruw1TCDUvZ-5" target="4BYBRjXDcR4U9ONJC4nE-4" edge="1">
                    <mxGeometry relative="1" as="geometry"/>
                </mxCell>
                <mxCell id="4qDMk-ulKB6U1wZF_YUC-85" style="edgeStyle=none;html=1;exitX=1;exitY=0.5;exitDx=0;exitDy=0;" parent="UCHPHLyf59xW7iVv575Z-1" source="RRSD7TgsQVruw1TCDUvZ-5" target="4qDMk-ulKB6U1wZF_YUC-79" edge="1">
                    <mxGeometry relative="1" as="geometry"/>
                </mxCell>
                <mxCell id="RRSD7TgsQVruw1TCDUvZ-5" value="by email?" style="rhombus;whiteSpace=wrap;html=1;" parent="UCHPHLyf59xW7iVv575Z-1" vertex="1">
                    <mxGeometry x="230" y="660" width="80" height="80" as="geometry"/>
                </mxCell>
                <mxCell id="4BYBRjXDcR4U9ONJC4nE-0" style="edgeStyle=none;html=1;exitX=0.5;exitY=1;exitDx=0;exitDy=0;entryX=0.5;entryY=0;entryDx=0;entryDy=0;" parent="UCHPHLyf59xW7iVv575Z-1" source="4BYBRjXDcR4U9ONJC4nE-1" target="4BYBRjXDcR4U9ONJC4nE-2" edge="1">
                    <mxGeometry relative="1" as="geometry"/>
                </mxCell>
                <mxCell id="4BYBRjXDcR4U9ONJC4nE-1" value="Leave" style="rounded=0;whiteSpace=wrap;html=1;" parent="UCHPHLyf59xW7iVv575Z-1" vertex="1">
                    <mxGeometry x="71.5" y="370" width="120" height="60" as="geometry"/>
                </mxCell>
                <mxCell id="4BYBRjXDcR4U9ONJC4nE-2" value="A" style="verticalLabelPosition=middle;verticalAlign=middle;html=1;shape=offPageConnector;rounded=0;size=0.5;labelPosition=center;align=center;" parent="UCHPHLyf59xW7iVv575Z-1" vertex="1">
                    <mxGeometry x="106.5" y="500" width="50" height="40" as="geometry"/>
                </mxCell>
                <mxCell id="4BYBRjXDcR4U9ONJC4nE-4" value="1" style="verticalLabelPosition=middle;verticalAlign=middle;html=1;shape=mxgraph.flowchart.on-page_reference;labelPosition=center;align=center;" parent="UCHPHLyf59xW7iVv575Z-1" vertex="1">
                    <mxGeometry x="250.5" y="800" width="39" height="40" as="geometry"/>
                </mxCell>
                <mxCell id="4qDMk-ulKB6U1wZF_YUC-4" style="edgeStyle=none;html=1;exitX=1;exitY=0.5;exitDx=0;exitDy=0;entryX=0;entryY=0.25;entryDx=0;entryDy=0;" parent="UCHPHLyf59xW7iVv575Z-1" source="4qDMk-ulKB6U1wZF_YUC-0" target="4qDMk-ulKB6U1wZF_YUC-1" edge="1">
                    <mxGeometry relative="1" as="geometry"/>
                </mxCell>
                <mxCell id="4qDMk-ulKB6U1wZF_YUC-0" value="Search by state" style="shape=process;whiteSpace=wrap;html=1;backgroundOutline=1;" parent="UCHPHLyf59xW7iVv575Z-1" vertex="1">
                    <mxGeometry x="365" y="230" width="120" height="60" as="geometry"/>
                </mxCell>
                <mxCell id="4qDMk-ulKB6U1wZF_YUC-1" value="S-1" style="verticalLabelPosition=middle;verticalAlign=middle;html=1;shape=offPageConnector;rounded=0;size=0.5;labelPosition=center;align=center;" parent="UCHPHLyf59xW7iVv575Z-1" vertex="1">
                    <mxGeometry x="540" y="250" width="50" height="40" as="geometry"/>
                </mxCell>
                <mxCell id="4qDMk-ulKB6U1wZF_YUC-36" style="edgeStyle=none;html=1;exitX=0.5;exitY=1;exitDx=0;exitDy=0;entryX=0.5;entryY=0;entryDx=0;entryDy=0;" parent="UCHPHLyf59xW7iVv575Z-1" source="4qDMk-ulKB6U1wZF_YUC-5" target="4qDMk-ulKB6U1wZF_YUC-6" edge="1">
                    <mxGeometry relative="1" as="geometry"/>
                </mxCell>
                <mxCell id="4qDMk-ulKB6U1wZF_YUC-5" value="S-1" style="verticalLabelPosition=middle;verticalAlign=middle;html=1;shape=offPageConnector;rounded=0;size=0.5;labelPosition=center;align=center;" parent="UCHPHLyf59xW7iVv575Z-1" vertex="1">
                    <mxGeometry x="1014.5" y="286" width="50" height="40" as="geometry"/>
                </mxCell>
                <mxCell id="4qDMk-ulKB6U1wZF_YUC-9" style="edgeStyle=none;html=1;exitX=0.5;exitY=1;exitDx=0;exitDy=0;entryX=0.5;entryY=0;entryDx=0;entryDy=0;" parent="UCHPHLyf59xW7iVv575Z-1" source="4qDMk-ulKB6U1wZF_YUC-6" target="4qDMk-ulKB6U1wZF_YUC-7" edge="1">
                    <mxGeometry relative="1" as="geometry"/>
                </mxCell>
                <mxCell id="4qDMk-ulKB6U1wZF_YUC-26" style="edgeStyle=none;html=1;exitX=1;exitY=0.5;exitDx=0;exitDy=0;" parent="UCHPHLyf59xW7iVv575Z-1" source="4qDMk-ulKB6U1wZF_YUC-6" target="4qDMk-ulKB6U1wZF_YUC-11" edge="1">
                    <mxGeometry relative="1" as="geometry"/>
                </mxCell>
                <mxCell id="4qDMk-ulKB6U1wZF_YUC-6" value="completed?" style="rhombus;whiteSpace=wrap;html=1;" parent="UCHPHLyf59xW7iVv575Z-1" vertex="1">
                    <mxGeometry x="1000" y="355" width="80" height="80" as="geometry"/>
                </mxCell>
                <mxCell id="4qDMk-ulKB6U1wZF_YUC-10" style="edgeStyle=none;html=1;exitX=0.5;exitY=1;exitDx=0;exitDy=0;entryX=0.5;entryY=0;entryDx=0;entryDy=0;" parent="UCHPHLyf59xW7iVv575Z-1" source="4qDMk-ulKB6U1wZF_YUC-7" target="4qDMk-ulKB6U1wZF_YUC-8" edge="1">
                    <mxGeometry relative="1" as="geometry"/>
                </mxCell>
                <mxCell id="4qDMk-ulKB6U1wZF_YUC-27" style="edgeStyle=none;html=1;exitX=1;exitY=0.5;exitDx=0;exitDy=0;entryX=0;entryY=0.5;entryDx=0;entryDy=0;" parent="UCHPHLyf59xW7iVv575Z-1" source="4qDMk-ulKB6U1wZF_YUC-7" target="4qDMk-ulKB6U1wZF_YUC-18" edge="1">
                    <mxGeometry relative="1" as="geometry"/>
                </mxCell>
                <mxCell id="4qDMk-ulKB6U1wZF_YUC-7" value="declined?" style="rhombus;whiteSpace=wrap;html=1;" parent="UCHPHLyf59xW7iVv575Z-1" vertex="1">
                    <mxGeometry x="1000" y="495" width="80" height="80" as="geometry"/>
                </mxCell>
                <mxCell id="4qDMk-ulKB6U1wZF_YUC-25" style="edgeStyle=none;html=1;exitX=0.5;exitY=1;exitDx=0;exitDy=0;entryX=0.5;entryY=0;entryDx=0;entryDy=0;" parent="UCHPHLyf59xW7iVv575Z-1" source="4qDMk-ulKB6U1wZF_YUC-8" target="4qDMk-ulKB6U1wZF_YUC-24" edge="1">
                    <mxGeometry relative="1" as="geometry"/>
                </mxCell>
                <mxCell id="4qDMk-ulKB6U1wZF_YUC-28" style="edgeStyle=none;html=1;exitX=1;exitY=0.5;exitDx=0;exitDy=0;" parent="UCHPHLyf59xW7iVv575Z-1" source="4qDMk-ulKB6U1wZF_YUC-8" target="4qDMk-ulKB6U1wZF_YUC-21" edge="1">
                    <mxGeometry relative="1" as="geometry"/>
                </mxCell>
                <mxCell id="4qDMk-ulKB6U1wZF_YUC-8" value="cancelled?" style="rhombus;whiteSpace=wrap;html=1;" parent="UCHPHLyf59xW7iVv575Z-1" vertex="1">
                    <mxGeometry x="1000" y="635" width="80" height="80" as="geometry"/>
                </mxCell>
                <mxCell id="4qDMk-ulKB6U1wZF_YUC-30" style="edgeStyle=none;html=1;exitX=1;exitY=0.5;exitDx=0;exitDy=0;entryX=0;entryY=0.5;entryDx=0;entryDy=0;" parent="UCHPHLyf59xW7iVv575Z-1" source="4qDMk-ulKB6U1wZF_YUC-11" target="4qDMk-ulKB6U1wZF_YUC-97" edge="1">
                    <mxGeometry relative="1" as="geometry">
                        <mxPoint x="1370" y="536" as="targetPoint"/>
                        <Array as="points">
                            <mxPoint x="1370" y="395"/>
                        </Array>
                    </mxGeometry>
                </mxCell>
                <mxCell id="4qDMk-ulKB6U1wZF_YUC-11" value="display all &quot;completed&quot;&lt;br&gt;records" style="shape=parallelogram;perimeter=parallelogramPerimeter;whiteSpace=wrap;html=1;fixedSize=1;" parent="UCHPHLyf59xW7iVv575Z-1" vertex="1">
                    <mxGeometry x="1115" y="365" width="160" height="60" as="geometry"/>
                </mxCell>
                <mxCell id="4qDMk-ulKB6U1wZF_YUC-16" style="edgeStyle=none;html=1;exitX=0;exitY=0.25;exitDx=0;exitDy=0;" parent="UCHPHLyf59xW7iVv575Z-1" edge="1">
                    <mxGeometry relative="1" as="geometry">
                        <mxPoint x="132" y="70.18181818181819" as="targetPoint"/>
                        <mxPoint x="203.5" y="70" as="sourcePoint"/>
                    </mxGeometry>
                </mxCell>
                <mxCell id="4qDMk-ulKB6U1wZF_YUC-13" value="S-C" style="verticalLabelPosition=middle;verticalAlign=middle;html=1;shape=offPageConnector;rounded=0;size=0.5;labelPosition=center;align=center;" parent="UCHPHLyf59xW7iVv575Z-1" vertex="1">
                    <mxGeometry x="201.5" y="60" width="49" height="40" as="geometry"/>
                </mxCell>
                <mxCell id="4qDMk-ulKB6U1wZF_YUC-31" style="edgeStyle=none;html=1;exitX=1;exitY=0.5;exitDx=0;exitDy=0;" parent="UCHPHLyf59xW7iVv575Z-1" source="4qDMk-ulKB6U1wZF_YUC-18" edge="1">
                    <mxGeometry relative="1" as="geometry">
                        <mxPoint x="1376" y="399" as="targetPoint"/>
                        <Array as="points">
                            <mxPoint x="1376" y="535"/>
                        </Array>
                    </mxGeometry>
                </mxCell>
                <mxCell id="4qDMk-ulKB6U1wZF_YUC-18" value="display all &quot;completed&quot;&lt;br&gt;records" style="shape=parallelogram;perimeter=parallelogramPerimeter;whiteSpace=wrap;html=1;fixedSize=1;" parent="UCHPHLyf59xW7iVv575Z-1" vertex="1">
                    <mxGeometry x="1115" y="505" width="160" height="60" as="geometry"/>
                </mxCell>
                <mxCell id="4qDMk-ulKB6U1wZF_YUC-32" style="edgeStyle=none;html=1;exitX=1;exitY=0.5;exitDx=0;exitDy=0;" parent="UCHPHLyf59xW7iVv575Z-1" source="4qDMk-ulKB6U1wZF_YUC-21" edge="1">
                    <mxGeometry relative="1" as="geometry">
                        <mxPoint x="1376" y="529" as="targetPoint"/>
                        <Array as="points">
                            <mxPoint x="1376" y="675"/>
                        </Array>
                    </mxGeometry>
                </mxCell>
                <mxCell id="4qDMk-ulKB6U1wZF_YUC-21" value="display all &quot;completed&quot;&lt;br&gt;records" style="shape=parallelogram;perimeter=parallelogramPerimeter;whiteSpace=wrap;html=1;fixedSize=1;" parent="UCHPHLyf59xW7iVv575Z-1" vertex="1">
                    <mxGeometry x="1115" y="645" width="160" height="60" as="geometry"/>
                </mxCell>
                <mxCell id="4qDMk-ulKB6U1wZF_YUC-24" value="S-C" style="verticalLabelPosition=middle;verticalAlign=middle;html=1;shape=offPageConnector;rounded=0;size=0.5;labelPosition=center;align=center;" parent="UCHPHLyf59xW7iVv575Z-1" vertex="1">
                    <mxGeometry x="1015.5" y="765" width="49" height="40" as="geometry"/>
                </mxCell>
                <mxCell id="4qDMk-ulKB6U1wZF_YUC-44" style="edgeStyle=none;html=1;exitX=1;exitY=0.5;exitDx=0;exitDy=0;" parent="UCHPHLyf59xW7iVv575Z-1" source="4qDMk-ulKB6U1wZF_YUC-38" target="4qDMk-ulKB6U1wZF_YUC-39" edge="1">
                    <mxGeometry relative="1" as="geometry"/>
                </mxCell>
                <mxCell id="4qDMk-ulKB6U1wZF_YUC-38" value="Input Date" style="shape=parallelogram;html=1;strokeWidth=2;perimeter=parallelogramPerimeter;whiteSpace=wrap;rounded=1;arcSize=12;size=0.23;" parent="UCHPHLyf59xW7iVv575Z-1" vertex="1">
                    <mxGeometry x="336" y="380" width="149" height="60" as="geometry"/>
                </mxCell>
                <mxCell id="4qDMk-ulKB6U1wZF_YUC-45" style="edgeStyle=none;html=1;exitX=1;exitY=0.5;exitDx=0;exitDy=0;entryX=0;entryY=0.5;entryDx=0;entryDy=0;" parent="UCHPHLyf59xW7iVv575Z-1" source="4qDMk-ulKB6U1wZF_YUC-39" target="4qDMk-ulKB6U1wZF_YUC-86" edge="1">
                    <mxGeometry relative="1" as="geometry"/>
                </mxCell>
                <mxCell id="4qDMk-ulKB6U1wZF_YUC-39" value="Display Searched&lt;br&gt;Date Records" style="shape=parallelogram;html=1;strokeWidth=2;perimeter=parallelogramPerimeter;whiteSpace=wrap;rounded=1;arcSize=12;size=0.23;" parent="UCHPHLyf59xW7iVv575Z-1" vertex="1">
                    <mxGeometry x="500" y="380" width="150" height="60" as="geometry"/>
                </mxCell>
                <mxCell id="4qDMk-ulKB6U1wZF_YUC-90" style="edgeStyle=none;html=1;exitX=0.5;exitY=1;exitDx=0;exitDy=0;entryX=0.5;entryY=0;entryDx=0;entryDy=0;" parent="UCHPHLyf59xW7iVv575Z-1" source="4qDMk-ulKB6U1wZF_YUC-41" target="4qDMk-ulKB6U1wZF_YUC-88" edge="1">
                    <mxGeometry relative="1" as="geometry"/>
                </mxCell>
                <mxCell id="4qDMk-ulKB6U1wZF_YUC-41" value="Leave" style="rounded=0;whiteSpace=wrap;html=1;" parent="UCHPHLyf59xW7iVv575Z-1" vertex="1">
                    <mxGeometry x="680" y="490.5" width="80" height="60" as="geometry"/>
                </mxCell>
                <mxCell id="4qDMk-ulKB6U1wZF_YUC-46" value="2" style="verticalLabelPosition=middle;verticalAlign=middle;html=1;shape=mxgraph.flowchart.on-page_reference;labelPosition=center;align=center;" parent="UCHPHLyf59xW7iVv575Z-1" vertex="1">
                    <mxGeometry x="800" y="390" width="39" height="40" as="geometry"/>
                </mxCell>
                <mxCell id="4qDMk-ulKB6U1wZF_YUC-47" style="edgeStyle=none;html=1;exitX=0.5;exitY=1;exitDx=0;exitDy=0;entryX=0.5;entryY=0;entryDx=0;entryDy=0;" parent="UCHPHLyf59xW7iVv575Z-1" source="4qDMk-ulKB6U1wZF_YUC-48" target="4qDMk-ulKB6U1wZF_YUC-51" edge="1">
                    <mxGeometry relative="1" as="geometry"/>
                </mxCell>
                <mxCell id="4qDMk-ulKB6U1wZF_YUC-48" value="S-2" style="verticalLabelPosition=middle;verticalAlign=middle;html=1;shape=offPageConnector;rounded=0;size=0.5;labelPosition=center;align=center;" parent="UCHPHLyf59xW7iVv575Z-1" vertex="1">
                    <mxGeometry x="1902" y="235" width="50" height="40" as="geometry"/>
                </mxCell>
                <mxCell id="4qDMk-ulKB6U1wZF_YUC-49" style="edgeStyle=none;html=1;exitX=0.5;exitY=1;exitDx=0;exitDy=0;entryX=0.5;entryY=0;entryDx=0;entryDy=0;" parent="UCHPHLyf59xW7iVv575Z-1" source="4qDMk-ulKB6U1wZF_YUC-51" target="4qDMk-ulKB6U1wZF_YUC-54" edge="1">
                    <mxGeometry relative="1" as="geometry"/>
                </mxCell>
                <mxCell id="4qDMk-ulKB6U1wZF_YUC-50" style="edgeStyle=none;html=1;exitX=1;exitY=0.5;exitDx=0;exitDy=0;" parent="UCHPHLyf59xW7iVv575Z-1" source="4qDMk-ulKB6U1wZF_YUC-51" target="4qDMk-ulKB6U1wZF_YUC-59" edge="1">
                    <mxGeometry relative="1" as="geometry"/>
                </mxCell>
                <mxCell id="4qDMk-ulKB6U1wZF_YUC-51" value="cleaning?" style="rhombus;whiteSpace=wrap;html=1;" parent="UCHPHLyf59xW7iVv575Z-1" vertex="1">
                    <mxGeometry x="1887.5" y="304" width="80" height="80" as="geometry"/>
                </mxCell>
                <mxCell id="4qDMk-ulKB6U1wZF_YUC-52" style="edgeStyle=none;html=1;exitX=0.5;exitY=1;exitDx=0;exitDy=0;entryX=0.5;entryY=0;entryDx=0;entryDy=0;" parent="UCHPHLyf59xW7iVv575Z-1" source="4qDMk-ulKB6U1wZF_YUC-54" target="4qDMk-ulKB6U1wZF_YUC-57" edge="1">
                    <mxGeometry relative="1" as="geometry"/>
                </mxCell>
                <mxCell id="4qDMk-ulKB6U1wZF_YUC-53" style="edgeStyle=none;html=1;exitX=1;exitY=0.5;exitDx=0;exitDy=0;entryX=0;entryY=0.5;entryDx=0;entryDy=0;" parent="UCHPHLyf59xW7iVv575Z-1" source="4qDMk-ulKB6U1wZF_YUC-54" target="4qDMk-ulKB6U1wZF_YUC-64" edge="1">
                    <mxGeometry relative="1" as="geometry"/>
                </mxCell>
                <mxCell id="4qDMk-ulKB6U1wZF_YUC-54" value="pasta?" style="rhombus;whiteSpace=wrap;html=1;" parent="UCHPHLyf59xW7iVv575Z-1" vertex="1">
                    <mxGeometry x="1887.5" y="444" width="80" height="80" as="geometry"/>
                </mxCell>
                <mxCell id="4qDMk-ulKB6U1wZF_YUC-56" style="edgeStyle=none;html=1;exitX=1;exitY=0.5;exitDx=0;exitDy=0;" parent="UCHPHLyf59xW7iVv575Z-1" source="4qDMk-ulKB6U1wZF_YUC-57" target="4qDMk-ulKB6U1wZF_YUC-69" edge="1">
                    <mxGeometry relative="1" as="geometry"/>
                </mxCell>
                <mxCell id="4qDMk-ulKB6U1wZF_YUC-121" style="edgeStyle=none;html=1;exitX=0.5;exitY=1;exitDx=0;exitDy=0;entryX=0.5;entryY=0;entryDx=0;entryDy=0;" parent="UCHPHLyf59xW7iVv575Z-1" source="4qDMk-ulKB6U1wZF_YUC-57" target="4qDMk-ulKB6U1wZF_YUC-114" edge="1">
                    <mxGeometry relative="1" as="geometry"/>
                </mxCell>
                <mxCell id="4qDMk-ulKB6U1wZF_YUC-57" value="dental&lt;br&gt;crown?" style="rhombus;whiteSpace=wrap;html=1;" parent="UCHPHLyf59xW7iVv575Z-1" vertex="1">
                    <mxGeometry x="1887.5" y="584" width="80" height="80" as="geometry"/>
                </mxCell>
                <mxCell id="4qDMk-ulKB6U1wZF_YUC-58" style="edgeStyle=none;html=1;exitX=1;exitY=0.5;exitDx=0;exitDy=0;" parent="UCHPHLyf59xW7iVv575Z-1" source="4qDMk-ulKB6U1wZF_YUC-59" edge="1">
                    <mxGeometry relative="1" as="geometry">
                        <mxPoint x="2212.5" y="484.5" as="targetPoint"/>
                        <Array as="points">
                            <mxPoint x="2212.5" y="344.5"/>
                        </Array>
                    </mxGeometry>
                </mxCell>
                <mxCell id="4qDMk-ulKB6U1wZF_YUC-59" value="display all &quot;cleaning&quot;&lt;br&gt;records" style="shape=parallelogram;perimeter=parallelogramPerimeter;whiteSpace=wrap;html=1;fixedSize=1;" parent="UCHPHLyf59xW7iVv575Z-1" vertex="1">
                    <mxGeometry x="2002.5" y="314" width="160" height="60" as="geometry"/>
                </mxCell>
                <mxCell id="4qDMk-ulKB6U1wZF_YUC-63" style="edgeStyle=none;html=1;exitX=1;exitY=0.5;exitDx=0;exitDy=0;entryX=0;entryY=0.5;entryDx=0;entryDy=0;" parent="UCHPHLyf59xW7iVv575Z-1" source="4qDMk-ulKB6U1wZF_YUC-64" target="4qDMk-ulKB6U1wZF_YUC-111" edge="1">
                    <mxGeometry relative="1" as="geometry">
                        <mxPoint x="2227.5" y="484.5" as="targetPoint"/>
                    </mxGeometry>
                </mxCell>
                <mxCell id="4qDMk-ulKB6U1wZF_YUC-64" value="display all &quot;pasta&quot;&lt;br&gt;records" style="shape=parallelogram;perimeter=parallelogramPerimeter;whiteSpace=wrap;html=1;fixedSize=1;" parent="UCHPHLyf59xW7iVv575Z-1" vertex="1">
                    <mxGeometry x="2002.5" y="454" width="160" height="60" as="geometry"/>
                </mxCell>
                <mxCell id="4qDMk-ulKB6U1wZF_YUC-68" style="edgeStyle=none;html=1;exitX=1;exitY=0.5;exitDx=0;exitDy=0;" parent="UCHPHLyf59xW7iVv575Z-1" source="4qDMk-ulKB6U1wZF_YUC-69" edge="1">
                    <mxGeometry relative="1" as="geometry">
                        <mxPoint x="2217.5" y="484.5" as="targetPoint"/>
                        <Array as="points">
                            <mxPoint x="2217.5" y="624.5"/>
                        </Array>
                    </mxGeometry>
                </mxCell>
                <mxCell id="4qDMk-ulKB6U1wZF_YUC-69" value="display all &lt;br&gt;&quot;dental crown&quot; records" style="shape=parallelogram;perimeter=parallelogramPerimeter;whiteSpace=wrap;html=1;fixedSize=1;" parent="UCHPHLyf59xW7iVv575Z-1" vertex="1">
                    <mxGeometry x="2002.5" y="594" width="160" height="60" as="geometry"/>
                </mxCell>
                <mxCell id="4qDMk-ulKB6U1wZF_YUC-74" style="edgeStyle=none;html=1;exitX=1;exitY=0.5;exitDx=0;exitDy=0;entryX=0;entryY=0.25;entryDx=0;entryDy=0;" parent="UCHPHLyf59xW7iVv575Z-1" source="4qDMk-ulKB6U1wZF_YUC-75" target="4qDMk-ulKB6U1wZF_YUC-76" edge="1">
                    <mxGeometry relative="1" as="geometry"/>
                </mxCell>
                <mxCell id="4qDMk-ulKB6U1wZF_YUC-75" value="Search by service" style="shape=process;whiteSpace=wrap;html=1;backgroundOutline=1;" parent="UCHPHLyf59xW7iVv575Z-1" vertex="1">
                    <mxGeometry x="350" y="530" width="120" height="60" as="geometry"/>
                </mxCell>
                <mxCell id="4qDMk-ulKB6U1wZF_YUC-76" value="S-2" style="verticalLabelPosition=middle;verticalAlign=middle;html=1;shape=offPageConnector;rounded=0;size=0.5;labelPosition=center;align=center;" parent="UCHPHLyf59xW7iVv575Z-1" vertex="1">
                    <mxGeometry x="525" y="550" width="50" height="40" as="geometry"/>
                </mxCell>
                <mxCell id="4qDMk-ulKB6U1wZF_YUC-78" style="edgeStyle=none;html=1;exitX=1;exitY=0.5;exitDx=0;exitDy=0;" parent="UCHPHLyf59xW7iVv575Z-1" source="4qDMk-ulKB6U1wZF_YUC-79" target="4qDMk-ulKB6U1wZF_YUC-81" edge="1">
                    <mxGeometry relative="1" as="geometry"/>
                </mxCell>
                <mxCell id="4qDMk-ulKB6U1wZF_YUC-79" value="Input Email" style="shape=parallelogram;html=1;strokeWidth=2;perimeter=parallelogramPerimeter;whiteSpace=wrap;rounded=1;arcSize=12;size=0.23;" parent="UCHPHLyf59xW7iVv575Z-1" vertex="1">
                    <mxGeometry x="330" y="670" width="149" height="60" as="geometry"/>
                </mxCell>
                <mxCell id="4qDMk-ulKB6U1wZF_YUC-80" style="edgeStyle=none;html=1;exitX=1;exitY=0.5;exitDx=0;exitDy=0;entryX=0;entryY=0.5;entryDx=0;entryDy=0;" parent="UCHPHLyf59xW7iVv575Z-1" source="4qDMk-ulKB6U1wZF_YUC-81" target="4qDMk-ulKB6U1wZF_YUC-104" edge="1">
                    <mxGeometry relative="1" as="geometry">
                        <mxPoint x="660" y="700" as="targetPoint"/>
                    </mxGeometry>
                </mxCell>
                <mxCell id="4qDMk-ulKB6U1wZF_YUC-81" value="Display Searched&lt;br&gt;Email Records" style="shape=parallelogram;html=1;strokeWidth=2;perimeter=parallelogramPerimeter;whiteSpace=wrap;rounded=1;arcSize=12;size=0.23;" parent="UCHPHLyf59xW7iVv575Z-1" vertex="1">
                    <mxGeometry x="490" y="670" width="150" height="60" as="geometry"/>
                </mxCell>
                <mxCell id="4qDMk-ulKB6U1wZF_YUC-89" style="edgeStyle=none;html=1;exitX=0.5;exitY=1;exitDx=0;exitDy=0;entryX=0.5;entryY=0;entryDx=0;entryDy=0;" parent="UCHPHLyf59xW7iVv575Z-1" source="4qDMk-ulKB6U1wZF_YUC-86" target="4qDMk-ulKB6U1wZF_YUC-41" edge="1">
                    <mxGeometry relative="1" as="geometry"/>
                </mxCell>
                <mxCell id="4qDMk-ulKB6U1wZF_YUC-91" style="edgeStyle=none;html=1;exitX=1;exitY=0.5;exitDx=0;exitDy=0;entryX=0;entryY=0.5;entryDx=0;entryDy=0;entryPerimeter=0;" parent="UCHPHLyf59xW7iVv575Z-1" source="4qDMk-ulKB6U1wZF_YUC-86" target="4qDMk-ulKB6U1wZF_YUC-46" edge="1">
                    <mxGeometry relative="1" as="geometry"/>
                </mxCell>
                <mxCell id="4qDMk-ulKB6U1wZF_YUC-86" value="Clear&lt;br&gt;Search?" style="rhombus;whiteSpace=wrap;html=1;" parent="UCHPHLyf59xW7iVv575Z-1" vertex="1">
                    <mxGeometry x="680" y="370" width="80" height="80" as="geometry"/>
                </mxCell>
                <mxCell id="4qDMk-ulKB6U1wZF_YUC-88" value="A" style="verticalLabelPosition=middle;verticalAlign=middle;html=1;shape=offPageConnector;rounded=0;size=0.5;labelPosition=center;align=center;" parent="UCHPHLyf59xW7iVv575Z-1" vertex="1">
                    <mxGeometry x="695" y="581" width="50" height="40" as="geometry"/>
                </mxCell>
                <mxCell id="4qDMk-ulKB6U1wZF_YUC-92" style="edgeStyle=none;html=1;exitX=0.5;exitY=1;exitDx=0;exitDy=0;entryX=0.5;entryY=0;entryDx=0;entryDy=0;" parent="UCHPHLyf59xW7iVv575Z-1" source="4qDMk-ulKB6U1wZF_YUC-93" target="4qDMk-ulKB6U1wZF_YUC-98" edge="1">
                    <mxGeometry relative="1" as="geometry"/>
                </mxCell>
                <mxCell id="4qDMk-ulKB6U1wZF_YUC-93" value="Leave" style="rounded=0;whiteSpace=wrap;html=1;" parent="UCHPHLyf59xW7iVv575Z-1" vertex="1">
                    <mxGeometry x="1446" y="485" width="80" height="60" as="geometry"/>
                </mxCell>
                <mxCell id="4qDMk-ulKB6U1wZF_YUC-95" style="edgeStyle=none;html=1;exitX=0.5;exitY=1;exitDx=0;exitDy=0;entryX=0.5;entryY=0;entryDx=0;entryDy=0;" parent="UCHPHLyf59xW7iVv575Z-1" source="4qDMk-ulKB6U1wZF_YUC-97" target="4qDMk-ulKB6U1wZF_YUC-93" edge="1">
                    <mxGeometry relative="1" as="geometry"/>
                </mxCell>
                <mxCell id="4qDMk-ulKB6U1wZF_YUC-96" style="edgeStyle=none;html=1;exitX=1;exitY=0.5;exitDx=0;exitDy=0;entryX=0;entryY=0.25;entryDx=0;entryDy=0;" parent="UCHPHLyf59xW7iVv575Z-1" source="4qDMk-ulKB6U1wZF_YUC-97" target="4qDMk-ulKB6U1wZF_YUC-117" edge="1">
                    <mxGeometry relative="1" as="geometry">
                        <mxPoint x="1556" y="395" as="targetPoint"/>
                    </mxGeometry>
                </mxCell>
                <mxCell id="4qDMk-ulKB6U1wZF_YUC-97" value="Clear&lt;br&gt;Search?" style="rhombus;whiteSpace=wrap;html=1;" parent="UCHPHLyf59xW7iVv575Z-1" vertex="1">
                    <mxGeometry x="1446" y="355" width="80" height="80" as="geometry"/>
                </mxCell>
                <mxCell id="4qDMk-ulKB6U1wZF_YUC-98" value="A" style="verticalLabelPosition=middle;verticalAlign=middle;html=1;shape=offPageConnector;rounded=0;size=0.5;labelPosition=center;align=center;" parent="UCHPHLyf59xW7iVv575Z-1" vertex="1">
                    <mxGeometry x="1461" y="575.5" width="50" height="40" as="geometry"/>
                </mxCell>
                <mxCell id="4qDMk-ulKB6U1wZF_YUC-99" style="edgeStyle=none;html=1;exitX=0.5;exitY=1;exitDx=0;exitDy=0;entryX=0.5;entryY=0;entryDx=0;entryDy=0;" parent="UCHPHLyf59xW7iVv575Z-1" source="4qDMk-ulKB6U1wZF_YUC-100" target="4qDMk-ulKB6U1wZF_YUC-105" edge="1">
                    <mxGeometry relative="1" as="geometry"/>
                </mxCell>
                <mxCell id="4qDMk-ulKB6U1wZF_YUC-100" value="Leave" style="rounded=0;whiteSpace=wrap;html=1;" parent="UCHPHLyf59xW7iVv575Z-1" vertex="1">
                    <mxGeometry x="680" y="780.5" width="80" height="60" as="geometry"/>
                </mxCell>
                <mxCell id="4qDMk-ulKB6U1wZF_YUC-101" value="2" style="verticalLabelPosition=middle;verticalAlign=middle;html=1;shape=mxgraph.flowchart.on-page_reference;labelPosition=center;align=center;" parent="UCHPHLyf59xW7iVv575Z-1" vertex="1">
                    <mxGeometry x="800" y="680" width="39" height="40" as="geometry"/>
                </mxCell>
                <mxCell id="4qDMk-ulKB6U1wZF_YUC-102" style="edgeStyle=none;html=1;exitX=0.5;exitY=1;exitDx=0;exitDy=0;entryX=0.5;entryY=0;entryDx=0;entryDy=0;" parent="UCHPHLyf59xW7iVv575Z-1" source="4qDMk-ulKB6U1wZF_YUC-104" target="4qDMk-ulKB6U1wZF_YUC-100" edge="1">
                    <mxGeometry relative="1" as="geometry"/>
                </mxCell>
                <mxCell id="4qDMk-ulKB6U1wZF_YUC-103" style="edgeStyle=none;html=1;exitX=1;exitY=0.5;exitDx=0;exitDy=0;entryX=0;entryY=0.5;entryDx=0;entryDy=0;entryPerimeter=0;" parent="UCHPHLyf59xW7iVv575Z-1" source="4qDMk-ulKB6U1wZF_YUC-104" target="4qDMk-ulKB6U1wZF_YUC-101" edge="1">
                    <mxGeometry relative="1" as="geometry"/>
                </mxCell>
                <mxCell id="4qDMk-ulKB6U1wZF_YUC-104" value="Clear&lt;br&gt;Search?" style="rhombus;whiteSpace=wrap;html=1;" parent="UCHPHLyf59xW7iVv575Z-1" vertex="1">
                    <mxGeometry x="680" y="660" width="80" height="80" as="geometry"/>
                </mxCell>
                <mxCell id="4qDMk-ulKB6U1wZF_YUC-105" value="A" style="verticalLabelPosition=middle;verticalAlign=middle;html=1;shape=offPageConnector;rounded=0;size=0.5;labelPosition=center;align=center;" parent="UCHPHLyf59xW7iVv575Z-1" vertex="1">
                    <mxGeometry x="695" y="871" width="50" height="40" as="geometry"/>
                </mxCell>
                <mxCell id="4qDMk-ulKB6U1wZF_YUC-106" style="edgeStyle=none;html=1;exitX=0.5;exitY=1;exitDx=0;exitDy=0;entryX=0.5;entryY=0;entryDx=0;entryDy=0;" parent="UCHPHLyf59xW7iVv575Z-1" source="4qDMk-ulKB6U1wZF_YUC-107" target="4qDMk-ulKB6U1wZF_YUC-112" edge="1">
                    <mxGeometry relative="1" as="geometry"/>
                </mxCell>
                <mxCell id="4qDMk-ulKB6U1wZF_YUC-107" value="Leave" style="rounded=0;whiteSpace=wrap;html=1;" parent="UCHPHLyf59xW7iVv575Z-1" vertex="1">
                    <mxGeometry x="2267.5" y="574" width="80" height="60" as="geometry"/>
                </mxCell>
                <mxCell id="4qDMk-ulKB6U1wZF_YUC-109" style="edgeStyle=none;html=1;exitX=0.5;exitY=1;exitDx=0;exitDy=0;entryX=0.5;entryY=0;entryDx=0;entryDy=0;" parent="UCHPHLyf59xW7iVv575Z-1" source="4qDMk-ulKB6U1wZF_YUC-111" target="4qDMk-ulKB6U1wZF_YUC-107" edge="1">
                    <mxGeometry relative="1" as="geometry"/>
                </mxCell>
                <mxCell id="4qDMk-ulKB6U1wZF_YUC-110" style="edgeStyle=none;html=1;exitX=1;exitY=0.5;exitDx=0;exitDy=0;entryX=0;entryY=0.25;entryDx=0;entryDy=0;" parent="UCHPHLyf59xW7iVv575Z-1" source="4qDMk-ulKB6U1wZF_YUC-111" target="4qDMk-ulKB6U1wZF_YUC-118" edge="1">
                    <mxGeometry relative="1" as="geometry">
                        <mxPoint x="2377.5" y="484" as="targetPoint"/>
                    </mxGeometry>
                </mxCell>
                <mxCell id="4qDMk-ulKB6U1wZF_YUC-111" value="Clear&lt;br&gt;Search?" style="rhombus;whiteSpace=wrap;html=1;" parent="UCHPHLyf59xW7iVv575Z-1" vertex="1">
                    <mxGeometry x="2267.5" y="444" width="80" height="80" as="geometry"/>
                </mxCell>
                <mxCell id="4qDMk-ulKB6U1wZF_YUC-112" value="A" style="verticalLabelPosition=middle;verticalAlign=middle;html=1;shape=offPageConnector;rounded=0;size=0.5;labelPosition=center;align=center;" parent="UCHPHLyf59xW7iVv575Z-1" vertex="1">
                    <mxGeometry x="2282.5" y="674.5" width="50" height="40" as="geometry"/>
                </mxCell>
                <mxCell id="4qDMk-ulKB6U1wZF_YUC-113" style="edgeStyle=none;html=1;exitX=1;exitY=0.5;exitDx=0;exitDy=0;" parent="UCHPHLyf59xW7iVv575Z-1" source="4qDMk-ulKB6U1wZF_YUC-114" target="4qDMk-ulKB6U1wZF_YUC-115" edge="1">
                    <mxGeometry relative="1" as="geometry"/>
                </mxCell>
                <mxCell id="4qDMk-ulKB6U1wZF_YUC-120" style="edgeStyle=none;html=1;exitX=0.5;exitY=1;exitDx=0;exitDy=0;entryX=0.5;entryY=0;entryDx=0;entryDy=0;" parent="UCHPHLyf59xW7iVv575Z-1" source="4qDMk-ulKB6U1wZF_YUC-114" target="4qDMk-ulKB6U1wZF_YUC-119" edge="1">
                    <mxGeometry relative="1" as="geometry"/>
                </mxCell>
                <mxCell id="4qDMk-ulKB6U1wZF_YUC-114" value="wisdom tooth&lt;br&gt;extraction?" style="rhombus;whiteSpace=wrap;html=1;" parent="UCHPHLyf59xW7iVv575Z-1" vertex="1">
                    <mxGeometry x="1870" y="704.5" width="113" height="80" as="geometry"/>
                </mxCell>
                <mxCell id="4qDMk-ulKB6U1wZF_YUC-122" style="edgeStyle=none;html=1;exitX=1;exitY=0.5;exitDx=0;exitDy=0;" parent="UCHPHLyf59xW7iVv575Z-1" edge="1">
                    <mxGeometry relative="1" as="geometry">
                        <mxPoint x="2216.5" y="620" as="targetPoint"/>
                        <mxPoint x="2171.5" y="739.5" as="sourcePoint"/>
                        <Array as="points">
                            <mxPoint x="2216.5" y="740"/>
                        </Array>
                    </mxGeometry>
                </mxCell>
                <mxCell id="4qDMk-ulKB6U1wZF_YUC-115" value="display all &lt;br&gt;&quot;wisdom tooth extraction&quot;&lt;br&gt;records" style="shape=parallelogram;perimeter=parallelogramPerimeter;whiteSpace=wrap;html=1;fixedSize=1;" parent="UCHPHLyf59xW7iVv575Z-1" vertex="1">
                    <mxGeometry x="2023.5" y="714.5" width="160" height="60" as="geometry"/>
                </mxCell>
                <mxCell id="4qDMk-ulKB6U1wZF_YUC-117" value="S-C" style="verticalLabelPosition=middle;verticalAlign=middle;html=1;shape=offPageConnector;rounded=0;size=0.5;labelPosition=center;align=center;" parent="UCHPHLyf59xW7iVv575Z-1" vertex="1">
                    <mxGeometry x="1556" y="385" width="49" height="40" as="geometry"/>
                </mxCell>
                <mxCell id="4qDMk-ulKB6U1wZF_YUC-118" value="S-C" style="verticalLabelPosition=middle;verticalAlign=middle;html=1;shape=offPageConnector;rounded=0;size=0.5;labelPosition=center;align=center;" parent="UCHPHLyf59xW7iVv575Z-1" vertex="1">
                    <mxGeometry x="2378.5" y="474" width="49" height="40" as="geometry"/>
                </mxCell>
                <mxCell id="4qDMk-ulKB6U1wZF_YUC-119" value="S-C" style="verticalLabelPosition=middle;verticalAlign=middle;html=1;shape=offPageConnector;rounded=0;size=0.5;labelPosition=center;align=center;" parent="UCHPHLyf59xW7iVv575Z-1" vertex="1">
                    <mxGeometry x="1902" y="825" width="49" height="40" as="geometry"/>
                </mxCell>
                <mxCell id="qRBt960VFtsyZ1Lze0pq-0" value="No" style="text;html=1;align=center;verticalAlign=middle;resizable=0;points=[];autosize=1;strokeColor=none;fillColor=none;" parent="UCHPHLyf59xW7iVv575Z-1" vertex="1">
                    <mxGeometry x="130" y="316.5" width="30" height="20" as="geometry"/>
                </mxCell>
                <mxCell id="qRBt960VFtsyZ1Lze0pq-1" value="No" style="text;html=1;align=center;verticalAlign=middle;resizable=0;points=[];autosize=1;strokeColor=none;fillColor=none;" parent="UCHPHLyf59xW7iVv575Z-1" vertex="1">
                    <mxGeometry x="270" y="316.5" width="30" height="20" as="geometry"/>
                </mxCell>
                <mxCell id="qRBt960VFtsyZ1Lze0pq-2" value="No" style="text;html=1;align=center;verticalAlign=middle;resizable=0;points=[];autosize=1;strokeColor=none;fillColor=none;" parent="UCHPHLyf59xW7iVv575Z-1" vertex="1">
                    <mxGeometry x="270" y="470.5" width="30" height="20" as="geometry"/>
                </mxCell>
                <mxCell id="qRBt960VFtsyZ1Lze0pq-3" value="No" style="text;html=1;align=center;verticalAlign=middle;resizable=0;points=[];autosize=1;strokeColor=none;fillColor=none;" parent="UCHPHLyf59xW7iVv575Z-1" vertex="1">
                    <mxGeometry x="270" y="620" width="30" height="20" as="geometry"/>
                </mxCell>
                <mxCell id="qRBt960VFtsyZ1Lze0pq-4" value="No" style="text;html=1;align=center;verticalAlign=middle;resizable=0;points=[];autosize=1;strokeColor=none;fillColor=none;" parent="UCHPHLyf59xW7iVv575Z-1" vertex="1">
                    <mxGeometry x="270" y="760.5" width="30" height="20" as="geometry"/>
                </mxCell>
                <mxCell id="qRBt960VFtsyZ1Lze0pq-5" value="No" style="text;html=1;align=center;verticalAlign=middle;resizable=0;points=[];autosize=1;strokeColor=none;fillColor=none;" parent="UCHPHLyf59xW7iVv575Z-1" vertex="1">
                    <mxGeometry x="720" y="740.5" width="30" height="20" as="geometry"/>
                </mxCell>
                <mxCell id="qRBt960VFtsyZ1Lze0pq-6" value="No" style="text;html=1;align=center;verticalAlign=middle;resizable=0;points=[];autosize=1;strokeColor=none;fillColor=none;" parent="UCHPHLyf59xW7iVv575Z-1" vertex="1">
                    <mxGeometry x="720" y="460" width="30" height="20" as="geometry"/>
                </mxCell>
                <mxCell id="qRBt960VFtsyZ1Lze0pq-7" value="Yes" style="text;html=1;align=center;verticalAlign=middle;resizable=0;points=[];autosize=1;strokeColor=none;fillColor=none;" parent="UCHPHLyf59xW7iVv575Z-1" vertex="1">
                    <mxGeometry x="315" y="240" width="40" height="20" as="geometry"/>
                </mxCell>
                <mxCell id="qRBt960VFtsyZ1Lze0pq-8" value="Yes" style="text;html=1;align=center;verticalAlign=middle;resizable=0;points=[];autosize=1;strokeColor=none;fillColor=none;" parent="UCHPHLyf59xW7iVv575Z-1" vertex="1">
                    <mxGeometry x="310" y="390" width="40" height="20" as="geometry"/>
                </mxCell>
                <mxCell id="qRBt960VFtsyZ1Lze0pq-9" value="Yes" style="text;html=1;align=center;verticalAlign=middle;resizable=0;points=[];autosize=1;strokeColor=none;fillColor=none;" parent="UCHPHLyf59xW7iVv575Z-1" vertex="1">
                    <mxGeometry x="305" y="541" width="40" height="20" as="geometry"/>
                </mxCell>
                <mxCell id="qRBt960VFtsyZ1Lze0pq-10" value="Yes" style="text;html=1;align=center;verticalAlign=middle;resizable=0;points=[];autosize=1;strokeColor=none;fillColor=none;" parent="UCHPHLyf59xW7iVv575Z-1" vertex="1">
                    <mxGeometry x="305" y="680" width="40" height="20" as="geometry"/>
                </mxCell>
                <mxCell id="qRBt960VFtsyZ1Lze0pq-11" value="Yes" style="text;html=1;align=center;verticalAlign=middle;resizable=0;points=[];autosize=1;strokeColor=none;fillColor=none;" parent="UCHPHLyf59xW7iVv575Z-1" vertex="1">
                    <mxGeometry x="757" y="390" width="40" height="20" as="geometry"/>
                </mxCell>
                <mxCell id="qRBt960VFtsyZ1Lze0pq-12" value="Yes" style="text;html=1;align=center;verticalAlign=middle;resizable=0;points=[];autosize=1;strokeColor=none;fillColor=none;" parent="UCHPHLyf59xW7iVv575Z-1" vertex="1">
                    <mxGeometry x="757" y="680" width="40" height="20" as="geometry"/>
                </mxCell>
                <mxCell id="qRBt960VFtsyZ1Lze0pq-13" value="Yes" style="text;html=1;align=center;verticalAlign=middle;resizable=0;points=[];autosize=1;strokeColor=none;fillColor=none;" parent="UCHPHLyf59xW7iVv575Z-1" vertex="1">
                    <mxGeometry x="1075" y="379" width="40" height="20" as="geometry"/>
                </mxCell>
                <mxCell id="qRBt960VFtsyZ1Lze0pq-14" value="Yes" style="text;html=1;align=center;verticalAlign=middle;resizable=0;points=[];autosize=1;strokeColor=none;fillColor=none;" parent="UCHPHLyf59xW7iVv575Z-1" vertex="1">
                    <mxGeometry x="1075" y="519" width="40" height="20" as="geometry"/>
                </mxCell>
                <mxCell id="qRBt960VFtsyZ1Lze0pq-15" value="Yes" style="text;html=1;align=center;verticalAlign=middle;resizable=0;points=[];autosize=1;strokeColor=none;fillColor=none;" parent="UCHPHLyf59xW7iVv575Z-1" vertex="1">
                    <mxGeometry x="1075" y="659" width="40" height="20" as="geometry"/>
                </mxCell>
                <mxCell id="qRBt960VFtsyZ1Lze0pq-16" value="Yes" style="text;html=1;align=center;verticalAlign=middle;resizable=0;points=[];autosize=1;strokeColor=none;fillColor=none;" parent="UCHPHLyf59xW7iVv575Z-1" vertex="1">
                    <mxGeometry x="1962.5" y="325.5" width="40" height="20" as="geometry"/>
                </mxCell>
                <mxCell id="qRBt960VFtsyZ1Lze0pq-17" value="Yes" style="text;html=1;align=center;verticalAlign=middle;resizable=0;points=[];autosize=1;strokeColor=none;fillColor=none;" parent="UCHPHLyf59xW7iVv575Z-1" vertex="1">
                    <mxGeometry x="1962.5" y="465" width="40" height="20" as="geometry"/>
                </mxCell>
                <mxCell id="qRBt960VFtsyZ1Lze0pq-18" value="Yes" style="text;html=1;align=center;verticalAlign=middle;resizable=0;points=[];autosize=1;strokeColor=none;fillColor=none;" parent="UCHPHLyf59xW7iVv575Z-1" vertex="1">
                    <mxGeometry x="1962.5" y="605" width="40" height="20" as="geometry"/>
                </mxCell>
                <mxCell id="qRBt960VFtsyZ1Lze0pq-19" value="Yes" style="text;html=1;align=center;verticalAlign=middle;resizable=0;points=[];autosize=1;strokeColor=none;fillColor=none;" parent="UCHPHLyf59xW7iVv575Z-1" vertex="1">
                    <mxGeometry x="1983" y="725" width="40" height="20" as="geometry"/>
                </mxCell>
                <mxCell id="qRBt960VFtsyZ1Lze0pq-20" value="Yes" style="text;html=1;align=center;verticalAlign=middle;resizable=0;points=[];autosize=1;strokeColor=none;fillColor=none;" parent="UCHPHLyf59xW7iVv575Z-1" vertex="1">
                    <mxGeometry x="2338.5" y="465" width="40" height="20" as="geometry"/>
                </mxCell>
                <mxCell id="qRBt960VFtsyZ1Lze0pq-21" value="Yes" style="text;html=1;align=center;verticalAlign=middle;resizable=0;points=[];autosize=1;strokeColor=none;fillColor=none;" parent="UCHPHLyf59xW7iVv575Z-1" vertex="1">
                    <mxGeometry x="1516" y="379" width="40" height="20" as="geometry"/>
                </mxCell>
                <mxCell id="qRBt960VFtsyZ1Lze0pq-22" value="No" style="text;html=1;align=center;verticalAlign=middle;resizable=0;points=[];autosize=1;strokeColor=none;fillColor=none;" parent="UCHPHLyf59xW7iVv575Z-1" vertex="1">
                    <mxGeometry x="1034.5" y="729.5" width="30" height="20" as="geometry"/>
                </mxCell>
                <mxCell id="qRBt960VFtsyZ1Lze0pq-23" value="No" style="text;html=1;align=center;verticalAlign=middle;resizable=0;points=[];autosize=1;strokeColor=none;fillColor=none;" parent="UCHPHLyf59xW7iVv575Z-1" vertex="1">
                    <mxGeometry x="1034.5" y="595.5" width="30" height="20" as="geometry"/>
                </mxCell>
                <mxCell id="qRBt960VFtsyZ1Lze0pq-24" value="No" style="text;html=1;align=center;verticalAlign=middle;resizable=0;points=[];autosize=1;strokeColor=none;fillColor=none;" parent="UCHPHLyf59xW7iVv575Z-1" vertex="1">
                    <mxGeometry x="1034.5" y="449" width="30" height="20" as="geometry"/>
                </mxCell>
                <mxCell id="qRBt960VFtsyZ1Lze0pq-25" value="No" style="text;html=1;align=center;verticalAlign=middle;resizable=0;points=[];autosize=1;strokeColor=none;fillColor=none;" parent="UCHPHLyf59xW7iVv575Z-1" vertex="1">
                    <mxGeometry x="1486" y="449" width="30" height="20" as="geometry"/>
                </mxCell>
                <mxCell id="qRBt960VFtsyZ1Lze0pq-26" value="No" style="text;html=1;align=center;verticalAlign=middle;resizable=0;points=[];autosize=1;strokeColor=none;fillColor=none;" parent="UCHPHLyf59xW7iVv575Z-1" vertex="1">
                    <mxGeometry x="1922" y="405" width="30" height="20" as="geometry"/>
                </mxCell>
                <mxCell id="qRBt960VFtsyZ1Lze0pq-27" value="No" style="text;html=1;align=center;verticalAlign=middle;resizable=0;points=[];autosize=1;strokeColor=none;fillColor=none;" parent="UCHPHLyf59xW7iVv575Z-1" vertex="1">
                    <mxGeometry x="1922" y="535.5" width="30" height="20" as="geometry"/>
                </mxCell>
                <mxCell id="qRBt960VFtsyZ1Lze0pq-28" value="No" style="text;html=1;align=center;verticalAlign=middle;resizable=0;points=[];autosize=1;strokeColor=none;fillColor=none;" parent="UCHPHLyf59xW7iVv575Z-1" vertex="1">
                    <mxGeometry x="1922" y="674.5" width="30" height="20" as="geometry"/>
                </mxCell>
                <mxCell id="qRBt960VFtsyZ1Lze0pq-29" value="No" style="text;html=1;align=center;verticalAlign=middle;resizable=0;points=[];autosize=1;strokeColor=none;fillColor=none;" parent="UCHPHLyf59xW7iVv575Z-1" vertex="1">
                    <mxGeometry x="1922" y="795" width="30" height="20" as="geometry"/>
                </mxCell>
                <mxCell id="qRBt960VFtsyZ1Lze0pq-30" value="No" style="text;html=1;align=center;verticalAlign=middle;resizable=0;points=[];autosize=1;strokeColor=none;fillColor=none;" parent="UCHPHLyf59xW7iVv575Z-1" vertex="1">
                    <mxGeometry x="2308.5" y="535.5" width="30" height="20" as="geometry"/>
                </mxCell>
            </root>
        </mxGraphModel>
    </diagram>
    <diagram id="UFyksp1Puy4pa6nrN7dT" name="(A-3) Employee Page">
        <mxGraphModel dx="878" dy="648" grid="1" gridSize="10" guides="1" tooltips="1" connect="1" arrows="1" fold="1" page="1" pageScale="1" pageWidth="850" pageHeight="1100" math="0" shadow="0">
            <root>
                <mxCell id="U0mwcTU7ROTM8FxFhIf1-0"/>
                <mxCell id="U0mwcTU7ROTM8FxFhIf1-1" parent="U0mwcTU7ROTM8FxFhIf1-0"/>
                <mxCell id="Nm9kXYBS-zBkvYyJn91h-3" style="edgeStyle=none;html=1;exitX=0.5;exitY=1;exitDx=0;exitDy=0;entryX=0.5;entryY=0;entryDx=0;entryDy=0;" parent="U0mwcTU7ROTM8FxFhIf1-1" source="gisD0PK4ANFsElNjyrHv-1" target="gisD0PK4ANFsElNjyrHv-7" edge="1">
                    <mxGeometry relative="1" as="geometry"/>
                </mxCell>
                <mxCell id="Nm9kXYBS-zBkvYyJn91h-5" style="edgeStyle=none;html=1;exitX=1;exitY=0.5;exitDx=0;exitDy=0;entryX=0;entryY=0.5;entryDx=0;entryDy=0;" parent="U0mwcTU7ROTM8FxFhIf1-1" source="gisD0PK4ANFsElNjyrHv-1" target="gisD0PK4ANFsElNjyrHv-6" edge="1">
                    <mxGeometry relative="1" as="geometry"/>
                </mxCell>
                <mxCell id="gisD0PK4ANFsElNjyrHv-1" value="permissionLvl == 2" style="rhombus;whiteSpace=wrap;html=1;" parent="U0mwcTU7ROTM8FxFhIf1-1" vertex="1">
                    <mxGeometry x="45" y="215" width="135" height="80" as="geometry"/>
                </mxCell>
                <mxCell id="Nm9kXYBS-zBkvYyJn91h-15" style="edgeStyle=none;html=1;exitX=1;exitY=0.5;exitDx=0;exitDy=0;entryX=0;entryY=0.5;entryDx=0;entryDy=0;" parent="U0mwcTU7ROTM8FxFhIf1-1" source="gisD0PK4ANFsElNjyrHv-3" target="vhvtqmWLa4qeRRumFHa--0" edge="1">
                    <mxGeometry relative="1" as="geometry"/>
                </mxCell>
                <mxCell id="Nm9kXYBS-zBkvYyJn91h-18" style="edgeStyle=none;html=1;exitX=0.5;exitY=1;exitDx=0;exitDy=0;" parent="U0mwcTU7ROTM8FxFhIf1-1" source="gisD0PK4ANFsElNjyrHv-3" target="RO41MzAKXT9IC6yNhvMX-5" edge="1">
                    <mxGeometry relative="1" as="geometry"/>
                </mxCell>
                <mxCell id="gisD0PK4ANFsElNjyrHv-3" value="Add employee?" style="rhombus;whiteSpace=wrap;html=1;" parent="U0mwcTU7ROTM8FxFhIf1-1" vertex="1">
                    <mxGeometry x="370" y="210" width="112" height="90" as="geometry"/>
                </mxCell>
                <mxCell id="Nm9kXYBS-zBkvYyJn91h-6" style="edgeStyle=none;html=1;exitX=1;exitY=0.5;exitDx=0;exitDy=0;entryX=0;entryY=0.5;entryDx=0;entryDy=0;" parent="U0mwcTU7ROTM8FxFhIf1-1" source="gisD0PK4ANFsElNjyrHv-6" target="gisD0PK4ANFsElNjyrHv-3" edge="1">
                    <mxGeometry relative="1" as="geometry"/>
                </mxCell>
                <mxCell id="gisD0PK4ANFsElNjyrHv-6" value="Display emp page&lt;br&gt;(add and delete)" style="shape=parallelogram;perimeter=parallelogramPerimeter;whiteSpace=wrap;html=1;fixedSize=1;" parent="U0mwcTU7ROTM8FxFhIf1-1" vertex="1">
                    <mxGeometry x="210" y="225" width="130" height="60" as="geometry"/>
                </mxCell>
                <mxCell id="EUuNlBA1zlt916JBJnch-1" style="edgeStyle=none;html=1;exitX=0.5;exitY=1;exitDx=0;exitDy=0;" parent="U0mwcTU7ROTM8FxFhIf1-1" source="gisD0PK4ANFsElNjyrHv-7" target="RVXkeLR7MIAW8p5283C5-1" edge="1">
                    <mxGeometry relative="1" as="geometry"/>
                </mxCell>
                <mxCell id="gisD0PK4ANFsElNjyrHv-7" value="Display emp page" style="shape=parallelogram;perimeter=parallelogramPerimeter;whiteSpace=wrap;html=1;fixedSize=1;" parent="U0mwcTU7ROTM8FxFhIf1-1" vertex="1">
                    <mxGeometry x="52.5" y="365" width="120" height="60" as="geometry"/>
                </mxCell>
                <mxCell id="Nm9kXYBS-zBkvYyJn91h-17" style="edgeStyle=none;html=1;exitX=0.5;exitY=1;exitDx=0;exitDy=0;entryX=0.481;entryY=0.013;entryDx=0;entryDy=0;entryPerimeter=0;" parent="U0mwcTU7ROTM8FxFhIf1-1" source="vhvtqmWLa4qeRRumFHa--0" target="WJaFd4CuVXlbiZOs3Z0o-5" edge="1">
                    <mxGeometry relative="1" as="geometry">
                        <mxPoint x="600" y="375" as="targetPoint"/>
                    </mxGeometry>
                </mxCell>
                <mxCell id="EUuNlBA1zlt916JBJnch-3" style="edgeStyle=none;html=1;exitX=1;exitY=0.5;exitDx=0;exitDy=0;entryX=0;entryY=0.5;entryDx=0;entryDy=0;" parent="U0mwcTU7ROTM8FxFhIf1-1" source="vhvtqmWLa4qeRRumFHa--0" target="RVXkeLR7MIAW8p5283C5-0" edge="1">
                    <mxGeometry relative="1" as="geometry"/>
                </mxCell>
                <mxCell id="vhvtqmWLa4qeRRumFHa--0" value="Remove?" style="rhombus;whiteSpace=wrap;html=1;" parent="U0mwcTU7ROTM8FxFhIf1-1" vertex="1">
                    <mxGeometry x="544" y="210" width="112" height="90" as="geometry"/>
                </mxCell>
                <mxCell id="Nm9kXYBS-zBkvYyJn91h-22" style="edgeStyle=none;html=1;exitX=0.5;exitY=1;exitDx=0;exitDy=0;exitPerimeter=0;entryX=0.5;entryY=0;entryDx=0;entryDy=0;entryPerimeter=0;" parent="U0mwcTU7ROTM8FxFhIf1-1" source="RO41MzAKXT9IC6yNhvMX-1" target="RO41MzAKXT9IC6yNhvMX-2" edge="1">
                    <mxGeometry relative="1" as="geometry"/>
                </mxCell>
                <mxCell id="RO41MzAKXT9IC6yNhvMX-1" value="update&lt;br&gt;database" style="strokeWidth=2;html=1;shape=mxgraph.flowchart.database;whiteSpace=wrap;" parent="U0mwcTU7ROTM8FxFhIf1-1" vertex="1">
                    <mxGeometry x="396" y="625" width="60" height="90" as="geometry"/>
                </mxCell>
                <mxCell id="RO41MzAKXT9IC6yNhvMX-2" value="3" style="verticalLabelPosition=middle;verticalAlign=middle;html=1;shape=mxgraph.flowchart.on-page_reference;labelPosition=center;align=center;" parent="U0mwcTU7ROTM8FxFhIf1-1" vertex="1">
                    <mxGeometry x="406" y="775" width="40" height="40" as="geometry"/>
                </mxCell>
                <mxCell id="Nm9kXYBS-zBkvYyJn91h-21" style="edgeStyle=none;html=1;exitX=0.5;exitY=1;exitDx=0;exitDy=0;entryX=0.5;entryY=0;entryDx=0;entryDy=0;entryPerimeter=0;" parent="U0mwcTU7ROTM8FxFhIf1-1" source="RO41MzAKXT9IC6yNhvMX-4" target="RO41MzAKXT9IC6yNhvMX-1" edge="1">
                    <mxGeometry relative="1" as="geometry"/>
                </mxCell>
                <mxCell id="RO41MzAKXT9IC6yNhvMX-4" value="change account permissionLvl to 1" style="rounded=0;whiteSpace=wrap;html=1;" parent="U0mwcTU7ROTM8FxFhIf1-1" vertex="1">
                    <mxGeometry x="366" y="510" width="120" height="60" as="geometry"/>
                </mxCell>
                <mxCell id="Nm9kXYBS-zBkvYyJn91h-19" style="edgeStyle=none;html=1;exitX=0.5;exitY=1;exitDx=0;exitDy=0;entryX=0.5;entryY=0;entryDx=0;entryDy=0;" parent="U0mwcTU7ROTM8FxFhIf1-1" source="RO41MzAKXT9IC6yNhvMX-5" target="RO41MzAKXT9IC6yNhvMX-4" edge="1">
                    <mxGeometry relative="1" as="geometry"/>
                </mxCell>
                <mxCell id="RO41MzAKXT9IC6yNhvMX-5" value="enter email" style="shape=parallelogram;perimeter=parallelogramPerimeter;whiteSpace=wrap;html=1;fixedSize=1;" parent="U0mwcTU7ROTM8FxFhIf1-1" vertex="1">
                    <mxGeometry x="356" y="375" width="140" height="68" as="geometry"/>
                </mxCell>
                <mxCell id="Nm9kXYBS-zBkvYyJn91h-20" style="edgeStyle=none;html=1;exitX=0.485;exitY=1.013;exitDx=0;exitDy=0;entryX=0.5;entryY=0;entryDx=0;entryDy=0;exitPerimeter=0;" parent="U0mwcTU7ROTM8FxFhIf1-1" source="WJaFd4CuVXlbiZOs3Z0o-5" target="GSJB90dJ1rQ2Vd320AVA-4" edge="1">
                    <mxGeometry relative="1" as="geometry">
                        <mxPoint x="600" y="443" as="sourcePoint"/>
                    </mxGeometry>
                </mxCell>
                <mxCell id="Nm9kXYBS-zBkvYyJn91h-24" style="edgeStyle=none;html=1;exitX=0.5;exitY=1;exitDx=0;exitDy=0;exitPerimeter=0;entryX=0.5;entryY=0;entryDx=0;entryDy=0;entryPerimeter=0;" parent="U0mwcTU7ROTM8FxFhIf1-1" source="GSJB90dJ1rQ2Vd320AVA-1" target="GSJB90dJ1rQ2Vd320AVA-2" edge="1">
                    <mxGeometry relative="1" as="geometry"/>
                </mxCell>
                <mxCell id="GSJB90dJ1rQ2Vd320AVA-1" value="update&lt;br&gt;database" style="strokeWidth=2;html=1;shape=mxgraph.flowchart.database;whiteSpace=wrap;" parent="U0mwcTU7ROTM8FxFhIf1-1" vertex="1">
                    <mxGeometry x="570" y="625" width="60" height="90" as="geometry"/>
                </mxCell>
                <mxCell id="GSJB90dJ1rQ2Vd320AVA-2" value="3" style="verticalLabelPosition=middle;verticalAlign=middle;html=1;shape=mxgraph.flowchart.on-page_reference;labelPosition=center;align=center;" parent="U0mwcTU7ROTM8FxFhIf1-1" vertex="1">
                    <mxGeometry x="580" y="775" width="40" height="40" as="geometry"/>
                </mxCell>
                <mxCell id="Nm9kXYBS-zBkvYyJn91h-23" style="edgeStyle=none;html=1;exitX=0.5;exitY=1;exitDx=0;exitDy=0;entryX=0.5;entryY=0;entryDx=0;entryDy=0;entryPerimeter=0;" parent="U0mwcTU7ROTM8FxFhIf1-1" source="GSJB90dJ1rQ2Vd320AVA-4" target="GSJB90dJ1rQ2Vd320AVA-1" edge="1">
                    <mxGeometry relative="1" as="geometry"/>
                </mxCell>
                <mxCell id="GSJB90dJ1rQ2Vd320AVA-4" value="change account permissionLvl to 0" style="rounded=0;whiteSpace=wrap;html=1;" parent="U0mwcTU7ROTM8FxFhIf1-1" vertex="1">
                    <mxGeometry x="540" y="510" width="120" height="60" as="geometry"/>
                </mxCell>
                <mxCell id="Nm9kXYBS-zBkvYyJn91h-2" style="edgeStyle=none;html=1;exitX=1;exitY=0.5;exitDx=0;exitDy=0;exitPerimeter=0;" parent="U0mwcTU7ROTM8FxFhIf1-1" source="gisD0PK4ANFsElNjyrHv-8" edge="1">
                    <mxGeometry relative="1" as="geometry">
                        <mxPoint x="110" y="70.11111111111109" as="targetPoint"/>
                    </mxGeometry>
                </mxCell>
                <mxCell id="gisD0PK4ANFsElNjyrHv-8" value="3" style="verticalLabelPosition=middle;verticalAlign=middle;html=1;shape=mxgraph.flowchart.on-page_reference;labelPosition=center;align=center;" parent="U0mwcTU7ROTM8FxFhIf1-1" vertex="1">
                    <mxGeometry x="5" y="50" width="40" height="40" as="geometry"/>
                </mxCell>
                <mxCell id="EUuNlBA1zlt916JBJnch-4" style="edgeStyle=none;html=1;exitX=0.5;exitY=1;exitDx=0;exitDy=0;entryX=0.5;entryY=0;entryDx=0;entryDy=0;" parent="U0mwcTU7ROTM8FxFhIf1-1" source="RVXkeLR7MIAW8p5283C5-0" target="EUuNlBA1zlt916JBJnch-0" edge="1">
                    <mxGeometry relative="1" as="geometry"/>
                </mxCell>
                <mxCell id="RVXkeLR7MIAW8p5283C5-0" value="Leave" style="rounded=0;whiteSpace=wrap;html=1;" parent="U0mwcTU7ROTM8FxFhIf1-1" vertex="1">
                    <mxGeometry x="720" y="225" width="120" height="60" as="geometry"/>
                </mxCell>
                <mxCell id="EUuNlBA1zlt916JBJnch-2" style="edgeStyle=none;html=1;exitX=0.5;exitY=1;exitDx=0;exitDy=0;entryX=0.5;entryY=0;entryDx=0;entryDy=0;" parent="U0mwcTU7ROTM8FxFhIf1-1" source="RVXkeLR7MIAW8p5283C5-1" target="s_6Cm7FnblF4Hm7eZLiH-0" edge="1">
                    <mxGeometry relative="1" as="geometry"/>
                </mxCell>
                <mxCell id="RVXkeLR7MIAW8p5283C5-1" value="Leave" style="rounded=0;whiteSpace=wrap;html=1;" parent="U0mwcTU7ROTM8FxFhIf1-1" vertex="1">
                    <mxGeometry x="52.5" y="475" width="120" height="60" as="geometry"/>
                </mxCell>
                <mxCell id="s_6Cm7FnblF4Hm7eZLiH-0" value="A" style="verticalLabelPosition=middle;verticalAlign=middle;html=1;shape=offPageConnector;rounded=0;size=0.5;labelPosition=center;align=center;" parent="U0mwcTU7ROTM8FxFhIf1-1" vertex="1">
                    <mxGeometry x="87.5" y="605" width="50" height="40" as="geometry"/>
                </mxCell>
                <mxCell id="JwKqGm6JRN5MYhXXz4Pj-1" style="edgeStyle=none;html=1;exitX=0.5;exitY=1;exitDx=0;exitDy=0;entryX=0.5;entryY=0;entryDx=0;entryDy=0;" parent="U0mwcTU7ROTM8FxFhIf1-1" source="2nNpZ3cYDYnD6GbagTUU-0" target="JwKqGm6JRN5MYhXXz4Pj-0" edge="1">
                    <mxGeometry relative="1" as="geometry"/>
                </mxCell>
                <mxCell id="2nNpZ3cYDYnD6GbagTUU-0" value="A-3" style="verticalLabelPosition=middle;verticalAlign=middle;html=1;shape=offPageConnector;rounded=0;size=0.5;labelPosition=center;align=center;" parent="U0mwcTU7ROTM8FxFhIf1-1" vertex="1">
                    <mxGeometry x="87.5" y="10" width="50" height="40" as="geometry"/>
                </mxCell>
                <mxCell id="EUuNlBA1zlt916JBJnch-0" value="A" style="verticalLabelPosition=middle;verticalAlign=middle;html=1;shape=offPageConnector;rounded=0;size=0.5;labelPosition=center;align=center;" parent="U0mwcTU7ROTM8FxFhIf1-1" vertex="1">
                    <mxGeometry x="755" y="389" width="50" height="40" as="geometry"/>
                </mxCell>
                <mxCell id="WJaFd4CuVXlbiZOs3Z0o-0" value="false" style="text;html=1;align=center;verticalAlign=middle;resizable=0;points=[];autosize=1;strokeColor=none;fillColor=none;" parent="U0mwcTU7ROTM8FxFhIf1-1" vertex="1">
                    <mxGeometry x="110" y="315" width="40" height="20" as="geometry"/>
                </mxCell>
                <mxCell id="WJaFd4CuVXlbiZOs3Z0o-1" value="No" style="text;html=1;align=center;verticalAlign=middle;resizable=0;points=[];autosize=1;strokeColor=none;fillColor=none;" parent="U0mwcTU7ROTM8FxFhIf1-1" vertex="1">
                    <mxGeometry x="496" y="235" width="30" height="20" as="geometry"/>
                </mxCell>
                <mxCell id="WJaFd4CuVXlbiZOs3Z0o-2" value="No" style="text;html=1;align=center;verticalAlign=middle;resizable=0;points=[];autosize=1;strokeColor=none;fillColor=none;" parent="U0mwcTU7ROTM8FxFhIf1-1" vertex="1">
                    <mxGeometry x="670" y="235" width="30" height="20" as="geometry"/>
                </mxCell>
                <mxCell id="WJaFd4CuVXlbiZOs3Z0o-3" value="true" style="text;html=1;align=center;verticalAlign=middle;resizable=0;points=[];autosize=1;strokeColor=none;fillColor=none;" parent="U0mwcTU7ROTM8FxFhIf1-1" vertex="1">
                    <mxGeometry x="175" y="235" width="40" height="20" as="geometry"/>
                </mxCell>
                <mxCell id="WJaFd4CuVXlbiZOs3Z0o-4" value="Yes" style="text;html=1;align=center;verticalAlign=middle;resizable=0;points=[];autosize=1;strokeColor=none;fillColor=none;" parent="U0mwcTU7ROTM8FxFhIf1-1" vertex="1">
                    <mxGeometry x="425" y="325" width="40" height="20" as="geometry"/>
                </mxCell>
                <mxCell id="WJaFd4CuVXlbiZOs3Z0o-5" value="select email" style="rounded=0;whiteSpace=wrap;html=1;" parent="U0mwcTU7ROTM8FxFhIf1-1" vertex="1">
                    <mxGeometry x="542" y="379" width="120" height="60" as="geometry"/>
                </mxCell>
                <mxCell id="UpjniuU0PiHXRZWPXHEC-0" value="Yes" style="text;html=1;align=center;verticalAlign=middle;resizable=0;points=[];autosize=1;strokeColor=none;fillColor=none;" parent="U0mwcTU7ROTM8FxFhIf1-1" vertex="1">
                    <mxGeometry x="600" y="325" width="40" height="20" as="geometry"/>
                </mxCell>
                <mxCell id="JwKqGm6JRN5MYhXXz4Pj-2" style="edgeStyle=none;html=1;exitX=0.5;exitY=1;exitDx=0;exitDy=0;entryX=0.5;entryY=0;entryDx=0;entryDy=0;" parent="U0mwcTU7ROTM8FxFhIf1-1" source="JwKqGm6JRN5MYhXXz4Pj-0" target="gisD0PK4ANFsElNjyrHv-1" edge="1">
                    <mxGeometry relative="1" as="geometry"/>
                </mxCell>
                <mxCell id="JwKqGm6JRN5MYhXXz4Pj-0" value="Display&amp;nbsp;&lt;br&gt;Employee Page" style="shape=parallelogram;html=1;strokeWidth=2;perimeter=parallelogramPerimeter;whiteSpace=wrap;rounded=1;arcSize=12;size=0.23;" parent="U0mwcTU7ROTM8FxFhIf1-1" vertex="1">
                    <mxGeometry x="37.5" y="110" width="150" height="60" as="geometry"/>
                </mxCell>
            </root>
        </mxGraphModel>
    </diagram>
    <diagram name="(A-4) Account Settings Page" id="eLmD375vfyD31Z7y1XG_">
        <mxGraphModel dx="1398" dy="1021" grid="1" gridSize="10" guides="1" tooltips="1" connect="1" arrows="1" fold="1" page="1" pageScale="1" pageWidth="850" pageHeight="1100" math="0" shadow="0">
            <root>
                <mxCell id="tNhhmjE5Nya7scIBdgY9-0"/>
                <mxCell id="tNhhmjE5Nya7scIBdgY9-1" parent="tNhhmjE5Nya7scIBdgY9-0"/>
                <mxCell id="tNhhmjE5Nya7scIBdgY9-2" style="edgeStyle=none;html=1;exitX=0.5;exitY=1;exitDx=0;exitDy=0;entryX=0.5;entryY=0;entryDx=0;entryDy=0;" parent="tNhhmjE5Nya7scIBdgY9-1" source="tNhhmjE5Nya7scIBdgY9-3" target="tNhhmjE5Nya7scIBdgY9-8" edge="1">
                    <mxGeometry relative="1" as="geometry"/>
                </mxCell>
                <mxCell id="tNhhmjE5Nya7scIBdgY9-3" value="A-4" style="verticalLabelPosition=middle;verticalAlign=middle;html=1;shape=offPageConnector;rounded=0;size=0.5;labelPosition=center;align=center;" parent="tNhhmjE5Nya7scIBdgY9-1" vertex="1">
                    <mxGeometry x="99" y="30" width="38" height="40" as="geometry"/>
                </mxCell>
                <mxCell id="tNhhmjE5Nya7scIBdgY9-4" style="edgeStyle=none;html=1;exitX=1;exitY=0.5;exitDx=0;exitDy=0;entryX=0;entryY=0.5;entryDx=0;entryDy=0;" parent="tNhhmjE5Nya7scIBdgY9-1" source="tNhhmjE5Nya7scIBdgY9-6" target="tNhhmjE5Nya7scIBdgY9-10" edge="1">
                    <mxGeometry relative="1" as="geometry"/>
                </mxCell>
                <mxCell id="tNhhmjE5Nya7scIBdgY9-5" style="edgeStyle=none;html=1;exitX=0.5;exitY=1;exitDx=0;exitDy=0;entryX=0.5;entryY=0;entryDx=0;entryDy=0;" parent="tNhhmjE5Nya7scIBdgY9-1" source="tNhhmjE5Nya7scIBdgY9-6" target="8XFhEJrVXiiWo1Bx-YBE-13" edge="1">
                    <mxGeometry relative="1" as="geometry">
                        <mxPoint x="120" y="370" as="targetPoint"/>
                    </mxGeometry>
                </mxCell>
                <mxCell id="tNhhmjE5Nya7scIBdgY9-6" value="Edit Account Details?" style="rhombus;whiteSpace=wrap;html=1;" parent="tNhhmjE5Nya7scIBdgY9-1" vertex="1">
                    <mxGeometry x="40" y="200" width="160" height="80" as="geometry"/>
                </mxCell>
                <mxCell id="tNhhmjE5Nya7scIBdgY9-7" style="edgeStyle=none;html=1;exitX=0.5;exitY=1;exitDx=0;exitDy=0;" parent="tNhhmjE5Nya7scIBdgY9-1" source="tNhhmjE5Nya7scIBdgY9-8" target="tNhhmjE5Nya7scIBdgY9-6" edge="1">
                    <mxGeometry relative="1" as="geometry"/>
                </mxCell>
                <mxCell id="tNhhmjE5Nya7scIBdgY9-8" value="Display My Information Page" style="shape=parallelogram;perimeter=parallelogramPerimeter;whiteSpace=wrap;html=1;fixedSize=1;" parent="tNhhmjE5Nya7scIBdgY9-1" vertex="1">
                    <mxGeometry x="58" y="110" width="120" height="60" as="geometry"/>
                </mxCell>
                <mxCell id="tNhhmjE5Nya7scIBdgY9-9" style="edgeStyle=none;html=1;exitX=1;exitY=0.5;exitDx=0;exitDy=0;entryX=0;entryY=0.5;entryDx=0;entryDy=0;" parent="tNhhmjE5Nya7scIBdgY9-1" source="tNhhmjE5Nya7scIBdgY9-10" target="tNhhmjE5Nya7scIBdgY9-13" edge="1">
                    <mxGeometry relative="1" as="geometry"/>
                </mxCell>
                <mxCell id="tNhhmjE5Nya7scIBdgY9-10" value="Edit first name,&lt;br&gt;&amp;nbsp;Last name,&lt;br&gt;Contact #" style="shape=parallelogram;perimeter=parallelogramPerimeter;whiteSpace=wrap;html=1;fixedSize=1;" parent="tNhhmjE5Nya7scIBdgY9-1" vertex="1">
                    <mxGeometry x="290" y="200" width="191" height="80" as="geometry"/>
                </mxCell>
                <mxCell id="tNhhmjE5Nya7scIBdgY9-11" style="edgeStyle=none;html=1;exitX=1;exitY=0.5;exitDx=0;exitDy=0;entryX=0;entryY=0.5;entryDx=0;entryDy=0;entryPerimeter=0;" parent="tNhhmjE5Nya7scIBdgY9-1" source="tNhhmjE5Nya7scIBdgY9-13" target="tNhhmjE5Nya7scIBdgY9-18" edge="1">
                    <mxGeometry relative="1" as="geometry"/>
                </mxCell>
                <mxCell id="tNhhmjE5Nya7scIBdgY9-12" style="edgeStyle=none;html=1;exitX=0.5;exitY=1;exitDx=0;exitDy=0;entryX=0.5;entryY=0;entryDx=0;entryDy=0;" parent="tNhhmjE5Nya7scIBdgY9-1" source="tNhhmjE5Nya7scIBdgY9-13" target="tNhhmjE5Nya7scIBdgY9-26" edge="1">
                    <mxGeometry relative="1" as="geometry"/>
                </mxCell>
                <mxCell id="tNhhmjE5Nya7scIBdgY9-13" value="Confirm?" style="rhombus;whiteSpace=wrap;html=1;" parent="tNhhmjE5Nya7scIBdgY9-1" vertex="1">
                    <mxGeometry x="510" y="200" width="80" height="80" as="geometry"/>
                </mxCell>
                <mxCell id="tNhhmjE5Nya7scIBdgY9-17" style="edgeStyle=none;html=1;exitX=1;exitY=0.5;exitDx=0;exitDy=0;exitPerimeter=0;entryX=0;entryY=0.5;entryDx=0;entryDy=0;" parent="tNhhmjE5Nya7scIBdgY9-1" source="tNhhmjE5Nya7scIBdgY9-18" target="tNhhmjE5Nya7scIBdgY9-19" edge="1">
                    <mxGeometry relative="1" as="geometry"/>
                </mxCell>
                <mxCell id="tNhhmjE5Nya7scIBdgY9-18" value="Update&lt;br&gt;Database" style="shape=cylinder3;whiteSpace=wrap;html=1;boundedLbl=1;backgroundOutline=1;size=15;" parent="tNhhmjE5Nya7scIBdgY9-1" vertex="1">
                    <mxGeometry x="640" y="200" width="60" height="80" as="geometry"/>
                </mxCell>
                <mxCell id="tNhhmjE5Nya7scIBdgY9-19" value="4" style="ellipse;whiteSpace=wrap;html=1;aspect=fixed;" parent="tNhhmjE5Nya7scIBdgY9-1" vertex="1">
                    <mxGeometry x="750" y="220" width="40" height="40" as="geometry"/>
                </mxCell>
                <mxCell id="tNhhmjE5Nya7scIBdgY9-20" style="edgeStyle=none;html=1;exitX=1;exitY=0.5;exitDx=0;exitDy=0;" parent="tNhhmjE5Nya7scIBdgY9-1" source="tNhhmjE5Nya7scIBdgY9-21" edge="1">
                    <mxGeometry relative="1" as="geometry">
                        <mxPoint x="120" y="85" as="targetPoint"/>
                    </mxGeometry>
                </mxCell>
                <mxCell id="tNhhmjE5Nya7scIBdgY9-21" value="4" style="ellipse;whiteSpace=wrap;html=1;aspect=fixed;" parent="tNhhmjE5Nya7scIBdgY9-1" vertex="1">
                    <mxGeometry x="30" y="70" width="30" height="30" as="geometry"/>
                </mxCell>
                <mxCell id="tNhhmjE5Nya7scIBdgY9-22" value="Yes" style="text;html=1;align=center;verticalAlign=middle;resizable=0;points=[];autosize=1;strokeColor=none;fillColor=none;" parent="tNhhmjE5Nya7scIBdgY9-1" vertex="1">
                    <mxGeometry x="222.5" y="220" width="40" height="20" as="geometry"/>
                </mxCell>
                <mxCell id="tNhhmjE5Nya7scIBdgY9-23" value="No" style="text;html=1;align=center;verticalAlign=middle;resizable=0;points=[];autosize=1;strokeColor=none;fillColor=none;" parent="tNhhmjE5Nya7scIBdgY9-1" vertex="1">
                    <mxGeometry x="117" y="290" width="30" height="20" as="geometry"/>
                </mxCell>
                <mxCell id="tNhhmjE5Nya7scIBdgY9-24" value="No" style="text;html=1;align=center;verticalAlign=middle;resizable=0;points=[];autosize=1;strokeColor=none;fillColor=none;" parent="tNhhmjE5Nya7scIBdgY9-1" vertex="1">
                    <mxGeometry x="548" y="291" width="30" height="20" as="geometry"/>
                </mxCell>
                <mxCell id="tNhhmjE5Nya7scIBdgY9-25" value="Yes" style="text;html=1;align=center;verticalAlign=middle;resizable=0;points=[];autosize=1;strokeColor=none;fillColor=none;" parent="tNhhmjE5Nya7scIBdgY9-1" vertex="1">
                    <mxGeometry x="584" y="222" width="40" height="20" as="geometry"/>
                </mxCell>
                <mxCell id="tNhhmjE5Nya7scIBdgY9-26" value="4" style="ellipse;whiteSpace=wrap;html=1;aspect=fixed;" parent="tNhhmjE5Nya7scIBdgY9-1" vertex="1">
                    <mxGeometry x="530" y="330" width="40" height="40" as="geometry"/>
                </mxCell>
                <mxCell id="8XFhEJrVXiiWo1Bx-YBE-0" style="edgeStyle=none;html=1;exitX=0.5;exitY=1;exitDx=0;exitDy=0;exitPerimeter=0;entryX=0.5;entryY=0;entryDx=0;entryDy=0;entryPerimeter=0;" edge="1" parent="tNhhmjE5Nya7scIBdgY9-1" source="8XFhEJrVXiiWo1Bx-YBE-1" target="8XFhEJrVXiiWo1Bx-YBE-17">
                    <mxGeometry relative="1" as="geometry">
                        <mxPoint x="356" y="996" as="targetPoint"/>
                    </mxGeometry>
                </mxCell>
                <mxCell id="8XFhEJrVXiiWo1Bx-YBE-1" value="update&lt;br&gt;database" style="strokeWidth=2;html=1;shape=mxgraph.flowchart.database;whiteSpace=wrap;" vertex="1" parent="tNhhmjE5Nya7scIBdgY9-1">
                    <mxGeometry x="311" y="851" width="60" height="90" as="geometry"/>
                </mxCell>
                <mxCell id="8XFhEJrVXiiWo1Bx-YBE-2" style="edgeStyle=none;html=1;exitX=0.5;exitY=1;exitDx=0;exitDy=0;entryX=0.5;entryY=0;entryDx=0;entryDy=0;entryPerimeter=0;" edge="1" parent="tNhhmjE5Nya7scIBdgY9-1" source="8XFhEJrVXiiWo1Bx-YBE-3" target="8XFhEJrVXiiWo1Bx-YBE-1">
                    <mxGeometry relative="1" as="geometry"/>
                </mxCell>
                <mxCell id="8XFhEJrVXiiWo1Bx-YBE-3" value="Hash New Password" style="rounded=0;whiteSpace=wrap;html=1;" vertex="1" parent="tNhhmjE5Nya7scIBdgY9-1">
                    <mxGeometry x="281" y="726" width="120" height="60" as="geometry"/>
                </mxCell>
                <mxCell id="8XFhEJrVXiiWo1Bx-YBE-4" style="edgeStyle=none;html=1;exitX=0.5;exitY=1;exitDx=0;exitDy=0;entryX=0.5;entryY=0;entryDx=0;entryDy=0;" edge="1" parent="tNhhmjE5Nya7scIBdgY9-1" source="8XFhEJrVXiiWo1Bx-YBE-5" target="8XFhEJrVXiiWo1Bx-YBE-8">
                    <mxGeometry relative="1" as="geometry"/>
                </mxCell>
                <mxCell id="8XFhEJrVXiiWo1Bx-YBE-5" value="Input &lt;br&gt;Current Password,&lt;br&gt;New Password, and&amp;nbsp;&lt;br&gt;Confirm New Password" style="shape=parallelogram;perimeter=parallelogramPerimeter;whiteSpace=wrap;html=1;fixedSize=1;" vertex="1" parent="tNhhmjE5Nya7scIBdgY9-1">
                    <mxGeometry x="246" y="376" width="190" height="68" as="geometry"/>
                </mxCell>
                <mxCell id="8XFhEJrVXiiWo1Bx-YBE-6" style="edgeStyle=none;html=1;exitX=0.5;exitY=1;exitDx=0;exitDy=0;entryX=0.5;entryY=0;entryDx=0;entryDy=0;" edge="1" parent="tNhhmjE5Nya7scIBdgY9-1" source="8XFhEJrVXiiWo1Bx-YBE-8" target="8XFhEJrVXiiWo1Bx-YBE-3">
                    <mxGeometry relative="1" as="geometry"/>
                </mxCell>
                <mxCell id="8XFhEJrVXiiWo1Bx-YBE-7" style="edgeStyle=none;html=1;exitX=1;exitY=0.5;exitDx=0;exitDy=0;entryX=1;entryY=0.5;entryDx=0;entryDy=0;" edge="1" parent="tNhhmjE5Nya7scIBdgY9-1" source="8XFhEJrVXiiWo1Bx-YBE-8" target="8XFhEJrVXiiWo1Bx-YBE-5">
                    <mxGeometry relative="1" as="geometry">
                        <Array as="points">
                            <mxPoint x="546" y="601"/>
                            <mxPoint x="546" y="410"/>
                        </Array>
                    </mxGeometry>
                </mxCell>
                <mxCell id="8XFhEJrVXiiWo1Bx-YBE-8" value="new password ==&lt;br&gt;confirm new password" style="rhombus;whiteSpace=wrap;html=1;" vertex="1" parent="tNhhmjE5Nya7scIBdgY9-1">
                    <mxGeometry x="251" y="546" width="180" height="110" as="geometry"/>
                </mxCell>
                <mxCell id="8XFhEJrVXiiWo1Bx-YBE-9" value="true" style="text;html=1;align=center;verticalAlign=middle;resizable=0;points=[];autosize=1;strokeColor=none;fillColor=none;" vertex="1" parent="tNhhmjE5Nya7scIBdgY9-1">
                    <mxGeometry x="336" y="676" width="40" height="20" as="geometry"/>
                </mxCell>
                <mxCell id="8XFhEJrVXiiWo1Bx-YBE-10" value="false" style="text;html=1;align=center;verticalAlign=middle;resizable=0;points=[];autosize=1;strokeColor=none;fillColor=none;" vertex="1" parent="tNhhmjE5Nya7scIBdgY9-1">
                    <mxGeometry x="446" y="582" width="40" height="20" as="geometry"/>
                </mxCell>
                <mxCell id="8XFhEJrVXiiWo1Bx-YBE-11" style="edgeStyle=none;html=1;exitX=1;exitY=0.5;exitDx=0;exitDy=0;" edge="1" parent="tNhhmjE5Nya7scIBdgY9-1" source="8XFhEJrVXiiWo1Bx-YBE-13" target="8XFhEJrVXiiWo1Bx-YBE-5">
                    <mxGeometry relative="1" as="geometry"/>
                </mxCell>
                <mxCell id="8XFhEJrVXiiWo1Bx-YBE-12" style="edgeStyle=none;html=1;exitX=0.5;exitY=1;exitDx=0;exitDy=0;entryX=0.5;entryY=0;entryDx=0;entryDy=0;" edge="1" parent="tNhhmjE5Nya7scIBdgY9-1" source="8XFhEJrVXiiWo1Bx-YBE-13" target="8XFhEJrVXiiWo1Bx-YBE-15">
                    <mxGeometry relative="1" as="geometry"/>
                </mxCell>
                <mxCell id="8XFhEJrVXiiWo1Bx-YBE-13" value="Change Password?" style="rhombus;whiteSpace=wrap;html=1;" vertex="1" parent="tNhhmjE5Nya7scIBdgY9-1">
                    <mxGeometry x="73.5" y="370" width="95" height="80" as="geometry"/>
                </mxCell>
                <mxCell id="8XFhEJrVXiiWo1Bx-YBE-14" style="edgeStyle=none;html=1;exitX=0.5;exitY=1;exitDx=0;exitDy=0;entryX=0.5;entryY=0;entryDx=0;entryDy=0;" edge="1" parent="tNhhmjE5Nya7scIBdgY9-1" source="8XFhEJrVXiiWo1Bx-YBE-15" target="8XFhEJrVXiiWo1Bx-YBE-16">
                    <mxGeometry relative="1" as="geometry"/>
                </mxCell>
                <mxCell id="8XFhEJrVXiiWo1Bx-YBE-15" value="Leave" style="rounded=0;whiteSpace=wrap;html=1;" vertex="1" parent="tNhhmjE5Nya7scIBdgY9-1">
                    <mxGeometry x="81" y="506" width="80" height="60" as="geometry"/>
                </mxCell>
                <mxCell id="8XFhEJrVXiiWo1Bx-YBE-16" value="A" style="verticalLabelPosition=middle;verticalAlign=middle;html=1;shape=offPageConnector;rounded=0;size=0.5;labelPosition=center;align=center;" vertex="1" parent="tNhhmjE5Nya7scIBdgY9-1">
                    <mxGeometry x="96" y="626" width="50" height="40" as="geometry"/>
                </mxCell>
                <mxCell id="8XFhEJrVXiiWo1Bx-YBE-17" value="4" style="verticalLabelPosition=middle;verticalAlign=middle;html=1;shape=mxgraph.flowchart.on-page_reference;labelPosition=center;align=center;" vertex="1" parent="tNhhmjE5Nya7scIBdgY9-1">
                    <mxGeometry x="321" y="1016" width="40" height="40" as="geometry"/>
                </mxCell>
                <mxCell id="8XFhEJrVXiiWo1Bx-YBE-18" value="no" style="text;html=1;align=center;verticalAlign=middle;resizable=0;points=[];autosize=1;strokeColor=none;fillColor=none;" vertex="1" parent="tNhhmjE5Nya7scIBdgY9-1">
                    <mxGeometry x="116" y="466" width="30" height="20" as="geometry"/>
                </mxCell>
                <mxCell id="8XFhEJrVXiiWo1Bx-YBE-19" value="yes" style="text;html=1;align=center;verticalAlign=middle;resizable=0;points=[];autosize=1;strokeColor=none;fillColor=none;" vertex="1" parent="tNhhmjE5Nya7scIBdgY9-1">
                    <mxGeometry x="186" y="386" width="30" height="20" as="geometry"/>
                </mxCell>
            </root>
        </mxGraphModel>
    </diagram>
    <diagram id="yRtaeN7vs3BYop_WDep4" name="(U) User Dashboard Page">
        <mxGraphModel dx="1118" dy="817" grid="1" gridSize="10" guides="1" tooltips="1" connect="1" arrows="1" fold="1" page="1" pageScale="1" pageWidth="850" pageHeight="1100" math="0" shadow="0">
            <root>
                <mxCell id="pqvNI8Tc9Di5fgZePmOA-0"/>
                <mxCell id="pqvNI8Tc9Di5fgZePmOA-1" parent="pqvNI8Tc9Di5fgZePmOA-0"/>
                <mxCell id="b2l1gy0XSWWXF9ooz_sH-0" value="U" style="verticalLabelPosition=middle;verticalAlign=middle;html=1;shape=offPageConnector;rounded=0;size=0.6666666666666666;fillColor=default;gradientColor=none;labelPosition=center;align=center;" parent="pqvNI8Tc9Di5fgZePmOA-1" vertex="1">
                    <mxGeometry x="105" y="30" width="60" height="60" as="geometry"/>
                </mxCell>
                <mxCell id="b2l1gy0XSWWXF9ooz_sH-1" value="" style="endArrow=classic;html=1;rounded=0;exitX=0.5;exitY=1;exitDx=0;exitDy=0;" parent="pqvNI8Tc9Di5fgZePmOA-1" source="b2l1gy0XSWWXF9ooz_sH-0" edge="1">
                    <mxGeometry width="50" height="50" relative="1" as="geometry">
                        <mxPoint x="115" y="140" as="sourcePoint"/>
                        <mxPoint x="135" y="140" as="targetPoint"/>
                    </mxGeometry>
                </mxCell>
                <mxCell id="b2l1gy0XSWWXF9ooz_sH-2" value="Book Now?" style="strokeWidth=2;html=1;shape=mxgraph.flowchart.decision;whiteSpace=wrap;fillColor=default;gradientColor=none;" parent="pqvNI8Tc9Di5fgZePmOA-1" vertex="1">
                    <mxGeometry x="85" y="380" width="100" height="100" as="geometry"/>
                </mxCell>
                <mxCell id="b2l1gy0XSWWXF9ooz_sH-5" style="edgeStyle=orthogonalEdgeStyle;rounded=0;orthogonalLoop=1;jettySize=auto;html=1;exitX=1;exitY=0.5;exitDx=0;exitDy=0;exitPerimeter=0;" parent="pqvNI8Tc9Di5fgZePmOA-1" source="b2l1gy0XSWWXF9ooz_sH-6" edge="1">
                    <mxGeometry relative="1" as="geometry">
                        <mxPoint x="265" y="600" as="targetPoint"/>
                    </mxGeometry>
                </mxCell>
                <mxCell id="b2l1gy0XSWWXF9ooz_sH-6" value="Account Settings?" style="strokeWidth=2;html=1;shape=mxgraph.flowchart.decision;whiteSpace=wrap;fillColor=default;gradientColor=none;" parent="pqvNI8Tc9Di5fgZePmOA-1" vertex="1">
                    <mxGeometry x="76.5" y="550" width="115" height="100" as="geometry"/>
                </mxCell>
                <mxCell id="b2l1gy0XSWWXF9ooz_sH-9" value="" style="endArrow=classic;html=1;rounded=0;entryX=0.5;entryY=0;entryDx=0;entryDy=0;entryPerimeter=0;exitX=0.5;exitY=1;exitDx=0;exitDy=0;exitPerimeter=0;" parent="pqvNI8Tc9Di5fgZePmOA-1" source="b2l1gy0XSWWXF9ooz_sH-2" target="b2l1gy0XSWWXF9ooz_sH-6" edge="1">
                    <mxGeometry width="50" height="50" relative="1" as="geometry">
                        <mxPoint x="135" y="650" as="sourcePoint"/>
                        <mxPoint x="135" y="704" as="targetPoint"/>
                    </mxGeometry>
                </mxCell>
                <mxCell id="b2l1gy0XSWWXF9ooz_sH-10" value="B" style="verticalLabelPosition=middle;verticalAlign=middle;html=1;shape=offPageConnector;rounded=0;size=0.5;labelPosition=center;align=center;" parent="pqvNI8Tc9Di5fgZePmOA-1" vertex="1">
                    <mxGeometry x="267" y="720" width="40" height="40" as="geometry"/>
                </mxCell>
                <mxCell id="b2l1gy0XSWWXF9ooz_sH-11" value="" style="endArrow=classic;html=1;rounded=0;entryX=0;entryY=0.5;entryDx=0;entryDy=0;exitX=1;exitY=0.5;exitDx=0;exitDy=0;" parent="pqvNI8Tc9Di5fgZePmOA-1" target="b2l1gy0XSWWXF9ooz_sH-10" edge="1">
                    <mxGeometry width="50" height="50" relative="1" as="geometry">
                        <mxPoint x="195" y="740" as="sourcePoint"/>
                        <mxPoint x="255" y="710" as="targetPoint"/>
                    </mxGeometry>
                </mxCell>
                <mxCell id="b2l1gy0XSWWXF9ooz_sH-12" value="" style="endArrow=classic;html=1;rounded=0;entryX=0.5;entryY=0;entryDx=0;entryDy=0;exitX=0.5;exitY=1;exitDx=0;exitDy=0;exitPerimeter=0;" parent="pqvNI8Tc9Di5fgZePmOA-1" source="b2l1gy0XSWWXF9ooz_sH-6" target="b2l1gy0XSWWXF9ooz_sH-13" edge="1">
                    <mxGeometry width="50" height="50" relative="1" as="geometry">
                        <mxPoint x="135" y="650" as="sourcePoint"/>
                        <mxPoint x="135" y="680" as="targetPoint"/>
                    </mxGeometry>
                </mxCell>
                <mxCell id="b2l1gy0XSWWXF9ooz_sH-13" value="Log out" style="rounded=0;whiteSpace=wrap;html=1;" parent="pqvNI8Tc9Di5fgZePmOA-1" vertex="1">
                    <mxGeometry x="75" y="710" width="120" height="60" as="geometry"/>
                </mxCell>
                <mxCell id="b2l1gy0XSWWXF9ooz_sH-14" style="edgeStyle=orthogonalEdgeStyle;rounded=0;orthogonalLoop=1;jettySize=auto;html=1;exitX=1;exitY=0.5;exitDx=0;exitDy=0;" parent="pqvNI8Tc9Di5fgZePmOA-1" source="b2l1gy0XSWWXF9ooz_sH-15" edge="1">
                    <mxGeometry relative="1" as="geometry">
                        <mxPoint x="415" y="600" as="targetPoint"/>
                    </mxGeometry>
                </mxCell>
                <mxCell id="b2l1gy0XSWWXF9ooz_sH-15" value="Account Settings Page" style="verticalLabelPosition=middle;verticalAlign=middle;html=1;shape=process;whiteSpace=wrap;rounded=1;size=0.14;arcSize=6;labelPosition=center;align=center;" parent="pqvNI8Tc9Di5fgZePmOA-1" vertex="1">
                    <mxGeometry x="265" y="570" width="100" height="60" as="geometry"/>
                </mxCell>
                <mxCell id="b2l1gy0XSWWXF9ooz_sH-16" value="U-2" style="verticalLabelPosition=middle;verticalAlign=middle;html=1;shape=offPageConnector;rounded=0;size=0.5;labelPosition=center;align=center;" parent="pqvNI8Tc9Di5fgZePmOA-1" vertex="1">
                    <mxGeometry x="415" y="585" width="40" height="40" as="geometry"/>
                </mxCell>
                <mxCell id="b2l1gy0XSWWXF9ooz_sH-22" value="" style="endArrow=classic;html=1;rounded=0;exitX=1;exitY=0.5;exitDx=0;exitDy=0;exitPerimeter=0;" parent="pqvNI8Tc9Di5fgZePmOA-1" source="b2l1gy0XSWWXF9ooz_sH-2" edge="1">
                    <mxGeometry width="50" height="50" relative="1" as="geometry">
                        <mxPoint x="195" y="460" as="sourcePoint"/>
                        <mxPoint x="265" y="430" as="targetPoint"/>
                    </mxGeometry>
                </mxCell>
                <mxCell id="b2l1gy0XSWWXF9ooz_sH-23" style="edgeStyle=orthogonalEdgeStyle;rounded=0;orthogonalLoop=1;jettySize=auto;html=1;exitX=1;exitY=0.5;exitDx=0;exitDy=0;entryX=0;entryY=0.5;entryDx=0;entryDy=0;" parent="pqvNI8Tc9Di5fgZePmOA-1" edge="1">
                    <mxGeometry relative="1" as="geometry">
                        <mxPoint x="363" y="430" as="sourcePoint"/>
                        <mxPoint x="411" y="430" as="targetPoint"/>
                    </mxGeometry>
                </mxCell>
                <mxCell id="b2l1gy0XSWWXF9ooz_sH-24" value="Book Now Page" style="verticalLabelPosition=middle;verticalAlign=middle;html=1;shape=process;whiteSpace=wrap;rounded=1;size=0.14;arcSize=6;labelPosition=center;align=center;" parent="pqvNI8Tc9Di5fgZePmOA-1" vertex="1">
                    <mxGeometry x="264" y="400" width="100" height="60" as="geometry"/>
                </mxCell>
                <mxCell id="b2l1gy0XSWWXF9ooz_sH-27" value="U-1" style="verticalLabelPosition=middle;verticalAlign=middle;html=1;shape=offPageConnector;rounded=0;size=0.5;labelPosition=center;align=center;" parent="pqvNI8Tc9Di5fgZePmOA-1" vertex="1">
                    <mxGeometry x="411" y="410" width="40" height="40" as="geometry"/>
                </mxCell>
                <mxCell id="b2l1gy0XSWWXF9ooz_sH-28" style="edgeStyle=none;html=1;exitX=0.5;exitY=1;exitDx=0;exitDy=0;entryX=0.5;entryY=0;entryDx=0;entryDy=0;entryPerimeter=0;" parent="pqvNI8Tc9Di5fgZePmOA-1" source="b2l1gy0XSWWXF9ooz_sH-29" target="b2l1gy0XSWWXF9ooz_sH-32" edge="1">
                    <mxGeometry relative="1" as="geometry"/>
                </mxCell>
                <mxCell id="b2l1gy0XSWWXF9ooz_sH-29" value="Display User&lt;br&gt;Dashboard Page" style="shape=parallelogram;html=1;strokeWidth=2;perimeter=parallelogramPerimeter;whiteSpace=wrap;rounded=1;arcSize=12;size=0.23;" parent="pqvNI8Tc9Di5fgZePmOA-1" vertex="1">
                    <mxGeometry x="60" y="140" width="150" height="60" as="geometry"/>
                </mxCell>
                <mxCell id="b2l1gy0XSWWXF9ooz_sH-30" style="edgeStyle=none;html=1;exitX=0.5;exitY=1;exitDx=0;exitDy=0;exitPerimeter=0;entryX=0.5;entryY=0;entryDx=0;entryDy=0;entryPerimeter=0;" parent="pqvNI8Tc9Di5fgZePmOA-1" source="b2l1gy0XSWWXF9ooz_sH-32" target="b2l1gy0XSWWXF9ooz_sH-2" edge="1">
                    <mxGeometry relative="1" as="geometry"/>
                </mxCell>
                <mxCell id="b2l1gy0XSWWXF9ooz_sH-31" style="edgeStyle=none;html=1;exitX=1;exitY=0.5;exitDx=0;exitDy=0;exitPerimeter=0;entryX=0;entryY=0.5;entryDx=0;entryDy=0;" parent="pqvNI8Tc9Di5fgZePmOA-1" source="b2l1gy0XSWWXF9ooz_sH-32" target="b2l1gy0XSWWXF9ooz_sH-36" edge="1">
                    <mxGeometry relative="1" as="geometry"/>
                </mxCell>
                <mxCell id="b2l1gy0XSWWXF9ooz_sH-32" value="Cancel &lt;br&gt;Booking?" style="strokeWidth=2;html=1;shape=mxgraph.flowchart.decision;whiteSpace=wrap;fillColor=default;gradientColor=none;" parent="pqvNI8Tc9Di5fgZePmOA-1" vertex="1">
                    <mxGeometry x="85" y="240" width="100" height="100" as="geometry"/>
                </mxCell>
                <mxCell id="b2l1gy0XSWWXF9ooz_sH-33" style="edgeStyle=orthogonalEdgeStyle;rounded=0;orthogonalLoop=1;jettySize=auto;html=1;exitX=1;exitY=0.5;exitDx=0;exitDy=0;exitPerimeter=0;entryX=1;entryY=0.5;entryDx=0;entryDy=0;" parent="pqvNI8Tc9Di5fgZePmOA-1" source="b2l1gy0XSWWXF9ooz_sH-34" target="b2l1gy0XSWWXF9ooz_sH-29" edge="1">
                    <mxGeometry relative="1" as="geometry">
                        <mxPoint x="135" y="100" as="targetPoint"/>
                        <Array as="points">
                            <mxPoint x="505" y="290"/>
                            <mxPoint x="505" y="170"/>
                        </Array>
                    </mxGeometry>
                </mxCell>
                <mxCell id="b2l1gy0XSWWXF9ooz_sH-34" value="update&lt;br&gt;database" style="strokeWidth=2;html=1;shape=mxgraph.flowchart.database;whiteSpace=wrap;" parent="pqvNI8Tc9Di5fgZePmOA-1" vertex="1">
                    <mxGeometry x="395" y="245" width="60" height="90" as="geometry"/>
                </mxCell>
                <mxCell id="b2l1gy0XSWWXF9ooz_sH-35" style="edgeStyle=none;html=1;exitX=1;exitY=0.5;exitDx=0;exitDy=0;entryX=0;entryY=0.5;entryDx=0;entryDy=0;entryPerimeter=0;" parent="pqvNI8Tc9Di5fgZePmOA-1" source="b2l1gy0XSWWXF9ooz_sH-36" target="b2l1gy0XSWWXF9ooz_sH-34" edge="1">
                    <mxGeometry relative="1" as="geometry"/>
                </mxCell>
                <mxCell id="b2l1gy0XSWWXF9ooz_sH-36" value="change record state to &quot;cancelled&quot;" style="rounded=0;whiteSpace=wrap;html=1;" parent="pqvNI8Tc9Di5fgZePmOA-1" vertex="1">
                    <mxGeometry x="227" y="260" width="120" height="60" as="geometry"/>
                </mxCell>
                <mxCell id="HeBRny-VC5eVTcryy_d1-1" value="No" style="text;html=1;align=center;verticalAlign=middle;resizable=0;points=[];autosize=1;strokeColor=none;fillColor=none;" parent="pqvNI8Tc9Di5fgZePmOA-1" vertex="1">
                    <mxGeometry x="131" y="204" width="30" height="20" as="geometry"/>
                </mxCell>
                <mxCell id="HeBRny-VC5eVTcryy_d1-2" value="Yes" style="text;html=1;align=center;verticalAlign=middle;resizable=0;points=[];autosize=1;strokeColor=none;fillColor=none;" parent="pqvNI8Tc9Di5fgZePmOA-1" vertex="1">
                    <mxGeometry x="180" y="272" width="40" height="20" as="geometry"/>
                </mxCell>
                <mxCell id="HeBRny-VC5eVTcryy_d1-3" value="No" style="text;html=1;align=center;verticalAlign=middle;resizable=0;points=[];autosize=1;strokeColor=none;fillColor=none;" parent="pqvNI8Tc9Di5fgZePmOA-1" vertex="1">
                    <mxGeometry x="131" y="346" width="30" height="20" as="geometry"/>
                </mxCell>
                <mxCell id="HeBRny-VC5eVTcryy_d1-4" value="Yes" style="text;html=1;align=center;verticalAlign=middle;resizable=0;points=[];autosize=1;strokeColor=none;fillColor=none;" parent="pqvNI8Tc9Di5fgZePmOA-1" vertex="1">
                    <mxGeometry x="190" y="410" width="40" height="20" as="geometry"/>
                </mxCell>
                <mxCell id="HeBRny-VC5eVTcryy_d1-7" value="No" style="text;html=1;align=center;verticalAlign=middle;resizable=0;points=[];autosize=1;strokeColor=none;fillColor=none;" parent="pqvNI8Tc9Di5fgZePmOA-1" vertex="1">
                    <mxGeometry x="135" y="500" width="30" height="20" as="geometry"/>
                </mxCell>
                <mxCell id="HeBRny-VC5eVTcryy_d1-8" value="Yes" style="text;html=1;align=center;verticalAlign=middle;resizable=0;points=[];autosize=1;strokeColor=none;fillColor=none;" parent="pqvNI8Tc9Di5fgZePmOA-1" vertex="1">
                    <mxGeometry x="192" y="580" width="40" height="20" as="geometry"/>
                </mxCell>
                <mxCell id="HeBRny-VC5eVTcryy_d1-9" value="No" style="text;html=1;align=center;verticalAlign=middle;resizable=0;points=[];autosize=1;strokeColor=none;fillColor=none;" parent="pqvNI8Tc9Di5fgZePmOA-1" vertex="1">
                    <mxGeometry x="131" y="664" width="30" height="20" as="geometry"/>
                </mxCell>
            </root>
        </mxGraphModel>
    </diagram>
    <diagram id="uI0D9fJd4eGI-w09qrT1" name="(U-1) Book Now Page">
        <mxGraphModel dx="878" dy="648" grid="1" gridSize="10" guides="1" tooltips="1" connect="1" arrows="1" fold="1" page="1" pageScale="1" pageWidth="850" pageHeight="1100" math="0" shadow="0">
            <root>
                <mxCell id="ZuqTdsKSS2Y-M2OfC0AO-0"/>
                <mxCell id="ZuqTdsKSS2Y-M2OfC0AO-1" parent="ZuqTdsKSS2Y-M2OfC0AO-0"/>
                <mxCell id="mfdIa-7nssZKVQxzcPYF-9" style="edgeStyle=none;html=1;exitX=0.5;exitY=1;exitDx=0;exitDy=0;" edge="1" parent="ZuqTdsKSS2Y-M2OfC0AO-1" source="mfdIa-7nssZKVQxzcPYF-0" target="U23aZQ1RBPAEfDCZzTgu-0">
                    <mxGeometry relative="1" as="geometry"/>
                </mxCell>
                <mxCell id="mfdIa-7nssZKVQxzcPYF-0" value="U-1" style="verticalLabelPosition=middle;verticalAlign=middle;html=1;shape=offPageConnector;rounded=0;size=0.5;labelPosition=center;align=center;" vertex="1" parent="ZuqTdsKSS2Y-M2OfC0AO-1">
                    <mxGeometry x="180" y="20" width="40" height="40" as="geometry"/>
                </mxCell>
                <mxCell id="mfdIa-7nssZKVQxzcPYF-11" style="edgeStyle=none;html=1;exitX=0.5;exitY=1;exitDx=0;exitDy=0;entryX=0.5;entryY=0;entryDx=0;entryDy=0;" edge="1" parent="ZuqTdsKSS2Y-M2OfC0AO-1" source="mfdIa-7nssZKVQxzcPYF-1" target="VWrsssaOB_chkq9KOcmQ-2">
                    <mxGeometry relative="1" as="geometry">
                        <mxPoint x="360" y="310" as="targetPoint"/>
                    </mxGeometry>
                </mxCell>
                <mxCell id="mfdIa-7nssZKVQxzcPYF-1" value="Select time, date, &lt;br&gt;service, and branch" style="shape=parallelogram;perimeter=parallelogramPerimeter;whiteSpace=wrap;html=1;fixedSize=1;" vertex="1" parent="ZuqTdsKSS2Y-M2OfC0AO-1">
                    <mxGeometry x="285" y="210" width="150" height="60" as="geometry"/>
                </mxCell>
                <mxCell id="mfdIa-7nssZKVQxzcPYF-10" style="edgeStyle=none;html=1;exitX=0.5;exitY=1;exitDx=0;exitDy=0;entryX=0.5;entryY=0;entryDx=0;entryDy=0;" edge="1" parent="ZuqTdsKSS2Y-M2OfC0AO-1" source="U23aZQ1RBPAEfDCZzTgu-0" target="3gbkJR_SQjS0OEHlB-Nq-1">
                    <mxGeometry relative="1" as="geometry"/>
                </mxCell>
                <mxCell id="U23aZQ1RBPAEfDCZzTgu-0" value="Display Book &lt;br&gt;Now Page" style="shape=parallelogram;perimeter=parallelogramPerimeter;whiteSpace=wrap;html=1;fixedSize=1;" vertex="1" parent="ZuqTdsKSS2Y-M2OfC0AO-1">
                    <mxGeometry x="140" y="80" width="120" height="60" as="geometry"/>
                </mxCell>
                <mxCell id="mfdIa-7nssZKVQxzcPYF-14" style="edgeStyle=none;html=1;exitX=1;exitY=0.5;exitDx=0;exitDy=0;" edge="1" parent="ZuqTdsKSS2Y-M2OfC0AO-1" source="mfdIa-7nssZKVQxzcPYF-6" target="mfdIa-7nssZKVQxzcPYF-7">
                    <mxGeometry relative="1" as="geometry"/>
                </mxCell>
                <mxCell id="mfdIa-7nssZKVQxzcPYF-6" value="Book Now" style="rounded=0;whiteSpace=wrap;html=1;" vertex="1" parent="ZuqTdsKSS2Y-M2OfC0AO-1">
                    <mxGeometry x="440" y="350" width="120" height="60" as="geometry"/>
                </mxCell>
                <mxCell id="mfdIa-7nssZKVQxzcPYF-15" style="edgeStyle=none;html=1;exitX=1;exitY=0.5;exitDx=0;exitDy=0;exitPerimeter=0;entryX=0;entryY=0.5;entryDx=0;entryDy=0;" edge="1" parent="ZuqTdsKSS2Y-M2OfC0AO-1" source="mfdIa-7nssZKVQxzcPYF-7" target="mfdIa-7nssZKVQxzcPYF-8">
                    <mxGeometry relative="1" as="geometry"/>
                </mxCell>
                <mxCell id="mfdIa-7nssZKVQxzcPYF-7" value="Insert to&lt;br&gt;database" style="shape=cylinder3;whiteSpace=wrap;html=1;boundedLbl=1;backgroundOutline=1;size=15;" vertex="1" parent="ZuqTdsKSS2Y-M2OfC0AO-1">
                    <mxGeometry x="630" y="340" width="60" height="80" as="geometry"/>
                </mxCell>
                <mxCell id="mfdIa-7nssZKVQxzcPYF-8" value="U" style="verticalLabelPosition=middle;verticalAlign=middle;html=1;shape=offPageConnector;rounded=0;size=0.5;labelPosition=center;align=center;" vertex="1" parent="ZuqTdsKSS2Y-M2OfC0AO-1">
                    <mxGeometry x="750" y="360" width="40" height="40" as="geometry"/>
                </mxCell>
                <mxCell id="3gbkJR_SQjS0OEHlB-Nq-2" style="edgeStyle=none;html=1;exitX=1;exitY=0.5;exitDx=0;exitDy=0;entryX=0;entryY=0.5;entryDx=0;entryDy=0;" edge="1" parent="ZuqTdsKSS2Y-M2OfC0AO-1" source="3gbkJR_SQjS0OEHlB-Nq-1" target="mfdIa-7nssZKVQxzcPYF-1">
                    <mxGeometry relative="1" as="geometry"/>
                </mxCell>
                <mxCell id="02zwe-5ZbqE16NonWRUA-0" style="edgeStyle=none;html=1;exitX=0.5;exitY=1;exitDx=0;exitDy=0;" edge="1" parent="ZuqTdsKSS2Y-M2OfC0AO-1" source="3gbkJR_SQjS0OEHlB-Nq-1">
                    <mxGeometry relative="1" as="geometry">
                        <mxPoint x="200" y="360" as="targetPoint"/>
                    </mxGeometry>
                </mxCell>
                <mxCell id="3gbkJR_SQjS0OEHlB-Nq-1" value="Book Now?" style="rhombus;whiteSpace=wrap;html=1;" vertex="1" parent="ZuqTdsKSS2Y-M2OfC0AO-1">
                    <mxGeometry x="160" y="200" width="80" height="80" as="geometry"/>
                </mxCell>
                <mxCell id="02zwe-5ZbqE16NonWRUA-4" style="edgeStyle=none;html=1;exitX=1;exitY=0.5;exitDx=0;exitDy=0;exitPerimeter=0;" edge="1" parent="ZuqTdsKSS2Y-M2OfC0AO-1" source="VWrsssaOB_chkq9KOcmQ-0">
                    <mxGeometry relative="1" as="geometry">
                        <mxPoint x="200" y="180" as="targetPoint"/>
                    </mxGeometry>
                </mxCell>
                <mxCell id="VWrsssaOB_chkq9KOcmQ-0" value="6" style="verticalLabelPosition=middle;verticalAlign=middle;html=1;shape=mxgraph.flowchart.on-page_reference;labelPosition=center;align=center;" vertex="1" parent="ZuqTdsKSS2Y-M2OfC0AO-1">
                    <mxGeometry x="80" y="160" width="39" height="40" as="geometry"/>
                </mxCell>
                <mxCell id="VWrsssaOB_chkq9KOcmQ-1" value="6" style="verticalLabelPosition=middle;verticalAlign=middle;html=1;shape=mxgraph.flowchart.on-page_reference;labelPosition=center;align=center;" vertex="1" parent="ZuqTdsKSS2Y-M2OfC0AO-1">
                    <mxGeometry x="340.5" y="482" width="39" height="40" as="geometry"/>
                </mxCell>
                <mxCell id="02zwe-5ZbqE16NonWRUA-5" style="edgeStyle=none;html=1;exitX=1;exitY=0.5;exitDx=0;exitDy=0;entryX=0;entryY=0.5;entryDx=0;entryDy=0;" edge="1" parent="ZuqTdsKSS2Y-M2OfC0AO-1" source="VWrsssaOB_chkq9KOcmQ-2" target="mfdIa-7nssZKVQxzcPYF-6">
                    <mxGeometry relative="1" as="geometry"/>
                </mxCell>
                <mxCell id="02zwe-5ZbqE16NonWRUA-6" style="edgeStyle=none;html=1;exitX=0.5;exitY=1;exitDx=0;exitDy=0;entryX=0.5;entryY=0;entryDx=0;entryDy=0;entryPerimeter=0;" edge="1" parent="ZuqTdsKSS2Y-M2OfC0AO-1" source="VWrsssaOB_chkq9KOcmQ-2" target="VWrsssaOB_chkq9KOcmQ-1">
                    <mxGeometry relative="1" as="geometry"/>
                </mxCell>
                <mxCell id="VWrsssaOB_chkq9KOcmQ-2" value="Submit?" style="rhombus;whiteSpace=wrap;html=1;" vertex="1" parent="ZuqTdsKSS2Y-M2OfC0AO-1">
                    <mxGeometry x="320" y="340" width="80" height="80" as="geometry"/>
                </mxCell>
                <mxCell id="02zwe-5ZbqE16NonWRUA-2" style="edgeStyle=none;html=1;exitX=0.5;exitY=1;exitDx=0;exitDy=0;" edge="1" parent="ZuqTdsKSS2Y-M2OfC0AO-1" source="02zwe-5ZbqE16NonWRUA-1">
                    <mxGeometry relative="1" as="geometry">
                        <mxPoint x="200" y="450" as="targetPoint"/>
                    </mxGeometry>
                </mxCell>
                <mxCell id="02zwe-5ZbqE16NonWRUA-1" value="Leave" style="rounded=0;whiteSpace=wrap;html=1;" vertex="1" parent="ZuqTdsKSS2Y-M2OfC0AO-1">
                    <mxGeometry x="145" y="360" width="110" height="30" as="geometry"/>
                </mxCell>
                <mxCell id="02zwe-5ZbqE16NonWRUA-3" value="U" style="verticalLabelPosition=middle;verticalAlign=middle;html=1;shape=offPageConnector;rounded=0;size=0.5;labelPosition=center;align=center;" vertex="1" parent="ZuqTdsKSS2Y-M2OfC0AO-1">
                    <mxGeometry x="180" y="450" width="40" height="40" as="geometry"/>
                </mxCell>
                <mxCell id="xK_CtTC8r9QTXmYZWsKo-0" value="Yes" style="text;html=1;align=center;verticalAlign=middle;resizable=0;points=[];autosize=1;strokeColor=none;fillColor=none;" vertex="1" parent="ZuqTdsKSS2Y-M2OfC0AO-1">
                    <mxGeometry x="890" y="510" width="40" height="20" as="geometry"/>
                </mxCell>
                <mxCell id="xK_CtTC8r9QTXmYZWsKo-1" value="Yes" style="text;html=1;align=center;verticalAlign=middle;resizable=0;points=[];autosize=1;strokeColor=none;fillColor=none;" vertex="1" parent="ZuqTdsKSS2Y-M2OfC0AO-1">
                    <mxGeometry x="240" y="220" width="40" height="20" as="geometry"/>
                </mxCell>
                <mxCell id="xK_CtTC8r9QTXmYZWsKo-2" value="No" style="text;html=1;align=center;verticalAlign=middle;resizable=0;points=[];autosize=1;strokeColor=none;fillColor=none;" vertex="1" parent="ZuqTdsKSS2Y-M2OfC0AO-1">
                    <mxGeometry x="198" y="290" width="30" height="20" as="geometry"/>
                </mxCell>
                <mxCell id="xK_CtTC8r9QTXmYZWsKo-4" value="No" style="text;html=1;align=center;verticalAlign=middle;resizable=0;points=[];autosize=1;strokeColor=none;fillColor=none;" vertex="1" parent="ZuqTdsKSS2Y-M2OfC0AO-1">
                    <mxGeometry x="365" y="430" width="30" height="20" as="geometry"/>
                </mxCell>
                <mxCell id="xK_CtTC8r9QTXmYZWsKo-5" value="Yes" style="text;html=1;align=center;verticalAlign=middle;resizable=0;points=[];autosize=1;strokeColor=none;fillColor=none;" vertex="1" parent="ZuqTdsKSS2Y-M2OfC0AO-1">
                    <mxGeometry x="390" y="360" width="40" height="20" as="geometry"/>
                </mxCell>
            </root>
        </mxGraphModel>
    </diagram>
    <diagram id="olw1Cx-COB5ksTCOdjPO" name="(U-2) Account Settings Page">
        <mxGraphModel dx="1315" dy="961" grid="1" gridSize="10" guides="1" tooltips="1" connect="1" arrows="1" fold="1" page="1" pageScale="1" pageWidth="850" pageHeight="1100" math="0" shadow="0">
            <root>
                <mxCell id="ElLkuX0pzu4TTzHwkI-f-0"/>
                <mxCell id="ElLkuX0pzu4TTzHwkI-f-1" parent="ElLkuX0pzu4TTzHwkI-f-0"/>
                <mxCell id="BkNVRpBjyjJ8byR99qgg-0" style="edgeStyle=none;html=1;exitX=0.5;exitY=1;exitDx=0;exitDy=0;entryX=0.5;entryY=0;entryDx=0;entryDy=0;" parent="ElLkuX0pzu4TTzHwkI-f-1" source="HGEqPdAWs-GiL6pqpJPO-0" target="HGEqPdAWs-GiL6pqpJPO-2" edge="1">
                    <mxGeometry relative="1" as="geometry"/>
                </mxCell>
                <mxCell id="HGEqPdAWs-GiL6pqpJPO-0" value="U-2" style="verticalLabelPosition=middle;verticalAlign=middle;html=1;shape=offPageConnector;rounded=0;size=0.5;labelPosition=center;align=center;" parent="ElLkuX0pzu4TTzHwkI-f-1" vertex="1">
                    <mxGeometry x="99" y="10" width="38" height="40" as="geometry"/>
                </mxCell>
                <mxCell id="BkNVRpBjyjJ8byR99qgg-2" style="edgeStyle=none;html=1;exitX=1;exitY=0.5;exitDx=0;exitDy=0;entryX=0;entryY=0.5;entryDx=0;entryDy=0;" parent="ElLkuX0pzu4TTzHwkI-f-1" source="HGEqPdAWs-GiL6pqpJPO-1" target="R94KD36VV51frhEfyH_v-0" edge="1">
                    <mxGeometry relative="1" as="geometry"/>
                </mxCell>
                <mxCell id="BkNVRpBjyjJ8byR99qgg-7" style="edgeStyle=none;html=1;exitX=0.5;exitY=1;exitDx=0;exitDy=0;entryX=0.5;entryY=0;entryDx=0;entryDy=0;" parent="ElLkuX0pzu4TTzHwkI-f-1" source="HGEqPdAWs-GiL6pqpJPO-1" target="OOW7Hte-6IVxImxS7RY0-13" edge="1">
                    <mxGeometry relative="1" as="geometry">
                        <mxPoint x="120" y="370" as="targetPoint"/>
                    </mxGeometry>
                </mxCell>
                <mxCell id="HGEqPdAWs-GiL6pqpJPO-1" value="Edit Account Details?" style="rhombus;whiteSpace=wrap;html=1;" parent="ElLkuX0pzu4TTzHwkI-f-1" vertex="1">
                    <mxGeometry x="53.5" y="190" width="131.5" height="100" as="geometry"/>
                </mxCell>
                <mxCell id="BkNVRpBjyjJ8byR99qgg-1" style="edgeStyle=none;html=1;exitX=0.5;exitY=1;exitDx=0;exitDy=0;" parent="ElLkuX0pzu4TTzHwkI-f-1" source="HGEqPdAWs-GiL6pqpJPO-2" target="HGEqPdAWs-GiL6pqpJPO-1" edge="1">
                    <mxGeometry relative="1" as="geometry"/>
                </mxCell>
                <mxCell id="HGEqPdAWs-GiL6pqpJPO-2" value="Display Account Settings Page" style="shape=parallelogram;perimeter=parallelogramPerimeter;whiteSpace=wrap;html=1;fixedSize=1;" parent="ElLkuX0pzu4TTzHwkI-f-1" vertex="1">
                    <mxGeometry x="58" y="90" width="120" height="60" as="geometry"/>
                </mxCell>
                <mxCell id="BkNVRpBjyjJ8byR99qgg-3" style="edgeStyle=none;html=1;exitX=1;exitY=0.5;exitDx=0;exitDy=0;entryX=0;entryY=0.5;entryDx=0;entryDy=0;" parent="ElLkuX0pzu4TTzHwkI-f-1" source="R94KD36VV51frhEfyH_v-0" target="R94KD36VV51frhEfyH_v-1" edge="1">
                    <mxGeometry relative="1" as="geometry">
                        <mxPoint x="450" y="240" as="sourcePoint"/>
                    </mxGeometry>
                </mxCell>
                <mxCell id="R94KD36VV51frhEfyH_v-0" value="Edit first name,&lt;br&gt;&amp;nbsp;Last name,&lt;br&gt;Contact #" style="shape=parallelogram;perimeter=parallelogramPerimeter;whiteSpace=wrap;html=1;fixedSize=1;" parent="ElLkuX0pzu4TTzHwkI-f-1" vertex="1">
                    <mxGeometry x="230" y="200" width="191" height="80" as="geometry"/>
                </mxCell>
                <mxCell id="BkNVRpBjyjJ8byR99qgg-4" style="edgeStyle=none;html=1;exitX=1;exitY=0.5;exitDx=0;exitDy=0;entryX=0;entryY=0.5;entryDx=0;entryDy=0;entryPerimeter=0;" parent="ElLkuX0pzu4TTzHwkI-f-1" source="R94KD36VV51frhEfyH_v-1" target="R94KD36VV51frhEfyH_v-4" edge="1">
                    <mxGeometry relative="1" as="geometry"/>
                </mxCell>
                <mxCell id="sQGY53bfIxuJusBfrZeY-1" style="edgeStyle=none;html=1;exitX=0.5;exitY=1;exitDx=0;exitDy=0;entryX=0.5;entryY=0;entryDx=0;entryDy=0;" parent="ElLkuX0pzu4TTzHwkI-f-1" source="R94KD36VV51frhEfyH_v-1" target="sQGY53bfIxuJusBfrZeY-0" edge="1">
                    <mxGeometry relative="1" as="geometry"/>
                </mxCell>
                <mxCell id="R94KD36VV51frhEfyH_v-1" value="Confirm?" style="rhombus;whiteSpace=wrap;html=1;" parent="ElLkuX0pzu4TTzHwkI-f-1" vertex="1">
                    <mxGeometry x="469" y="200" width="80" height="80" as="geometry"/>
                </mxCell>
                <mxCell id="BkNVRpBjyjJ8byR99qgg-5" style="edgeStyle=none;html=1;exitX=1;exitY=0.5;exitDx=0;exitDy=0;exitPerimeter=0;entryX=0;entryY=0.5;entryDx=0;entryDy=0;" parent="ElLkuX0pzu4TTzHwkI-f-1" source="R94KD36VV51frhEfyH_v-4" target="R94KD36VV51frhEfyH_v-5" edge="1">
                    <mxGeometry relative="1" as="geometry"/>
                </mxCell>
                <mxCell id="R94KD36VV51frhEfyH_v-4" value="Update&lt;br&gt;Database" style="shape=cylinder3;whiteSpace=wrap;html=1;boundedLbl=1;backgroundOutline=1;size=15;" parent="ElLkuX0pzu4TTzHwkI-f-1" vertex="1">
                    <mxGeometry x="599" y="200" width="60" height="80" as="geometry"/>
                </mxCell>
                <mxCell id="R94KD36VV51frhEfyH_v-5" value="7" style="ellipse;whiteSpace=wrap;html=1;aspect=fixed;" parent="ElLkuX0pzu4TTzHwkI-f-1" vertex="1">
                    <mxGeometry x="709" y="220" width="40" height="40" as="geometry"/>
                </mxCell>
                <mxCell id="BkNVRpBjyjJ8byR99qgg-6" style="edgeStyle=none;html=1;exitX=1;exitY=0.5;exitDx=0;exitDy=0;" parent="ElLkuX0pzu4TTzHwkI-f-1" source="R94KD36VV51frhEfyH_v-6" edge="1">
                    <mxGeometry relative="1" as="geometry">
                        <mxPoint x="120" y="65" as="targetPoint"/>
                    </mxGeometry>
                </mxCell>
                <mxCell id="R94KD36VV51frhEfyH_v-6" value="7" style="ellipse;whiteSpace=wrap;html=1;aspect=fixed;" parent="ElLkuX0pzu4TTzHwkI-f-1" vertex="1">
                    <mxGeometry x="30" y="50" width="30" height="30" as="geometry"/>
                </mxCell>
                <mxCell id="HtB7j7Was2V3ocQT-62w-1" value="Yes" style="text;html=1;align=center;verticalAlign=middle;resizable=0;points=[];autosize=1;strokeColor=none;fillColor=none;" parent="ElLkuX0pzu4TTzHwkI-f-1" vertex="1">
                    <mxGeometry x="185" y="222" width="40" height="20" as="geometry"/>
                </mxCell>
                <mxCell id="HtB7j7Was2V3ocQT-62w-2" value="No" style="text;html=1;align=center;verticalAlign=middle;resizable=0;points=[];autosize=1;strokeColor=none;fillColor=none;" parent="ElLkuX0pzu4TTzHwkI-f-1" vertex="1">
                    <mxGeometry x="117" y="290" width="30" height="20" as="geometry"/>
                </mxCell>
                <mxCell id="HtB7j7Was2V3ocQT-62w-3" value="No" style="text;html=1;align=center;verticalAlign=middle;resizable=0;points=[];autosize=1;strokeColor=none;fillColor=none;" parent="ElLkuX0pzu4TTzHwkI-f-1" vertex="1">
                    <mxGeometry x="507" y="291" width="30" height="20" as="geometry"/>
                </mxCell>
                <mxCell id="HtB7j7Was2V3ocQT-62w-4" value="Yes" style="text;html=1;align=center;verticalAlign=middle;resizable=0;points=[];autosize=1;strokeColor=none;fillColor=none;" parent="ElLkuX0pzu4TTzHwkI-f-1" vertex="1">
                    <mxGeometry x="543" y="222" width="40" height="20" as="geometry"/>
                </mxCell>
                <mxCell id="sQGY53bfIxuJusBfrZeY-0" value="7" style="ellipse;whiteSpace=wrap;html=1;aspect=fixed;" parent="ElLkuX0pzu4TTzHwkI-f-1" vertex="1">
                    <mxGeometry x="489" y="330" width="40" height="40" as="geometry"/>
                </mxCell>
                <mxCell id="OOW7Hte-6IVxImxS7RY0-0" style="edgeStyle=none;html=1;exitX=0.5;exitY=1;exitDx=0;exitDy=0;exitPerimeter=0;entryX=0.5;entryY=0;entryDx=0;entryDy=0;entryPerimeter=0;" edge="1" parent="ElLkuX0pzu4TTzHwkI-f-1" source="OOW7Hte-6IVxImxS7RY0-1" target="OOW7Hte-6IVxImxS7RY0-17">
                    <mxGeometry relative="1" as="geometry">
                        <mxPoint x="353" y="996" as="targetPoint"/>
                    </mxGeometry>
                </mxCell>
                <mxCell id="OOW7Hte-6IVxImxS7RY0-1" value="update&lt;br&gt;database" style="strokeWidth=2;html=1;shape=mxgraph.flowchart.database;whiteSpace=wrap;" vertex="1" parent="ElLkuX0pzu4TTzHwkI-f-1">
                    <mxGeometry x="308" y="851" width="60" height="90" as="geometry"/>
                </mxCell>
                <mxCell id="OOW7Hte-6IVxImxS7RY0-2" style="edgeStyle=none;html=1;exitX=0.5;exitY=1;exitDx=0;exitDy=0;entryX=0.5;entryY=0;entryDx=0;entryDy=0;entryPerimeter=0;" edge="1" parent="ElLkuX0pzu4TTzHwkI-f-1" source="OOW7Hte-6IVxImxS7RY0-3" target="OOW7Hte-6IVxImxS7RY0-1">
                    <mxGeometry relative="1" as="geometry"/>
                </mxCell>
                <mxCell id="OOW7Hte-6IVxImxS7RY0-3" value="Hash New Password" style="rounded=0;whiteSpace=wrap;html=1;" vertex="1" parent="ElLkuX0pzu4TTzHwkI-f-1">
                    <mxGeometry x="278" y="726" width="120" height="60" as="geometry"/>
                </mxCell>
                <mxCell id="OOW7Hte-6IVxImxS7RY0-4" style="edgeStyle=none;html=1;exitX=0.5;exitY=1;exitDx=0;exitDy=0;entryX=0.5;entryY=0;entryDx=0;entryDy=0;" edge="1" parent="ElLkuX0pzu4TTzHwkI-f-1" source="OOW7Hte-6IVxImxS7RY0-5" target="OOW7Hte-6IVxImxS7RY0-8">
                    <mxGeometry relative="1" as="geometry"/>
                </mxCell>
                <mxCell id="OOW7Hte-6IVxImxS7RY0-5" value="Input &lt;br&gt;Current Password,&lt;br&gt;New Password, and&amp;nbsp;&lt;br&gt;Confirm New Password" style="shape=parallelogram;perimeter=parallelogramPerimeter;whiteSpace=wrap;html=1;fixedSize=1;" vertex="1" parent="ElLkuX0pzu4TTzHwkI-f-1">
                    <mxGeometry x="243" y="376" width="190" height="68" as="geometry"/>
                </mxCell>
                <mxCell id="OOW7Hte-6IVxImxS7RY0-6" style="edgeStyle=none;html=1;exitX=0.5;exitY=1;exitDx=0;exitDy=0;entryX=0.5;entryY=0;entryDx=0;entryDy=0;" edge="1" parent="ElLkuX0pzu4TTzHwkI-f-1" source="OOW7Hte-6IVxImxS7RY0-8" target="OOW7Hte-6IVxImxS7RY0-3">
                    <mxGeometry relative="1" as="geometry"/>
                </mxCell>
                <mxCell id="OOW7Hte-6IVxImxS7RY0-7" style="edgeStyle=none;html=1;exitX=1;exitY=0.5;exitDx=0;exitDy=0;entryX=1;entryY=0.5;entryDx=0;entryDy=0;" edge="1" parent="ElLkuX0pzu4TTzHwkI-f-1" source="OOW7Hte-6IVxImxS7RY0-8" target="OOW7Hte-6IVxImxS7RY0-5">
                    <mxGeometry relative="1" as="geometry">
                        <Array as="points">
                            <mxPoint x="543" y="601"/>
                            <mxPoint x="543" y="410"/>
                        </Array>
                    </mxGeometry>
                </mxCell>
                <mxCell id="OOW7Hte-6IVxImxS7RY0-8" value="new password ==&lt;br&gt;confirm new password" style="rhombus;whiteSpace=wrap;html=1;" vertex="1" parent="ElLkuX0pzu4TTzHwkI-f-1">
                    <mxGeometry x="248" y="546" width="180" height="110" as="geometry"/>
                </mxCell>
                <mxCell id="OOW7Hte-6IVxImxS7RY0-9" value="true" style="text;html=1;align=center;verticalAlign=middle;resizable=0;points=[];autosize=1;strokeColor=none;fillColor=none;" vertex="1" parent="ElLkuX0pzu4TTzHwkI-f-1">
                    <mxGeometry x="333" y="676" width="40" height="20" as="geometry"/>
                </mxCell>
                <mxCell id="OOW7Hte-6IVxImxS7RY0-10" value="false" style="text;html=1;align=center;verticalAlign=middle;resizable=0;points=[];autosize=1;strokeColor=none;fillColor=none;" vertex="1" parent="ElLkuX0pzu4TTzHwkI-f-1">
                    <mxGeometry x="443" y="582" width="40" height="20" as="geometry"/>
                </mxCell>
                <mxCell id="OOW7Hte-6IVxImxS7RY0-11" style="edgeStyle=none;html=1;exitX=1;exitY=0.5;exitDx=0;exitDy=0;" edge="1" parent="ElLkuX0pzu4TTzHwkI-f-1" source="OOW7Hte-6IVxImxS7RY0-13" target="OOW7Hte-6IVxImxS7RY0-5">
                    <mxGeometry relative="1" as="geometry"/>
                </mxCell>
                <mxCell id="OOW7Hte-6IVxImxS7RY0-12" style="edgeStyle=none;html=1;exitX=0.5;exitY=1;exitDx=0;exitDy=0;entryX=0.5;entryY=0;entryDx=0;entryDy=0;" edge="1" parent="ElLkuX0pzu4TTzHwkI-f-1" source="OOW7Hte-6IVxImxS7RY0-13" target="OOW7Hte-6IVxImxS7RY0-15">
                    <mxGeometry relative="1" as="geometry"/>
                </mxCell>
                <mxCell id="OOW7Hte-6IVxImxS7RY0-13" value="Change Password?" style="rhombus;whiteSpace=wrap;html=1;" vertex="1" parent="ElLkuX0pzu4TTzHwkI-f-1">
                    <mxGeometry x="70.5" y="370" width="95" height="80" as="geometry"/>
                </mxCell>
                <mxCell id="OOW7Hte-6IVxImxS7RY0-14" style="edgeStyle=none;html=1;exitX=0.5;exitY=1;exitDx=0;exitDy=0;entryX=0.5;entryY=0;entryDx=0;entryDy=0;" edge="1" parent="ElLkuX0pzu4TTzHwkI-f-1" source="OOW7Hte-6IVxImxS7RY0-15" target="OOW7Hte-6IVxImxS7RY0-16">
                    <mxGeometry relative="1" as="geometry"/>
                </mxCell>
                <mxCell id="OOW7Hte-6IVxImxS7RY0-15" value="Leave" style="rounded=0;whiteSpace=wrap;html=1;" vertex="1" parent="ElLkuX0pzu4TTzHwkI-f-1">
                    <mxGeometry x="78" y="506" width="80" height="60" as="geometry"/>
                </mxCell>
                <mxCell id="OOW7Hte-6IVxImxS7RY0-16" value="U" style="verticalLabelPosition=middle;verticalAlign=middle;html=1;shape=offPageConnector;rounded=0;size=0.5;labelPosition=center;align=center;" vertex="1" parent="ElLkuX0pzu4TTzHwkI-f-1">
                    <mxGeometry x="93" y="626" width="50" height="40" as="geometry"/>
                </mxCell>
                <mxCell id="OOW7Hte-6IVxImxS7RY0-17" value="7" style="verticalLabelPosition=middle;verticalAlign=middle;html=1;shape=mxgraph.flowchart.on-page_reference;labelPosition=center;align=center;" vertex="1" parent="ElLkuX0pzu4TTzHwkI-f-1">
                    <mxGeometry x="318" y="1016" width="40" height="40" as="geometry"/>
                </mxCell>
                <mxCell id="OOW7Hte-6IVxImxS7RY0-18" value="no" style="text;html=1;align=center;verticalAlign=middle;resizable=0;points=[];autosize=1;strokeColor=none;fillColor=none;" vertex="1" parent="ElLkuX0pzu4TTzHwkI-f-1">
                    <mxGeometry x="113" y="466" width="30" height="20" as="geometry"/>
                </mxCell>
                <mxCell id="OOW7Hte-6IVxImxS7RY0-19" value="yes" style="text;html=1;align=center;verticalAlign=middle;resizable=0;points=[];autosize=1;strokeColor=none;fillColor=none;" vertex="1" parent="ElLkuX0pzu4TTzHwkI-f-1">
                    <mxGeometry x="183" y="386" width="30" height="20" as="geometry"/>
                </mxCell>
            </root>
        </mxGraphModel>
    </diagram>
</mxfile>
